M48
; DRILL file {KiCad 9.0.1} date 2025-10-31T20:13:05-0400
; FORMAT={-:-/ absolute / inch / decimal}
; #@! TF.CreationDate,2025-10-31T20:13:05-04:00
; #@! TF.GenerationSoftware,Kicad,Pcbnew,9.0.1
; #@! TF.FileFunction,Plated,1,2,PTH
FMAT,2
INCH
; #@! TA.AperFunction,Plated,PTH,ViaDrill
T1C0.0118
; #@! TA.AperFunction,Plated,PTH,ComponentDrill
T2C0.0236
%
G90
G05
T1
X3.9882Y-3.6142
X4.378Y-3.2047
X4.4252Y-2.5118
X4.6063Y-2.8425
X4.8504Y-3.5354
X4.9291Y-3.1732
X5.0551Y-3.7559
X5.0945Y-2.5906
X5.1969Y-2.874
X5.2677Y-3.1969
X5.3293Y-3.156
X5.378Y-3.1732
X5.4409Y-3.2598
X5.4488Y-2.5984
X5.4488Y-2.9843
X5.4508Y-3.4256
X5.5315Y-3.3701
X5.5591Y-3.1496
X5.6181Y-3.5
X5.622Y-3.5827
X5.626Y-3.0276
X5.6391Y-3.3245
X5.6693Y-3.2756
X5.7323Y-3.4252
X5.7717Y-3.2677
X5.7814Y-3.2154
X5.8228Y-3.0827
X5.8346Y-3.5039
X5.8543Y-3.1063
X5.8661Y-3.1535
X5.8661Y-3.7402
X5.9173Y-3.1299
X6.1575Y-2.5197
X6.3228Y-3.2362
X6.3386Y-3.5827
X6.3701Y-2.7162
X6.5984Y-3.4567
X6.7402Y-3.0
X6.7559Y-2.5118
X6.7559Y-3.1063
X6.7874Y-2.9134
X6.8189Y-3.4409
X6.8402Y-3.1509
X6.8661Y-2.8465
X6.8701Y-3.2087
X6.874Y-2.9646
X6.878Y-3.0039
X6.8828Y-3.1427
X6.8926Y-3.3227
X6.9213Y-3.4252
X6.9249Y-3.0888
X6.9809Y-3.036
X7.0709Y-3.6457
T2
G00X3.6628Y-3.4913
M15
G01X3.6313Y-3.4913
M16
G05
G00X3.6628Y-3.8315
M15
G01X3.6313Y-3.8315
M16
G05
G00X3.8333Y-3.4913
M15
G01X3.79Y-3.4913
M16
G05
G00X3.8333Y-3.8315
M15
G01X3.79Y-3.8315
M16
G05
M30
