%TF.GenerationSoftware,KiCad,Pcbnew,9.0.1*%
%TF.CreationDate,2025-10-31T20:13:03-04:00*%
%TF.ProjectId,arcus,61726375-732e-46b6-9963-61645f706362,2025-10-31*%
%TF.SameCoordinates,Original*%
%TF.FileFunction,Copper,L2,Bot*%
%TF.FilePolarity,Positive*%
%FSLAX46Y46*%
G04 Gerber Fmt 4.6, Leading zero omitted, Abs format (unit mm)*
G04 Created by KiCad (PCBNEW 9.0.1) date 2025-10-31 20:13:03*
%MOMM*%
%LPD*%
G01*
G04 APERTURE LIST*
%TA.AperFunction,HeatsinkPad*%
%ADD10O,2.100000X1.000000*%
%TD*%
%TA.AperFunction,HeatsinkPad*%
%ADD11O,1.800000X1.000000*%
%TD*%
%TA.AperFunction,ViaPad*%
%ADD12C,0.600000*%
%TD*%
%TA.AperFunction,Conductor*%
%ADD13C,0.200000*%
%TD*%
G04 APERTURE END LIST*
D10*
%TO.P,J2,S1,SHIELD*%
%TO.N,GND*%
X96815000Y-88680000D03*
D11*
X92635000Y-88680000D03*
D10*
X96815000Y-97320000D03*
D11*
X92635000Y-97320000D03*
%TD*%
D12*
%TO.N,GND*%
X101300000Y-91800000D03*
%TO.N,/D{slash}C*%
X147900000Y-78300000D03*
X174824265Y-79824265D03*
%TO.N,/CS*%
X173739990Y-80032203D03*
%TO.N,/MOSI*%
X148700000Y-78900000D03*
%TO.N,/CLK*%
X150300000Y-79500000D03*
X175892227Y-78455212D03*
%TO.N,/CS*%
X149000000Y-80100000D03*
%TO.N,/BUSY*%
X146847594Y-81672170D03*
X174500000Y-81500000D03*
%TO.N,+3V3*%
X174600000Y-75300000D03*
%TO.N,GND*%
X174700000Y-76300000D03*
X173200000Y-87400000D03*
X171200000Y-76200000D03*
X140500000Y-85600000D03*
X161800000Y-68992462D03*
X172400000Y-74000000D03*
X174400000Y-72300000D03*
X117000000Y-72200000D03*
X156400000Y-64000000D03*
X135363641Y-80163641D03*
X129400000Y-65800000D03*
X123200000Y-89800000D03*
X125200000Y-80600000D03*
X111200000Y-81400000D03*
X161000000Y-91000000D03*
X138200000Y-82800000D03*
X175072742Y-84395635D03*
X141200000Y-80000000D03*
X112400000Y-63800000D03*
X132000000Y-73000000D03*
X160600000Y-82200000D03*
X148200000Y-89000000D03*
X142800000Y-91000000D03*
X175800000Y-87000000D03*
X138400000Y-66000000D03*
X171600000Y-63800000D03*
X179600000Y-92600000D03*
X144000000Y-83200000D03*
%TO.N,+3V3*%
X138450000Y-87010000D03*
X142900000Y-76900000D03*
X145600000Y-87000000D03*
X177313724Y-77113724D03*
X167600000Y-87800000D03*
X149000000Y-95000000D03*
X146600000Y-83000000D03*
X138400000Y-75800000D03*
%TO.N,+1V1*%
X142700000Y-88900000D03*
X136600000Y-80600000D03*
%TO.N,Net-(U2-RUN)*%
X128400000Y-95400000D03*
X133800000Y-81200000D03*
%TO.N,+1V1*%
X143233195Y-84442571D03*
%TO.N,/MOSI*%
X171600000Y-78900000D03*
%TD*%
D13*
%TO.N,/D{slash}C*%
X176300000Y-77800000D02*
X148400000Y-77800000D01*
X176600000Y-79400000D02*
X176600000Y-78100000D01*
X148400000Y-77800000D02*
X147900000Y-78300000D01*
X176175735Y-79824265D02*
X176600000Y-79400000D01*
X176600000Y-78100000D02*
X176300000Y-77800000D01*
X174824265Y-79824265D02*
X176175735Y-79824265D01*
%TO.N,/CLK*%
X173451470Y-79500000D02*
X150300000Y-79500000D01*
X174496258Y-78455212D02*
X173451470Y-79500000D01*
X175892227Y-78455212D02*
X174496258Y-78455212D01*
%TO.N,/MOSI*%
X171600000Y-78900000D02*
X148700000Y-78900000D01*
%TO.N,/CS*%
X173672193Y-80100000D02*
X149000000Y-80100000D01*
X173739990Y-80032203D02*
X173672193Y-80100000D01*
%TO.N,/BUSY*%
X147819764Y-80700000D02*
X146847594Y-81672170D01*
X173700000Y-80700000D02*
X147819764Y-80700000D01*
X174500000Y-81500000D02*
X173700000Y-80700000D01*
%TO.N,+3V3*%
X146400000Y-92400000D02*
X146600000Y-92600000D01*
X142800000Y-92400000D02*
X146400000Y-92400000D01*
X138450000Y-88050000D02*
X142800000Y-92400000D01*
X138450000Y-87010000D02*
X138450000Y-88050000D01*
%TO.N,+1V1*%
X142300738Y-85375028D02*
X141624972Y-85375028D01*
X143233195Y-84442571D02*
X142300738Y-85375028D01*
X141624972Y-85375028D02*
X142700000Y-86450056D01*
X142700000Y-86450056D02*
X142700000Y-88900000D01*
X136849943Y-80600000D02*
X141624972Y-85375028D01*
X136600000Y-80600000D02*
X136849943Y-80600000D01*
%TO.N,+3V3*%
X174600000Y-75300000D02*
X176413724Y-77113724D01*
X176413724Y-77113724D02*
X177313724Y-77113724D01*
%TO.N,GND*%
X174600000Y-84791271D02*
X174600000Y-87400000D01*
X175400000Y-87400000D02*
X174600000Y-87400000D01*
X174995636Y-84395635D02*
X174600000Y-84791271D01*
X175800000Y-87000000D02*
X175400000Y-87400000D01*
X173200000Y-87400000D02*
X174600000Y-87400000D01*
X175072742Y-84395635D02*
X174995636Y-84395635D01*
%TO.N,+3V3*%
X177401000Y-77201000D02*
X177401000Y-79798943D01*
X169399943Y-87800000D02*
X167600000Y-87800000D01*
X145600000Y-87000000D02*
X145600000Y-87751470D01*
X177401000Y-79798943D02*
X169399943Y-87800000D01*
X142900000Y-76900000D02*
X141800000Y-75800000D01*
X141800000Y-75800000D02*
X138400000Y-75800000D01*
X146600000Y-88751470D02*
X146600000Y-92600000D01*
X149000000Y-95000000D02*
X146600000Y-92600000D01*
X145600000Y-87000000D02*
X145600000Y-84000000D01*
X145600000Y-87751470D02*
X146600000Y-88751470D01*
X177313724Y-77113724D02*
X177401000Y-77201000D01*
X145600000Y-84000000D02*
X146600000Y-83000000D01*
%TO.N,Net-(U2-RUN)*%
X128400000Y-86600000D02*
X133800000Y-81200000D01*
X128400000Y-95400000D02*
X128400000Y-86600000D01*
%TD*%
%TA.AperFunction,Conductor*%
%TO.N,GND*%
G36*
X194691474Y-53500501D02*
G01*
X194753887Y-53500500D01*
X194760839Y-53500695D01*
X195030284Y-53515823D01*
X195044078Y-53517377D01*
X195306699Y-53561995D01*
X195320246Y-53565086D01*
X195342036Y-53571364D01*
X195576209Y-53638825D01*
X195589334Y-53643417D01*
X195658380Y-53672016D01*
X195835440Y-53745354D01*
X195847962Y-53751384D01*
X196081103Y-53880234D01*
X196092866Y-53887624D01*
X196298786Y-54033730D01*
X196310108Y-54041763D01*
X196320977Y-54050429D01*
X196521825Y-54229914D01*
X196526880Y-54234694D01*
X198752282Y-56460095D01*
X198764955Y-56472769D01*
X198769718Y-56477808D01*
X198949530Y-56679031D01*
X198958199Y-56689902D01*
X199037596Y-56801806D01*
X199112337Y-56907148D01*
X199119731Y-56918916D01*
X199248583Y-57152065D01*
X199254615Y-57164592D01*
X199356545Y-57410677D01*
X199361138Y-57423801D01*
X199434880Y-57679764D01*
X199437974Y-57693320D01*
X199482595Y-57955928D01*
X199484152Y-57969745D01*
X199499305Y-58239483D01*
X199499500Y-58246438D01*
X199499500Y-99691470D01*
X199499499Y-99691474D01*
X199499499Y-99721597D01*
X199499499Y-99753376D01*
X199499499Y-99753888D01*
X199499304Y-99760839D01*
X199484177Y-100030272D01*
X199482620Y-100044090D01*
X199438005Y-100306694D01*
X199434911Y-100320251D01*
X199361174Y-100576209D01*
X199356582Y-100589334D01*
X199254647Y-100835436D01*
X199248613Y-100847965D01*
X199119769Y-101081097D01*
X199112371Y-101092871D01*
X198958232Y-101310113D01*
X198949562Y-101320985D01*
X198770084Y-101521825D01*
X198765306Y-101526879D01*
X198720818Y-101571368D01*
X198720815Y-101571371D01*
X196527228Y-103764955D01*
X196522171Y-103769736D01*
X196320968Y-103949530D01*
X196310097Y-103958199D01*
X196092857Y-104112333D01*
X196081083Y-104119731D01*
X195847934Y-104248583D01*
X195835407Y-104254615D01*
X195589322Y-104356545D01*
X195576198Y-104361138D01*
X195320235Y-104434880D01*
X195306679Y-104437974D01*
X195044071Y-104482595D01*
X195030254Y-104484152D01*
X194760517Y-104499305D01*
X194753562Y-104499500D01*
X95316134Y-104499500D01*
X95308529Y-104499499D01*
X95308526Y-104499499D01*
X95278266Y-104499499D01*
X95246109Y-104499499D01*
X95246108Y-104499498D01*
X95239160Y-104499304D01*
X94969727Y-104484177D01*
X94955909Y-104482620D01*
X94693305Y-104438005D01*
X94679748Y-104434911D01*
X94423790Y-104361174D01*
X94410665Y-104356582D01*
X94164563Y-104254647D01*
X94152034Y-104248613D01*
X93918902Y-104119769D01*
X93907128Y-104112371D01*
X93907074Y-104112333D01*
X93689890Y-103958235D01*
X93679019Y-103949567D01*
X93478183Y-103770093D01*
X93473130Y-103765315D01*
X93448710Y-103740896D01*
X93428631Y-103720817D01*
X93428628Y-103720815D01*
X91235061Y-101527247D01*
X91230282Y-101522192D01*
X91050459Y-101320966D01*
X91041794Y-101310101D01*
X90887643Y-101092842D01*
X90880258Y-101081087D01*
X90751410Y-100847949D01*
X90745378Y-100835423D01*
X90643444Y-100589324D01*
X90638852Y-100576199D01*
X90565116Y-100320244D01*
X90562023Y-100306696D01*
X90517405Y-100044072D01*
X90515851Y-100030281D01*
X90500694Y-99760316D01*
X90500500Y-99753378D01*
X90500500Y-99753376D01*
X90500501Y-99691474D01*
X90500500Y-99691470D01*
X90500500Y-97070000D01*
X91265138Y-97070000D01*
X92068012Y-97070000D01*
X92050795Y-97079940D01*
X91994940Y-97135795D01*
X91955444Y-97204204D01*
X91935000Y-97280504D01*
X91935000Y-97359496D01*
X91955444Y-97435796D01*
X91994940Y-97504205D01*
X92050795Y-97560060D01*
X92068012Y-97570000D01*
X91265138Y-97570000D01*
X91273430Y-97611690D01*
X91273430Y-97611692D01*
X91348807Y-97793671D01*
X91348814Y-97793684D01*
X91458248Y-97957462D01*
X91458251Y-97957466D01*
X91597533Y-98096748D01*
X91597537Y-98096751D01*
X91761315Y-98206185D01*
X91761328Y-98206192D01*
X91943306Y-98281569D01*
X91943318Y-98281572D01*
X92136504Y-98319999D01*
X92136508Y-98320000D01*
X92385000Y-98320000D01*
X92385000Y-97620000D01*
X92885000Y-97620000D01*
X92885000Y-98320000D01*
X93133492Y-98320000D01*
X93133495Y-98319999D01*
X93326681Y-98281572D01*
X93326693Y-98281569D01*
X93508671Y-98206192D01*
X93508684Y-98206185D01*
X93672462Y-98096751D01*
X93672466Y-98096748D01*
X93811748Y-97957466D01*
X93811751Y-97957462D01*
X93921185Y-97793684D01*
X93921192Y-97793671D01*
X93996569Y-97611692D01*
X93996569Y-97611690D01*
X94004862Y-97570000D01*
X93201988Y-97570000D01*
X93219205Y-97560060D01*
X93275060Y-97504205D01*
X93314556Y-97435796D01*
X93335000Y-97359496D01*
X93335000Y-97280504D01*
X93314556Y-97204204D01*
X93275060Y-97135795D01*
X93219205Y-97079940D01*
X93201988Y-97070000D01*
X94004862Y-97070000D01*
X95295138Y-97070000D01*
X96098012Y-97070000D01*
X96080795Y-97079940D01*
X96024940Y-97135795D01*
X95985444Y-97204204D01*
X95965000Y-97280504D01*
X95965000Y-97359496D01*
X95985444Y-97435796D01*
X96024940Y-97504205D01*
X96080795Y-97560060D01*
X96098012Y-97570000D01*
X95295138Y-97570000D01*
X95303430Y-97611690D01*
X95303430Y-97611692D01*
X95378807Y-97793671D01*
X95378814Y-97793684D01*
X95488248Y-97957462D01*
X95488251Y-97957466D01*
X95627533Y-98096748D01*
X95627537Y-98096751D01*
X95791315Y-98206185D01*
X95791328Y-98206192D01*
X95973306Y-98281569D01*
X95973318Y-98281572D01*
X96166504Y-98319999D01*
X96166508Y-98320000D01*
X96565000Y-98320000D01*
X96565000Y-97620000D01*
X97065000Y-97620000D01*
X97065000Y-98320000D01*
X97463492Y-98320000D01*
X97463495Y-98319999D01*
X97656681Y-98281572D01*
X97656693Y-98281569D01*
X97838671Y-98206192D01*
X97838684Y-98206185D01*
X98002462Y-98096751D01*
X98002466Y-98096748D01*
X98141748Y-97957466D01*
X98141751Y-97957462D01*
X98251185Y-97793684D01*
X98251192Y-97793671D01*
X98326569Y-97611692D01*
X98326569Y-97611690D01*
X98334862Y-97570000D01*
X97531988Y-97570000D01*
X97549205Y-97560060D01*
X97605060Y-97504205D01*
X97644556Y-97435796D01*
X97665000Y-97359496D01*
X97665000Y-97280504D01*
X97644556Y-97204204D01*
X97605060Y-97135795D01*
X97549205Y-97079940D01*
X97531988Y-97070000D01*
X98334862Y-97070000D01*
X98326569Y-97028309D01*
X98326569Y-97028307D01*
X98251192Y-96846328D01*
X98251185Y-96846315D01*
X98141751Y-96682537D01*
X98141748Y-96682533D01*
X98002466Y-96543251D01*
X98002462Y-96543248D01*
X97838684Y-96433814D01*
X97838671Y-96433807D01*
X97656693Y-96358430D01*
X97656681Y-96358427D01*
X97463495Y-96320000D01*
X97065000Y-96320000D01*
X97065000Y-97020000D01*
X96565000Y-97020000D01*
X96565000Y-96481784D01*
X96584685Y-96414745D01*
X96627000Y-96374397D01*
X96668365Y-96350515D01*
X96775515Y-96243365D01*
X96776372Y-96241879D01*
X96796721Y-96206637D01*
X96851279Y-96112138D01*
X96851281Y-96112135D01*
X96890500Y-95965766D01*
X96890500Y-95814234D01*
X96851281Y-95667865D01*
X96775515Y-95536635D01*
X96668365Y-95429485D01*
X96581221Y-95379172D01*
X96537136Y-95353719D01*
X96415614Y-95321158D01*
X96415595Y-95321153D01*
X127599500Y-95321153D01*
X127599500Y-95478846D01*
X127630261Y-95633489D01*
X127630264Y-95633501D01*
X127690602Y-95779172D01*
X127690609Y-95779185D01*
X127778210Y-95910288D01*
X127778213Y-95910292D01*
X127889707Y-96021786D01*
X127889711Y-96021789D01*
X128020814Y-96109390D01*
X128020827Y-96109397D01*
X128166498Y-96169735D01*
X128166503Y-96169737D01*
X128321153Y-96200499D01*
X128321156Y-96200500D01*
X128321158Y-96200500D01*
X128478844Y-96200500D01*
X128478845Y-96200499D01*
X128633497Y-96169737D01*
X128746166Y-96123067D01*
X128779172Y-96109397D01*
X128779172Y-96109396D01*
X128779179Y-96109394D01*
X128910289Y-96021789D01*
X129021789Y-95910289D01*
X129109394Y-95779179D01*
X129169737Y-95633497D01*
X129200500Y-95478842D01*
X129200500Y-95321158D01*
X129200500Y-95321155D01*
X129200499Y-95321153D01*
X129169738Y-95166510D01*
X129169737Y-95166503D01*
X129132243Y-95075983D01*
X129109397Y-95020827D01*
X129109390Y-95020814D01*
X129021398Y-94889125D01*
X129000520Y-94822447D01*
X129000500Y-94820234D01*
X129000500Y-86931153D01*
X137649500Y-86931153D01*
X137649500Y-87088846D01*
X137680261Y-87243489D01*
X137680264Y-87243501D01*
X137740602Y-87389172D01*
X137740609Y-87389185D01*
X137828602Y-87520874D01*
X137849480Y-87587551D01*
X137849500Y-87589765D01*
X137849500Y-87963330D01*
X137849499Y-87963348D01*
X137849499Y-88129054D01*
X137849498Y-88129054D01*
X137849499Y-88129057D01*
X137890423Y-88281785D01*
X137890424Y-88281787D01*
X137890423Y-88281787D01*
X137903986Y-88305277D01*
X137903987Y-88305279D01*
X137969475Y-88418709D01*
X137969481Y-88418717D01*
X138088349Y-88537585D01*
X138088355Y-88537590D01*
X142315139Y-92764374D01*
X142315149Y-92764385D01*
X142319479Y-92768715D01*
X142319480Y-92768716D01*
X142431284Y-92880520D01*
X142518095Y-92930639D01*
X142518097Y-92930641D01*
X142556151Y-92952611D01*
X142568215Y-92959577D01*
X142720943Y-93000501D01*
X142720946Y-93000501D01*
X142886653Y-93000501D01*
X142886669Y-93000500D01*
X146099902Y-93000500D01*
X146129338Y-93009143D01*
X146159328Y-93015667D01*
X146164344Y-93019422D01*
X146166941Y-93020185D01*
X146187582Y-93036818D01*
X146231284Y-93080520D01*
X146231285Y-93080520D01*
X146238353Y-93087588D01*
X148165425Y-95014660D01*
X148198910Y-95075983D01*
X148199361Y-95078149D01*
X148230261Y-95233491D01*
X148230264Y-95233501D01*
X148290602Y-95379172D01*
X148290609Y-95379185D01*
X148378210Y-95510288D01*
X148378213Y-95510292D01*
X148489707Y-95621786D01*
X148489711Y-95621789D01*
X148620814Y-95709390D01*
X148620827Y-95709397D01*
X148766498Y-95769735D01*
X148766503Y-95769737D01*
X148921153Y-95800499D01*
X148921156Y-95800500D01*
X148921158Y-95800500D01*
X149078844Y-95800500D01*
X149078845Y-95800499D01*
X149233497Y-95769737D01*
X149379179Y-95709394D01*
X149510289Y-95621789D01*
X149621789Y-95510289D01*
X149709394Y-95379179D01*
X149769737Y-95233497D01*
X149800500Y-95078842D01*
X149800500Y-94921158D01*
X149800500Y-94921155D01*
X149800499Y-94921153D01*
X149769738Y-94766510D01*
X149769737Y-94766503D01*
X149769735Y-94766498D01*
X149709397Y-94620827D01*
X149709390Y-94620814D01*
X149621789Y-94489711D01*
X149621786Y-94489707D01*
X149510292Y-94378213D01*
X149510288Y-94378210D01*
X149379185Y-94290609D01*
X149379172Y-94290602D01*
X149233501Y-94230264D01*
X149233491Y-94230261D01*
X149078151Y-94199362D01*
X149016241Y-94166977D01*
X149014662Y-94165426D01*
X147236819Y-92387583D01*
X147203334Y-92326260D01*
X147200500Y-92299902D01*
X147200500Y-88840530D01*
X147200501Y-88840517D01*
X147200501Y-88672414D01*
X147191951Y-88640504D01*
X147159577Y-88519686D01*
X147113536Y-88439940D01*
X147080524Y-88382760D01*
X147080518Y-88382752D01*
X146729546Y-88031780D01*
X146288245Y-87590480D01*
X146254761Y-87529158D01*
X146259745Y-87459467D01*
X146272825Y-87433909D01*
X146309390Y-87379185D01*
X146309390Y-87379184D01*
X146309394Y-87379179D01*
X146369737Y-87233497D01*
X146400500Y-87078842D01*
X146400500Y-86921158D01*
X146400500Y-86921155D01*
X146400499Y-86921153D01*
X146386094Y-86848735D01*
X146369737Y-86766503D01*
X146337654Y-86689046D01*
X146309397Y-86620827D01*
X146309390Y-86620814D01*
X146221398Y-86489125D01*
X146200520Y-86422447D01*
X146200500Y-86420234D01*
X146200500Y-84300097D01*
X146220185Y-84233058D01*
X146236819Y-84212416D01*
X146385850Y-84063385D01*
X146614665Y-83834570D01*
X146675984Y-83801088D01*
X146678151Y-83800637D01*
X146678840Y-83800500D01*
X146678842Y-83800500D01*
X146833497Y-83769737D01*
X146979179Y-83709394D01*
X147110289Y-83621789D01*
X147221789Y-83510289D01*
X147309394Y-83379179D01*
X147369737Y-83233497D01*
X147400500Y-83078842D01*
X147400500Y-82921158D01*
X147400500Y-82921155D01*
X147400499Y-82921153D01*
X147369738Y-82766510D01*
X147369738Y-82766508D01*
X147369737Y-82766503D01*
X147369735Y-82766498D01*
X147309397Y-82620827D01*
X147309390Y-82620814D01*
X147242261Y-82520349D01*
X147221383Y-82453672D01*
X147239867Y-82386291D01*
X147276473Y-82348356D01*
X147325483Y-82315607D01*
X147357883Y-82293959D01*
X147469383Y-82182459D01*
X147556988Y-82051349D01*
X147617331Y-81905667D01*
X147636707Y-81808255D01*
X147648232Y-81750320D01*
X147680617Y-81688409D01*
X147682112Y-81686886D01*
X148032180Y-81336819D01*
X148093503Y-81303334D01*
X148119861Y-81300500D01*
X173399903Y-81300500D01*
X173466942Y-81320185D01*
X173487584Y-81336819D01*
X173665425Y-81514660D01*
X173698910Y-81575983D01*
X173699361Y-81578149D01*
X173730261Y-81733491D01*
X173730264Y-81733501D01*
X173790602Y-81879172D01*
X173790609Y-81879185D01*
X173878210Y-82010288D01*
X173878213Y-82010292D01*
X173989709Y-82121788D01*
X173996572Y-82126373D01*
X174007473Y-82133657D01*
X174052279Y-82187267D01*
X174060988Y-82256592D01*
X174030835Y-82319620D01*
X174026265Y-82324441D01*
X169187527Y-87163181D01*
X169126204Y-87196666D01*
X169099846Y-87199500D01*
X168179766Y-87199500D01*
X168112727Y-87179815D01*
X168110875Y-87178602D01*
X167979185Y-87090609D01*
X167979172Y-87090602D01*
X167833501Y-87030264D01*
X167833489Y-87030261D01*
X167678845Y-86999500D01*
X167678842Y-86999500D01*
X167521158Y-86999500D01*
X167521155Y-86999500D01*
X167366510Y-87030261D01*
X167366498Y-87030264D01*
X167220827Y-87090602D01*
X167220814Y-87090609D01*
X167089711Y-87178210D01*
X167089707Y-87178213D01*
X166978213Y-87289707D01*
X166978210Y-87289711D01*
X166890609Y-87420814D01*
X166890602Y-87420827D01*
X166830264Y-87566498D01*
X166830261Y-87566510D01*
X166799500Y-87721153D01*
X166799500Y-87878846D01*
X166830261Y-88033489D01*
X166830264Y-88033501D01*
X166890602Y-88179172D01*
X166890609Y-88179185D01*
X166978210Y-88310288D01*
X166978213Y-88310292D01*
X167089707Y-88421786D01*
X167089711Y-88421789D01*
X167220814Y-88509390D01*
X167220827Y-88509397D01*
X167353145Y-88564204D01*
X167366503Y-88569737D01*
X167521153Y-88600499D01*
X167521156Y-88600500D01*
X167521158Y-88600500D01*
X167678844Y-88600500D01*
X167678845Y-88600499D01*
X167833497Y-88569737D01*
X167951592Y-88520821D01*
X167979172Y-88509397D01*
X167979172Y-88509396D01*
X167979179Y-88509394D01*
X167999531Y-88495795D01*
X168110875Y-88421398D01*
X168177553Y-88400520D01*
X168179766Y-88400500D01*
X169313274Y-88400500D01*
X169313290Y-88400501D01*
X169320886Y-88400501D01*
X169478997Y-88400501D01*
X169479000Y-88400501D01*
X169631728Y-88359577D01*
X169715784Y-88311047D01*
X169768659Y-88280520D01*
X169880463Y-88168716D01*
X169880463Y-88168714D01*
X169890667Y-88158511D01*
X169890671Y-88158506D01*
X177759506Y-80289671D01*
X177759511Y-80289667D01*
X177769714Y-80279463D01*
X177769716Y-80279463D01*
X177881520Y-80167659D01*
X177943921Y-80059577D01*
X177945581Y-80056703D01*
X177960574Y-80030733D01*
X177960573Y-80030733D01*
X177960577Y-80030728D01*
X178001500Y-79878001D01*
X178001500Y-79719886D01*
X178001500Y-77562871D01*
X178020439Y-77498371D01*
X178020249Y-77498270D01*
X178020737Y-77497356D01*
X178021185Y-77495832D01*
X178022398Y-77493980D01*
X178023118Y-77492903D01*
X178083461Y-77347221D01*
X178114224Y-77192566D01*
X178114224Y-77034882D01*
X178114224Y-77034879D01*
X178114223Y-77034877D01*
X178083461Y-76880227D01*
X178058992Y-76821153D01*
X178023121Y-76734551D01*
X178023114Y-76734538D01*
X177935513Y-76603435D01*
X177935510Y-76603431D01*
X177824016Y-76491937D01*
X177824012Y-76491934D01*
X177692909Y-76404333D01*
X177692896Y-76404326D01*
X177547225Y-76343988D01*
X177547213Y-76343985D01*
X177392569Y-76313224D01*
X177392566Y-76313224D01*
X177234882Y-76313224D01*
X177234879Y-76313224D01*
X177080234Y-76343985D01*
X177080222Y-76343988D01*
X176934551Y-76404326D01*
X176934538Y-76404333D01*
X176802849Y-76492326D01*
X176784802Y-76497976D01*
X176768893Y-76508201D01*
X176737931Y-76512652D01*
X176736171Y-76513204D01*
X176733958Y-76513224D01*
X176713821Y-76513224D01*
X176646782Y-76493539D01*
X176626140Y-76476905D01*
X175434574Y-75285339D01*
X175401089Y-75224016D01*
X175400638Y-75221849D01*
X175374531Y-75090606D01*
X175369737Y-75066503D01*
X175369735Y-75066498D01*
X175309397Y-74920827D01*
X175309390Y-74920814D01*
X175221789Y-74789711D01*
X175221786Y-74789707D01*
X175110292Y-74678213D01*
X175110288Y-74678210D01*
X174979185Y-74590609D01*
X174979172Y-74590602D01*
X174833501Y-74530264D01*
X174833489Y-74530261D01*
X174678845Y-74499500D01*
X174678842Y-74499500D01*
X174521158Y-74499500D01*
X174521155Y-74499500D01*
X174366510Y-74530261D01*
X174366498Y-74530264D01*
X174220827Y-74590602D01*
X174220814Y-74590609D01*
X174089711Y-74678210D01*
X174089707Y-74678213D01*
X173978213Y-74789707D01*
X173978210Y-74789711D01*
X173890609Y-74920814D01*
X173890602Y-74920827D01*
X173830264Y-75066498D01*
X173830261Y-75066510D01*
X173799500Y-75221153D01*
X173799500Y-75378846D01*
X173830261Y-75533489D01*
X173830264Y-75533501D01*
X173890602Y-75679172D01*
X173890609Y-75679185D01*
X173978210Y-75810288D01*
X173978213Y-75810292D01*
X174089707Y-75921786D01*
X174089711Y-75921789D01*
X174220814Y-76009390D01*
X174220827Y-76009397D01*
X174356093Y-76065425D01*
X174366503Y-76069737D01*
X174431147Y-76082595D01*
X174521849Y-76100638D01*
X174583760Y-76133023D01*
X174585339Y-76134574D01*
X175438584Y-76987819D01*
X175472069Y-77049142D01*
X175467085Y-77118834D01*
X175425213Y-77174767D01*
X175359749Y-77199184D01*
X175350903Y-77199500D01*
X148486670Y-77199500D01*
X148486654Y-77199499D01*
X148479058Y-77199499D01*
X148320943Y-77199499D01*
X148244579Y-77219961D01*
X148168214Y-77240423D01*
X148168209Y-77240426D01*
X148031290Y-77319475D01*
X148031286Y-77319478D01*
X147885337Y-77465427D01*
X147824014Y-77498911D01*
X147821848Y-77499362D01*
X147666508Y-77530261D01*
X147666498Y-77530264D01*
X147520827Y-77590602D01*
X147520814Y-77590609D01*
X147389711Y-77678210D01*
X147389707Y-77678213D01*
X147278213Y-77789707D01*
X147278210Y-77789711D01*
X147190609Y-77920814D01*
X147190602Y-77920827D01*
X147130264Y-78066498D01*
X147130261Y-78066510D01*
X147099500Y-78221153D01*
X147099500Y-78378846D01*
X147130261Y-78533489D01*
X147130264Y-78533501D01*
X147190602Y-78679172D01*
X147190609Y-78679185D01*
X147278210Y-78810288D01*
X147278213Y-78810292D01*
X147389707Y-78921786D01*
X147389711Y-78921789D01*
X147520814Y-79009390D01*
X147520827Y-79009397D01*
X147632643Y-79055712D01*
X147666503Y-79069737D01*
X147821153Y-79100499D01*
X147821156Y-79100500D01*
X147821158Y-79100500D01*
X147833741Y-79100500D01*
X147900780Y-79120185D01*
X147946535Y-79172989D01*
X147948302Y-79177048D01*
X147990602Y-79279172D01*
X147990609Y-79279185D01*
X148078210Y-79410288D01*
X148078213Y-79410292D01*
X148189707Y-79521786D01*
X148189715Y-79521792D01*
X148248995Y-79561402D01*
X148293801Y-79615014D01*
X148302508Y-79684339D01*
X148292194Y-79714885D01*
X148292937Y-79715193D01*
X148230264Y-79866498D01*
X148230261Y-79866508D01*
X148203769Y-79999692D01*
X148189054Y-80027822D01*
X148175865Y-80056703D01*
X148172975Y-80058559D01*
X148171384Y-80061603D01*
X148143791Y-80077315D01*
X148117087Y-80094477D01*
X148112493Y-80095137D01*
X148110668Y-80096177D01*
X148082152Y-80099500D01*
X147906433Y-80099500D01*
X147906417Y-80099499D01*
X147898821Y-80099499D01*
X147740707Y-80099499D01*
X147587979Y-80140423D01*
X147540805Y-80167659D01*
X147540804Y-80167659D01*
X147451054Y-80219475D01*
X147451046Y-80219481D01*
X146832933Y-80837595D01*
X146771610Y-80871080D01*
X146769444Y-80871531D01*
X146614102Y-80902431D01*
X146614092Y-80902434D01*
X146468421Y-80962772D01*
X146468408Y-80962779D01*
X146337305Y-81050380D01*
X146337301Y-81050383D01*
X146225807Y-81161877D01*
X146225804Y-81161881D01*
X146138203Y-81292984D01*
X146138196Y-81292997D01*
X146077858Y-81438668D01*
X146077855Y-81438680D01*
X146047094Y-81593323D01*
X146047094Y-81751016D01*
X146077855Y-81905659D01*
X146077858Y-81905671D01*
X146138196Y-82051342D01*
X146138203Y-82051355D01*
X146205332Y-82151820D01*
X146226210Y-82218498D01*
X146207725Y-82285878D01*
X146171122Y-82323813D01*
X146089707Y-82378213D01*
X145978213Y-82489707D01*
X145978210Y-82489711D01*
X145890609Y-82620814D01*
X145890602Y-82620827D01*
X145830264Y-82766498D01*
X145830261Y-82766508D01*
X145799362Y-82921848D01*
X145766977Y-82983759D01*
X145765426Y-82985337D01*
X145231286Y-83519478D01*
X145119481Y-83631282D01*
X145119479Y-83631285D01*
X145074385Y-83709392D01*
X145074384Y-83709393D01*
X145040423Y-83768214D01*
X145040423Y-83768215D01*
X144999499Y-83920943D01*
X144999499Y-83920945D01*
X144999499Y-84089046D01*
X144999500Y-84089059D01*
X144999500Y-86420234D01*
X144979815Y-86487273D01*
X144978602Y-86489125D01*
X144890609Y-86620814D01*
X144890602Y-86620827D01*
X144830264Y-86766498D01*
X144830261Y-86766510D01*
X144799500Y-86921153D01*
X144799500Y-87078846D01*
X144830261Y-87233489D01*
X144830264Y-87233501D01*
X144890602Y-87379172D01*
X144890609Y-87379185D01*
X144978602Y-87510874D01*
X144984252Y-87528920D01*
X144994477Y-87544830D01*
X144998928Y-87575789D01*
X144999480Y-87577551D01*
X144999500Y-87579765D01*
X144999500Y-87664800D01*
X144999499Y-87664818D01*
X144999499Y-87830524D01*
X144999498Y-87830524D01*
X145040423Y-87983255D01*
X145068440Y-88031780D01*
X145068441Y-88031784D01*
X145068442Y-88031784D01*
X145119479Y-88120184D01*
X145119481Y-88120187D01*
X145238349Y-88239055D01*
X145238355Y-88239060D01*
X145963181Y-88963886D01*
X145996666Y-89025209D01*
X145999500Y-89051567D01*
X145999500Y-91675500D01*
X145979815Y-91742539D01*
X145927011Y-91788294D01*
X145875500Y-91799500D01*
X143100097Y-91799500D01*
X143033058Y-91779815D01*
X143012416Y-91763181D01*
X139086819Y-87837584D01*
X139072115Y-87810656D01*
X139055523Y-87784838D01*
X139054631Y-87778637D01*
X139053334Y-87776261D01*
X139050500Y-87749903D01*
X139050500Y-87589765D01*
X139070185Y-87522726D01*
X139071398Y-87520874D01*
X139159390Y-87389185D01*
X139159390Y-87389184D01*
X139159394Y-87389179D01*
X139219737Y-87243497D01*
X139250500Y-87088842D01*
X139250500Y-86931158D01*
X139250500Y-86931155D01*
X139250499Y-86931153D01*
X139248510Y-86921153D01*
X139219737Y-86776503D01*
X139183517Y-86689059D01*
X139159397Y-86630827D01*
X139159390Y-86630814D01*
X139071789Y-86499711D01*
X139071786Y-86499707D01*
X138960292Y-86388213D01*
X138960288Y-86388210D01*
X138829185Y-86300609D01*
X138829172Y-86300602D01*
X138683501Y-86240264D01*
X138683489Y-86240261D01*
X138528845Y-86209500D01*
X138528842Y-86209500D01*
X138371158Y-86209500D01*
X138371155Y-86209500D01*
X138216510Y-86240261D01*
X138216498Y-86240264D01*
X138070827Y-86300602D01*
X138070814Y-86300609D01*
X137939711Y-86388210D01*
X137939707Y-86388213D01*
X137828213Y-86499707D01*
X137828210Y-86499711D01*
X137740609Y-86630814D01*
X137740602Y-86630827D01*
X137680264Y-86776498D01*
X137680261Y-86776510D01*
X137649500Y-86931153D01*
X129000500Y-86931153D01*
X129000500Y-86900097D01*
X129020185Y-86833058D01*
X129036819Y-86812416D01*
X131422903Y-84426332D01*
X133814662Y-82034572D01*
X133875983Y-82001089D01*
X133878150Y-82000638D01*
X133936085Y-81989113D01*
X134033497Y-81969737D01*
X134179179Y-81909394D01*
X134310289Y-81821789D01*
X134421789Y-81710289D01*
X134509394Y-81579179D01*
X134569737Y-81433497D01*
X134600500Y-81278842D01*
X134600500Y-81121158D01*
X134600500Y-81121155D01*
X134600499Y-81121153D01*
X134574353Y-80989711D01*
X134569737Y-80966503D01*
X134569735Y-80966498D01*
X134509397Y-80820827D01*
X134509390Y-80820814D01*
X134421789Y-80689711D01*
X134421786Y-80689707D01*
X134310292Y-80578213D01*
X134310288Y-80578210D01*
X134224897Y-80521153D01*
X135799500Y-80521153D01*
X135799500Y-80678846D01*
X135830261Y-80833489D01*
X135830264Y-80833501D01*
X135890602Y-80979172D01*
X135890609Y-80979185D01*
X135978210Y-81110288D01*
X135978213Y-81110292D01*
X136089707Y-81221786D01*
X136089711Y-81221789D01*
X136220814Y-81309390D01*
X136220827Y-81309397D01*
X136287031Y-81336819D01*
X136366503Y-81369737D01*
X136484097Y-81393128D01*
X136521153Y-81400499D01*
X136521156Y-81400500D01*
X136521158Y-81400500D01*
X136678841Y-81400500D01*
X136678842Y-81400500D01*
X136715900Y-81393128D01*
X136785488Y-81399354D01*
X136827772Y-81427064D01*
X141144450Y-85743741D01*
X141144452Y-85743744D01*
X141256256Y-85855548D01*
X141256258Y-85855549D01*
X142063181Y-86662472D01*
X142096666Y-86723795D01*
X142099500Y-86750153D01*
X142099500Y-88320234D01*
X142079815Y-88387273D01*
X142078602Y-88389125D01*
X141990609Y-88520814D01*
X141990602Y-88520827D01*
X141930264Y-88666498D01*
X141930261Y-88666510D01*
X141899500Y-88821153D01*
X141899500Y-88978846D01*
X141930261Y-89133489D01*
X141930264Y-89133501D01*
X141990602Y-89279172D01*
X141990609Y-89279185D01*
X142078210Y-89410288D01*
X142078213Y-89410292D01*
X142189707Y-89521786D01*
X142189711Y-89521789D01*
X142320814Y-89609390D01*
X142320827Y-89609397D01*
X142466498Y-89669735D01*
X142466503Y-89669737D01*
X142621153Y-89700499D01*
X142621156Y-89700500D01*
X142621158Y-89700500D01*
X142778844Y-89700500D01*
X142778845Y-89700499D01*
X142933497Y-89669737D01*
X143046166Y-89623067D01*
X143079172Y-89609397D01*
X143079172Y-89609396D01*
X143079179Y-89609394D01*
X143210289Y-89521789D01*
X143321789Y-89410289D01*
X143409394Y-89279179D01*
X143469737Y-89133497D01*
X143500500Y-88978842D01*
X143500500Y-88821158D01*
X143500500Y-88821155D01*
X143500499Y-88821153D01*
X143480278Y-88719496D01*
X143469737Y-88666503D01*
X143442398Y-88600500D01*
X143409397Y-88520827D01*
X143409390Y-88520814D01*
X143321398Y-88389125D01*
X143300520Y-88322447D01*
X143300500Y-88320234D01*
X143300500Y-86371001D01*
X143300500Y-86370999D01*
X143278959Y-86290606D01*
X143259577Y-86218271D01*
X143230639Y-86168151D01*
X143180520Y-86081340D01*
X143068716Y-85969536D01*
X143068715Y-85969535D01*
X143064385Y-85965205D01*
X143064374Y-85965195D01*
X142899771Y-85800592D01*
X142866286Y-85739269D01*
X142871270Y-85669577D01*
X142899771Y-85625230D01*
X143247857Y-85277143D01*
X143309178Y-85243660D01*
X143311345Y-85243209D01*
X143369280Y-85231684D01*
X143466692Y-85212308D01*
X143612374Y-85151965D01*
X143743484Y-85064360D01*
X143854984Y-84952860D01*
X143942589Y-84821750D01*
X144002932Y-84676068D01*
X144033695Y-84521413D01*
X144033695Y-84363729D01*
X144033695Y-84363726D01*
X144033694Y-84363724D01*
X144010821Y-84248735D01*
X144002932Y-84209074D01*
X143953221Y-84089059D01*
X143942592Y-84063398D01*
X143942585Y-84063385D01*
X143854984Y-83932282D01*
X143854981Y-83932278D01*
X143743487Y-83820784D01*
X143743483Y-83820781D01*
X143612380Y-83733180D01*
X143612367Y-83733173D01*
X143466696Y-83672835D01*
X143466684Y-83672832D01*
X143312040Y-83642071D01*
X143312037Y-83642071D01*
X143154353Y-83642071D01*
X143154350Y-83642071D01*
X142999705Y-83672832D01*
X142999693Y-83672835D01*
X142854022Y-83733173D01*
X142854009Y-83733180D01*
X142722906Y-83820781D01*
X142722902Y-83820784D01*
X142611408Y-83932278D01*
X142611405Y-83932282D01*
X142523804Y-84063385D01*
X142523797Y-84063398D01*
X142463459Y-84209069D01*
X142463456Y-84209079D01*
X142432556Y-84364421D01*
X142400171Y-84426332D01*
X142398620Y-84427910D01*
X142088322Y-84738209D01*
X142061394Y-84752912D01*
X142035576Y-84769505D01*
X142029375Y-84770396D01*
X142026999Y-84771694D01*
X142000641Y-84774528D01*
X141925069Y-84774528D01*
X141858030Y-84754843D01*
X141837388Y-84738209D01*
X137337533Y-80238355D01*
X137337531Y-80238352D01*
X137296673Y-80197494D01*
X137281251Y-80178703D01*
X137255673Y-80140423D01*
X137221789Y-80089711D01*
X137221787Y-80089708D01*
X137110292Y-79978213D01*
X137110288Y-79978210D01*
X136979185Y-79890609D01*
X136979172Y-79890602D01*
X136833501Y-79830264D01*
X136833489Y-79830261D01*
X136678845Y-79799500D01*
X136678842Y-79799500D01*
X136521158Y-79799500D01*
X136521155Y-79799500D01*
X136366510Y-79830261D01*
X136366498Y-79830264D01*
X136220827Y-79890602D01*
X136220814Y-79890609D01*
X136089711Y-79978210D01*
X136089707Y-79978213D01*
X135978213Y-80089707D01*
X135978210Y-80089711D01*
X135890609Y-80220814D01*
X135890602Y-80220827D01*
X135830264Y-80366498D01*
X135830261Y-80366510D01*
X135799500Y-80521153D01*
X134224897Y-80521153D01*
X134179185Y-80490609D01*
X134179172Y-80490602D01*
X134033501Y-80430264D01*
X134033489Y-80430261D01*
X133878845Y-80399500D01*
X133878842Y-80399500D01*
X133721158Y-80399500D01*
X133721155Y-80399500D01*
X133566510Y-80430261D01*
X133566498Y-80430264D01*
X133420827Y-80490602D01*
X133420814Y-80490609D01*
X133289711Y-80578210D01*
X133289707Y-80578213D01*
X133178213Y-80689707D01*
X133178210Y-80689711D01*
X133090609Y-80820814D01*
X133090602Y-80820827D01*
X133030264Y-80966498D01*
X133030261Y-80966508D01*
X132999361Y-81121850D01*
X132966976Y-81183761D01*
X132965425Y-81185339D01*
X127919481Y-86231282D01*
X127919479Y-86231284D01*
X127914295Y-86240264D01*
X127885231Y-86290606D01*
X127840423Y-86368215D01*
X127799499Y-86520943D01*
X127799499Y-86520945D01*
X127799499Y-86689046D01*
X127799500Y-86689059D01*
X127799500Y-94820234D01*
X127779815Y-94887273D01*
X127778602Y-94889125D01*
X127690609Y-95020814D01*
X127690602Y-95020827D01*
X127630264Y-95166498D01*
X127630261Y-95166510D01*
X127599500Y-95321153D01*
X96415595Y-95321153D01*
X96390766Y-95314500D01*
X96239234Y-95314500D01*
X96092863Y-95353719D01*
X95961635Y-95429485D01*
X95961632Y-95429487D01*
X95854487Y-95536632D01*
X95854485Y-95536635D01*
X95778719Y-95667863D01*
X95739500Y-95814234D01*
X95739500Y-95965765D01*
X95778719Y-96112136D01*
X95811976Y-96169737D01*
X95854485Y-96243365D01*
X95854486Y-96243366D01*
X95858549Y-96250403D01*
X95856346Y-96251674D01*
X95876959Y-96304983D01*
X95862923Y-96373428D01*
X95814112Y-96423420D01*
X95800845Y-96429866D01*
X95791324Y-96433809D01*
X95791315Y-96433814D01*
X95627537Y-96543248D01*
X95627533Y-96543251D01*
X95488251Y-96682533D01*
X95488248Y-96682537D01*
X95378814Y-96846315D01*
X95378807Y-96846328D01*
X95303430Y-97028307D01*
X95303430Y-97028309D01*
X95295138Y-97070000D01*
X94004862Y-97070000D01*
X93996569Y-97028309D01*
X93996569Y-97028307D01*
X93921192Y-96846328D01*
X93921185Y-96846315D01*
X93811751Y-96682537D01*
X93811748Y-96682533D01*
X93672466Y-96543251D01*
X93672462Y-96543248D01*
X93508684Y-96433814D01*
X93508671Y-96433807D01*
X93326693Y-96358430D01*
X93326681Y-96358427D01*
X93133495Y-96320000D01*
X92885000Y-96320000D01*
X92885000Y-97020000D01*
X92385000Y-97020000D01*
X92385000Y-96320000D01*
X92136504Y-96320000D01*
X91943318Y-96358427D01*
X91943306Y-96358430D01*
X91761328Y-96433807D01*
X91761315Y-96433814D01*
X91597537Y-96543248D01*
X91597533Y-96543251D01*
X91458251Y-96682533D01*
X91458248Y-96682537D01*
X91348814Y-96846315D01*
X91348807Y-96846328D01*
X91273430Y-97028307D01*
X91273430Y-97028309D01*
X91265138Y-97070000D01*
X90500500Y-97070000D01*
X90500500Y-88430000D01*
X91265138Y-88430000D01*
X92068012Y-88430000D01*
X92050795Y-88439940D01*
X91994940Y-88495795D01*
X91955444Y-88564204D01*
X91935000Y-88640504D01*
X91935000Y-88719496D01*
X91955444Y-88795796D01*
X91994940Y-88864205D01*
X92050795Y-88920060D01*
X92068012Y-88930000D01*
X91265138Y-88930000D01*
X91273430Y-88971690D01*
X91273430Y-88971692D01*
X91348807Y-89153671D01*
X91348814Y-89153684D01*
X91458248Y-89317462D01*
X91458251Y-89317466D01*
X91597533Y-89456748D01*
X91597537Y-89456751D01*
X91761315Y-89566185D01*
X91761328Y-89566192D01*
X91943306Y-89641569D01*
X91943318Y-89641572D01*
X92136504Y-89679999D01*
X92136508Y-89680000D01*
X92385000Y-89680000D01*
X92385000Y-88980000D01*
X92885000Y-88980000D01*
X92885000Y-89680000D01*
X93133492Y-89680000D01*
X93133495Y-89679999D01*
X93326681Y-89641572D01*
X93326693Y-89641569D01*
X93508671Y-89566192D01*
X93508684Y-89566185D01*
X93672462Y-89456751D01*
X93672466Y-89456748D01*
X93811748Y-89317466D01*
X93811751Y-89317462D01*
X93921185Y-89153684D01*
X93921192Y-89153671D01*
X93996569Y-88971692D01*
X93996569Y-88971690D01*
X94004862Y-88930000D01*
X93201988Y-88930000D01*
X93219205Y-88920060D01*
X93275060Y-88864205D01*
X93314556Y-88795796D01*
X93335000Y-88719496D01*
X93335000Y-88640504D01*
X93314556Y-88564204D01*
X93275060Y-88495795D01*
X93219205Y-88439940D01*
X93201988Y-88430000D01*
X94004862Y-88430000D01*
X95295138Y-88430000D01*
X96098012Y-88430000D01*
X96080795Y-88439940D01*
X96024940Y-88495795D01*
X95985444Y-88564204D01*
X95965000Y-88640504D01*
X95965000Y-88719496D01*
X95985444Y-88795796D01*
X96024940Y-88864205D01*
X96080795Y-88920060D01*
X96098012Y-88930000D01*
X95295138Y-88930000D01*
X95303430Y-88971690D01*
X95303430Y-88971692D01*
X95378807Y-89153671D01*
X95378814Y-89153684D01*
X95488248Y-89317462D01*
X95488251Y-89317466D01*
X95627533Y-89456748D01*
X95627537Y-89456751D01*
X95791315Y-89566185D01*
X95791328Y-89566192D01*
X95800838Y-89570131D01*
X95855243Y-89613970D01*
X95877310Y-89680264D01*
X95860033Y-89747963D01*
X95856350Y-89753405D01*
X95778719Y-89887863D01*
X95739500Y-90034234D01*
X95739500Y-90185765D01*
X95778719Y-90332136D01*
X95816602Y-90397750D01*
X95854485Y-90463365D01*
X95961635Y-90570515D01*
X96092865Y-90646281D01*
X96239234Y-90685500D01*
X96239236Y-90685500D01*
X96390764Y-90685500D01*
X96390766Y-90685500D01*
X96537135Y-90646281D01*
X96668365Y-90570515D01*
X96775515Y-90463365D01*
X96851281Y-90332135D01*
X96890500Y-90185766D01*
X96890500Y-90034234D01*
X96851281Y-89887865D01*
X96775515Y-89756635D01*
X96668365Y-89649485D01*
X96654654Y-89641569D01*
X96626998Y-89625601D01*
X96578784Y-89575033D01*
X96565000Y-89518215D01*
X96565000Y-88980000D01*
X97065000Y-88980000D01*
X97065000Y-89680000D01*
X97463492Y-89680000D01*
X97463495Y-89679999D01*
X97656681Y-89641572D01*
X97656693Y-89641569D01*
X97838671Y-89566192D01*
X97838684Y-89566185D01*
X98002462Y-89456751D01*
X98002466Y-89456748D01*
X98141748Y-89317466D01*
X98141751Y-89317462D01*
X98251185Y-89153684D01*
X98251192Y-89153671D01*
X98326569Y-88971692D01*
X98326569Y-88971690D01*
X98334862Y-88930000D01*
X97531988Y-88930000D01*
X97549205Y-88920060D01*
X97605060Y-88864205D01*
X97644556Y-88795796D01*
X97665000Y-88719496D01*
X97665000Y-88640504D01*
X97644556Y-88564204D01*
X97605060Y-88495795D01*
X97549205Y-88439940D01*
X97531988Y-88430000D01*
X98334862Y-88430000D01*
X98326569Y-88388309D01*
X98326569Y-88388307D01*
X98251192Y-88206328D01*
X98251185Y-88206315D01*
X98141751Y-88042537D01*
X98141748Y-88042533D01*
X98002466Y-87903251D01*
X98002462Y-87903248D01*
X97838684Y-87793814D01*
X97838671Y-87793807D01*
X97656693Y-87718430D01*
X97656681Y-87718427D01*
X97463495Y-87680000D01*
X97065000Y-87680000D01*
X97065000Y-88380000D01*
X96565000Y-88380000D01*
X96565000Y-87680000D01*
X96166504Y-87680000D01*
X95973318Y-87718427D01*
X95973306Y-87718430D01*
X95791328Y-87793807D01*
X95791315Y-87793814D01*
X95627537Y-87903248D01*
X95627533Y-87903251D01*
X95488251Y-88042533D01*
X95488248Y-88042537D01*
X95378814Y-88206315D01*
X95378807Y-88206328D01*
X95303430Y-88388307D01*
X95303430Y-88388309D01*
X95295138Y-88430000D01*
X94004862Y-88430000D01*
X93996569Y-88388309D01*
X93996569Y-88388307D01*
X93921192Y-88206328D01*
X93921185Y-88206315D01*
X93811751Y-88042537D01*
X93811748Y-88042533D01*
X93672466Y-87903251D01*
X93672462Y-87903248D01*
X93508684Y-87793814D01*
X93508671Y-87793807D01*
X93326693Y-87718430D01*
X93326681Y-87718427D01*
X93133495Y-87680000D01*
X92885000Y-87680000D01*
X92885000Y-88380000D01*
X92385000Y-88380000D01*
X92385000Y-87680000D01*
X92136504Y-87680000D01*
X91943318Y-87718427D01*
X91943306Y-87718430D01*
X91761328Y-87793807D01*
X91761315Y-87793814D01*
X91597537Y-87903248D01*
X91597533Y-87903251D01*
X91458251Y-88042533D01*
X91458248Y-88042537D01*
X91348814Y-88206315D01*
X91348807Y-88206328D01*
X91273430Y-88388307D01*
X91273430Y-88388309D01*
X91265138Y-88430000D01*
X90500500Y-88430000D01*
X90500500Y-75721153D01*
X137599500Y-75721153D01*
X137599500Y-75878846D01*
X137630261Y-76033489D01*
X137630264Y-76033501D01*
X137690602Y-76179172D01*
X137690609Y-76179185D01*
X137778210Y-76310288D01*
X137778213Y-76310292D01*
X137889707Y-76421786D01*
X137889711Y-76421789D01*
X138020814Y-76509390D01*
X138020827Y-76509397D01*
X138166498Y-76569735D01*
X138166503Y-76569737D01*
X138321153Y-76600499D01*
X138321156Y-76600500D01*
X138321158Y-76600500D01*
X138478844Y-76600500D01*
X138478845Y-76600499D01*
X138633497Y-76569737D01*
X138751592Y-76520821D01*
X138779172Y-76509397D01*
X138779172Y-76509396D01*
X138779179Y-76509394D01*
X138827802Y-76476905D01*
X138910875Y-76421398D01*
X138977553Y-76400520D01*
X138979766Y-76400500D01*
X141499903Y-76400500D01*
X141566942Y-76420185D01*
X141587584Y-76436819D01*
X142065425Y-76914660D01*
X142098910Y-76975983D01*
X142099361Y-76978149D01*
X142130261Y-77133491D01*
X142130264Y-77133501D01*
X142190602Y-77279172D01*
X142190609Y-77279185D01*
X142278210Y-77410288D01*
X142278213Y-77410292D01*
X142389707Y-77521786D01*
X142389711Y-77521789D01*
X142520814Y-77609390D01*
X142520827Y-77609397D01*
X142666498Y-77669735D01*
X142666503Y-77669737D01*
X142821153Y-77700499D01*
X142821156Y-77700500D01*
X142821158Y-77700500D01*
X142978844Y-77700500D01*
X142978845Y-77700499D01*
X143133497Y-77669737D01*
X143279179Y-77609394D01*
X143410289Y-77521789D01*
X143521789Y-77410289D01*
X143609394Y-77279179D01*
X143669737Y-77133497D01*
X143700500Y-76978842D01*
X143700500Y-76821158D01*
X143700500Y-76821155D01*
X143700499Y-76821153D01*
X143669737Y-76666503D01*
X143642398Y-76600500D01*
X143609397Y-76520827D01*
X143609390Y-76520814D01*
X143521789Y-76389711D01*
X143521786Y-76389707D01*
X143410292Y-76278213D01*
X143410288Y-76278210D01*
X143279185Y-76190609D01*
X143279172Y-76190602D01*
X143133501Y-76130264D01*
X143133491Y-76130261D01*
X142978149Y-76099361D01*
X142916238Y-76066976D01*
X142914660Y-76065425D01*
X142287590Y-75438355D01*
X142287588Y-75438352D01*
X142168717Y-75319481D01*
X142168716Y-75319480D01*
X142081904Y-75269360D01*
X142081904Y-75269359D01*
X142081900Y-75269358D01*
X142031785Y-75240423D01*
X141879057Y-75199499D01*
X141720943Y-75199499D01*
X141713347Y-75199499D01*
X141713331Y-75199500D01*
X138979766Y-75199500D01*
X138912727Y-75179815D01*
X138910875Y-75178602D01*
X138779185Y-75090609D01*
X138779172Y-75090602D01*
X138633501Y-75030264D01*
X138633489Y-75030261D01*
X138478845Y-74999500D01*
X138478842Y-74999500D01*
X138321158Y-74999500D01*
X138321155Y-74999500D01*
X138166510Y-75030261D01*
X138166498Y-75030264D01*
X138020827Y-75090602D01*
X138020814Y-75090609D01*
X137889711Y-75178210D01*
X137889707Y-75178213D01*
X137778213Y-75289707D01*
X137778210Y-75289711D01*
X137690609Y-75420814D01*
X137690602Y-75420827D01*
X137630264Y-75566498D01*
X137630261Y-75566510D01*
X137599500Y-75721153D01*
X90500500Y-75721153D01*
X90500500Y-58308529D01*
X90500501Y-58308526D01*
X90500500Y-58246108D01*
X90500695Y-58239160D01*
X90504203Y-58176681D01*
X90515823Y-57969723D01*
X90517377Y-57955928D01*
X90561997Y-57693308D01*
X90565085Y-57679776D01*
X90638834Y-57423792D01*
X90643427Y-57410672D01*
X90730901Y-57199500D01*
X90745361Y-57164592D01*
X90751390Y-57152071D01*
X90880256Y-56918916D01*
X90887630Y-56907181D01*
X91041792Y-56689921D01*
X91050449Y-56679066D01*
X91230654Y-56477432D01*
X91235385Y-56472428D01*
X91279167Y-56428650D01*
X91279171Y-56428642D01*
X91838941Y-55868872D01*
X134999500Y-55868872D01*
X134999500Y-56331127D01*
X135018101Y-56472405D01*
X135033730Y-56591116D01*
X135101079Y-56842466D01*
X135101602Y-56844418D01*
X135101605Y-56844428D01*
X135201953Y-57086690D01*
X135201958Y-57086700D01*
X135333075Y-57313803D01*
X135492718Y-57521851D01*
X135492726Y-57521860D01*
X135678140Y-57707274D01*
X135678148Y-57707281D01*
X135678149Y-57707282D01*
X135726554Y-57744424D01*
X135886196Y-57866924D01*
X136113299Y-57998041D01*
X136113309Y-57998046D01*
X136288659Y-58070678D01*
X136355581Y-58098398D01*
X136608884Y-58166270D01*
X136868880Y-58200500D01*
X136868887Y-58200500D01*
X153131113Y-58200500D01*
X153131120Y-58200500D01*
X153391116Y-58166270D01*
X153644419Y-58098398D01*
X153886697Y-57998043D01*
X154113803Y-57866924D01*
X154321851Y-57707282D01*
X154321855Y-57707277D01*
X154321860Y-57707274D01*
X154507274Y-57521860D01*
X154507277Y-57521855D01*
X154507282Y-57521851D01*
X154666924Y-57313803D01*
X154798043Y-57086697D01*
X154898398Y-56844419D01*
X154966270Y-56591116D01*
X155000500Y-56331120D01*
X155000500Y-56200000D01*
X155000500Y-56134108D01*
X155000500Y-55934108D01*
X155000500Y-55868880D01*
X154966270Y-55608884D01*
X154898398Y-55355581D01*
X154806785Y-55134408D01*
X154798046Y-55113309D01*
X154798041Y-55113299D01*
X154666924Y-54886196D01*
X154507281Y-54678148D01*
X154507274Y-54678140D01*
X154321860Y-54492726D01*
X154321851Y-54492718D01*
X154113803Y-54333075D01*
X153886700Y-54201958D01*
X153886690Y-54201953D01*
X153644428Y-54101605D01*
X153644421Y-54101603D01*
X153644419Y-54101602D01*
X153391116Y-54033730D01*
X153333339Y-54026123D01*
X153131127Y-53999500D01*
X153131120Y-53999500D01*
X153065892Y-53999500D01*
X137065892Y-53999500D01*
X137000000Y-53999500D01*
X136868880Y-53999500D01*
X136868872Y-53999500D01*
X136637772Y-54029926D01*
X136608884Y-54033730D01*
X136355581Y-54101602D01*
X136355571Y-54101605D01*
X136113309Y-54201953D01*
X136113299Y-54201958D01*
X135886196Y-54333075D01*
X135678148Y-54492718D01*
X135492718Y-54678148D01*
X135333075Y-54886196D01*
X135201958Y-55113299D01*
X135201953Y-55113309D01*
X135101605Y-55355571D01*
X135101602Y-55355581D01*
X135033730Y-55608885D01*
X134999500Y-55868872D01*
X91838941Y-55868872D01*
X93460094Y-54247718D01*
X93472768Y-54235044D01*
X93477772Y-54230314D01*
X93679043Y-54050457D01*
X93689896Y-54041803D01*
X93907153Y-53887658D01*
X93918918Y-53880267D01*
X93918985Y-53880230D01*
X94152071Y-53751412D01*
X94164570Y-53745393D01*
X94410680Y-53643452D01*
X94423792Y-53638863D01*
X94679784Y-53565114D01*
X94693305Y-53562028D01*
X94955939Y-53517402D01*
X94969737Y-53515847D01*
X95194812Y-53503204D01*
X95239484Y-53500695D01*
X95246438Y-53500500D01*
X194691470Y-53500500D01*
X194691474Y-53500501D01*
G37*
%TD.AperFunction*%
%TD*%
M02*
