%TF.GenerationSoftware,KiCad,Pcbnew,9.0.1*%
%TF.CreationDate,2025-10-31T20:13:03-04:00*%
%TF.ProjectId,arcus,61726375-732e-46b6-9963-61645f706362,2025-10-31*%
%TF.SameCoordinates,Original*%
%TF.FileFunction,Paste,Top*%
%TF.FilePolarity,Positive*%
%FSLAX46Y46*%
G04 Gerber Fmt 4.6, Leading zero omitted, Abs format (unit mm)*
G04 Created by KiCad (PCBNEW 9.0.1) date 2025-10-31 20:13:03*
%MOMM*%
%LPD*%
G01*
G04 APERTURE LIST*
G04 Aperture macros list*
%AMRoundRect*
0 Rectangle with rounded corners*
0 $1 Rounding radius*
0 $2 $3 $4 $5 $6 $7 $8 $9 X,Y pos of 4 corners*
0 Add a 4 corners polygon primitive as box body*
4,1,4,$2,$3,$4,$5,$6,$7,$8,$9,$2,$3,0*
0 Add four circle primitives for the rounded corners*
1,1,$1+$1,$2,$3*
1,1,$1+$1,$4,$5*
1,1,$1+$1,$6,$7*
1,1,$1+$1,$8,$9*
0 Add four rect primitives between the rounded corners*
20,1,$1+$1,$2,$3,$4,$5,0*
20,1,$1+$1,$4,$5,$6,$7,0*
20,1,$1+$1,$6,$7,$8,$9,0*
20,1,$1+$1,$8,$9,$2,$3,0*%
G04 Aperture macros list end*
%ADD10RoundRect,0.225000X-0.375000X0.225000X-0.375000X-0.225000X0.375000X-0.225000X0.375000X0.225000X0*%
%ADD11RoundRect,0.225000X0.375000X-0.225000X0.375000X0.225000X-0.375000X0.225000X-0.375000X-0.225000X0*%
%ADD12RoundRect,0.225000X0.225000X0.375000X-0.225000X0.375000X-0.225000X-0.375000X0.225000X-0.375000X0*%
%ADD13RoundRect,0.140000X-0.140000X-0.170000X0.140000X-0.170000X0.140000X0.170000X-0.140000X0.170000X0*%
%ADD14RoundRect,0.140000X0.170000X-0.140000X0.170000X0.140000X-0.170000X0.140000X-0.170000X-0.140000X0*%
%ADD15RoundRect,0.135000X0.226274X0.035355X0.035355X0.226274X-0.226274X-0.035355X-0.035355X-0.226274X0*%
%ADD16RoundRect,0.135000X0.135000X0.185000X-0.135000X0.185000X-0.135000X-0.185000X0.135000X-0.185000X0*%
%ADD17RoundRect,0.250000X-0.300000X-1.600000X0.300000X-1.600000X0.300000X1.600000X-0.300000X1.600000X0*%
%ADD18RoundRect,0.140000X0.219203X0.021213X0.021213X0.219203X-0.219203X-0.021213X-0.021213X-0.219203X0*%
%ADD19RoundRect,0.142500X-0.382500X-0.332500X0.382500X-0.332500X0.382500X0.332500X-0.382500X0.332500X0*%
%ADD20RoundRect,0.140000X-0.170000X0.140000X-0.170000X-0.140000X0.170000X-0.140000X0.170000X0.140000X0*%
%ADD21RoundRect,0.140000X0.140000X0.170000X-0.140000X0.170000X-0.140000X-0.170000X0.140000X-0.170000X0*%
%ADD22RoundRect,0.375000X-0.625000X-0.375000X0.625000X-0.375000X0.625000X0.375000X-0.625000X0.375000X0*%
%ADD23RoundRect,0.500000X-0.500000X-1.400000X0.500000X-1.400000X0.500000X1.400000X-0.500000X1.400000X0*%
%ADD24RoundRect,0.150000X-0.425000X0.150000X-0.425000X-0.150000X0.425000X-0.150000X0.425000X0.150000X0*%
%ADD25RoundRect,0.075000X-0.500000X0.075000X-0.500000X-0.075000X0.500000X-0.075000X0.500000X0.075000X0*%
%ADD26O,2.100000X1.000000*%
%ADD27O,1.800000X1.000000*%
%ADD28RoundRect,0.140000X-0.021213X0.219203X-0.219203X0.021213X0.021213X-0.219203X0.219203X-0.021213X0*%
%ADD29RoundRect,0.140000X-0.219203X-0.021213X-0.021213X-0.219203X0.219203X0.021213X0.021213X0.219203X0*%
%ADD30RoundRect,0.162500X0.344715X0.574524X-0.574524X-0.344715X-0.344715X-0.574524X0.574524X0.344715X0*%
%ADD31RoundRect,0.135000X-0.035355X0.226274X-0.226274X0.035355X0.035355X-0.226274X0.226274X-0.035355X0*%
%ADD32RoundRect,0.150000X0.587500X0.150000X-0.587500X0.150000X-0.587500X-0.150000X0.587500X-0.150000X0*%
%ADD33RoundRect,0.135000X-0.226274X-0.035355X-0.035355X-0.226274X0.226274X0.035355X0.035355X0.226274X0*%
%ADD34RoundRect,0.135000X-0.135000X-0.185000X0.135000X-0.185000X0.135000X0.185000X-0.135000X0.185000X0*%
%ADD35RoundRect,0.140000X0.021213X-0.219203X0.219203X-0.021213X-0.021213X0.219203X-0.219203X0.021213X0*%
%ADD36RoundRect,0.075000X0.525000X-0.075000X0.525000X0.075000X-0.525000X0.075000X-0.525000X-0.075000X0*%
%ADD37RoundRect,0.330000X1.320000X-0.770000X1.320000X0.770000X-1.320000X0.770000X-1.320000X-0.770000X0*%
%ADD38RoundRect,0.315000X1.335000X-0.735000X1.335000X0.735000X-1.335000X0.735000X-1.335000X-0.735000X0*%
%ADD39R,1.400000X1.200000*%
%ADD40RoundRect,0.249999X0.000000X0.558616X-0.558616X0.000000X0.000000X-0.558616X0.558616X0.000000X0*%
%ADD41RoundRect,0.050000X0.238649X0.309359X-0.309359X-0.238649X-0.238649X-0.309359X0.309359X0.238649X0*%
%ADD42RoundRect,0.050000X-0.238649X0.309359X-0.309359X0.238649X0.238649X-0.309359X0.309359X-0.238649X0*%
G04 APERTURE END LIST*
D10*
%TO.C,D7*%
X172900000Y-78350000D03*
X172900000Y-81650000D03*
%TD*%
D11*
%TO.C,D6*%
X172462742Y-86450000D03*
X172462742Y-83150000D03*
%TD*%
%TO.C,D5*%
X170137258Y-81650000D03*
X170137258Y-78350000D03*
%TD*%
D12*
%TO.C,D1*%
X102705000Y-89920000D03*
X99405000Y-89920000D03*
%TD*%
D13*
%TO.C,C7*%
X165742742Y-85400000D03*
X164782742Y-85400000D03*
%TD*%
D14*
%TO.C,C6*%
X173800000Y-75120000D03*
X173800000Y-76080000D03*
%TD*%
D13*
%TO.C,C26*%
X139391142Y-75743223D03*
X140351142Y-75743223D03*
%TD*%
D15*
%TO.C,R1*%
X145960624Y-88960624D03*
X145239376Y-88239376D03*
%TD*%
D16*
%TO.C,R11*%
X176572742Y-83800000D03*
X175552742Y-83800000D03*
%TD*%
D13*
%TO.C,C8*%
X175582742Y-82800000D03*
X176542742Y-82800000D03*
%TD*%
%TO.C,C28*%
X175457258Y-76100000D03*
X176417258Y-76100000D03*
%TD*%
D17*
%TO.C,L2*%
X167162742Y-84800000D03*
X170162742Y-84800000D03*
%TD*%
D18*
%TO.C,C22*%
X137139411Y-80139411D03*
X136460589Y-79460589D03*
%TD*%
D19*
%TO.C,SW1*%
X122725000Y-100125000D03*
X126875000Y-100125000D03*
X122725000Y-102275000D03*
X126875000Y-102275000D03*
%TD*%
D20*
%TO.C,C27*%
X174262742Y-83320000D03*
X174262742Y-84280000D03*
%TD*%
D19*
%TO.C,SW2*%
X131925000Y-100125000D03*
X136075000Y-100125000D03*
X131925000Y-102275000D03*
X136075000Y-102275000D03*
%TD*%
D21*
%TO.C,C25*%
X142731142Y-75743223D03*
X141771142Y-75743223D03*
%TD*%
D22*
%TO.C,U3*%
X110050000Y-88700000D03*
X110050000Y-91000000D03*
D23*
X116350000Y-91000000D03*
D22*
X110050000Y-93300000D03*
%TD*%
D24*
%TO.C,J2*%
X97390000Y-89800000D03*
X97390000Y-90600000D03*
D25*
X97390000Y-91750000D03*
X97390000Y-92750000D03*
X97390000Y-93250000D03*
X97390000Y-94250000D03*
D24*
X97390000Y-95400000D03*
X97390000Y-96200000D03*
X97390000Y-96200000D03*
X97390000Y-95400000D03*
D25*
X97390000Y-94750000D03*
X97390000Y-93750000D03*
X97390000Y-92250000D03*
X97390000Y-91250000D03*
D24*
X97390000Y-90600000D03*
X97390000Y-89800000D03*
D26*
X96815000Y-88680000D03*
D27*
X92635000Y-88680000D03*
D26*
X96815000Y-97320000D03*
D27*
X92635000Y-97320000D03*
%TD*%
D28*
%TO.C,C13*%
X139539411Y-88260589D03*
X138860589Y-88939411D03*
%TD*%
D15*
%TO.C,R7*%
X137360624Y-78760624D03*
X136639376Y-78039376D03*
%TD*%
D13*
%TO.C,C1*%
X175520000Y-72200000D03*
X176480000Y-72200000D03*
%TD*%
D21*
%TO.C,C29*%
X165742742Y-83400000D03*
X164782742Y-83400000D03*
%TD*%
D29*
%TO.C,C17*%
X141660589Y-89260589D03*
X142339411Y-89939411D03*
%TD*%
D30*
%TO.C,U4*%
X157346526Y-88210293D03*
X156448500Y-87312267D03*
X155550475Y-86414242D03*
X154652449Y-85516216D03*
X149578958Y-90589707D03*
X150476984Y-91487733D03*
X151375009Y-92385758D03*
X152273035Y-93283784D03*
%TD*%
D21*
%TO.C,C3*%
X173980000Y-77200000D03*
X173020000Y-77200000D03*
%TD*%
D31*
%TO.C,R6*%
X139590624Y-77569376D03*
X138869376Y-78290624D03*
%TD*%
D32*
%TO.C,Q3*%
X175400242Y-90350000D03*
X175400242Y-88450000D03*
X173525242Y-89400000D03*
%TD*%
D33*
%TO.C,R5*%
X149639376Y-93439376D03*
X150360624Y-94160624D03*
%TD*%
D16*
%TO.C,R10*%
X176810000Y-85700000D03*
X175790000Y-85700000D03*
%TD*%
D13*
%TO.C,C4*%
X175457258Y-75000000D03*
X176417258Y-75000000D03*
%TD*%
D29*
%TO.C,C21*%
X143260589Y-89460589D03*
X143939411Y-90139411D03*
%TD*%
D14*
%TO.C,C11*%
X107800000Y-89880000D03*
X107800000Y-88920000D03*
%TD*%
D13*
%TO.C,C9*%
X175582742Y-81800000D03*
X176542742Y-81800000D03*
%TD*%
D29*
%TO.C,C16*%
X146660589Y-87460589D03*
X147339411Y-88139411D03*
%TD*%
D34*
%TO.C,R3*%
X99275000Y-91720000D03*
X100295000Y-91720000D03*
%TD*%
D28*
%TO.C,C20*%
X137139411Y-85460589D03*
X136460589Y-86139411D03*
%TD*%
D35*
%TO.C,C18*%
X143660589Y-78939411D03*
X144339411Y-78260589D03*
%TD*%
D13*
%TO.C,C5*%
X175457258Y-77100000D03*
X176417258Y-77100000D03*
%TD*%
D36*
%TO.C,U1*%
X178362742Y-84350000D03*
X178362742Y-83850000D03*
X178362742Y-83350000D03*
X178362742Y-82850000D03*
X178362742Y-82350000D03*
X178362742Y-81850000D03*
X178362742Y-81350000D03*
X178362742Y-80850000D03*
X178362742Y-80350000D03*
X178362742Y-79850000D03*
X178362742Y-79350000D03*
X178362742Y-78850000D03*
X178362742Y-78350000D03*
X178362742Y-77850000D03*
X178362742Y-77350000D03*
X178362742Y-76850000D03*
X178362742Y-76350000D03*
X178362742Y-75850000D03*
X178362742Y-75350000D03*
X178362742Y-74850000D03*
X178362742Y-74350000D03*
X178362742Y-73850000D03*
X178362742Y-73350000D03*
X178362742Y-72850000D03*
D37*
X180532742Y-85950000D03*
D38*
X180532742Y-71200000D03*
%TD*%
D28*
%TO.C,C19*%
X140339411Y-89060589D03*
X139660589Y-89739411D03*
%TD*%
D15*
%TO.C,R2*%
X144360624Y-88960624D03*
X143639376Y-88239376D03*
%TD*%
D35*
%TO.C,C15*%
X147660589Y-81939411D03*
X148339411Y-81260589D03*
%TD*%
D29*
%TO.C,C23*%
X147460589Y-86660589D03*
X148139411Y-87339411D03*
%TD*%
D13*
%TO.C,C2*%
X175520000Y-73600000D03*
X176480000Y-73600000D03*
%TD*%
D34*
%TO.C,R4*%
X99290000Y-95020000D03*
X100310000Y-95020000D03*
%TD*%
D21*
%TO.C,C10*%
X171217258Y-77200000D03*
X170257258Y-77200000D03*
%TD*%
D39*
%TO.C,Y1*%
X139960000Y-74360000D03*
X142160000Y-74360000D03*
X142160000Y-72660000D03*
X139960000Y-72660000D03*
%TD*%
D18*
%TO.C,C24*%
X158002153Y-85739411D03*
X157323331Y-85060589D03*
%TD*%
D40*
%TO.C,U2*%
X142262742Y-83000000D03*
X141131371Y-81868629D03*
X141131371Y-84131371D03*
X140000000Y-83000000D03*
D41*
X145400528Y-82407798D03*
X145117685Y-82124955D03*
X144834843Y-81842113D03*
X144552000Y-81559270D03*
X144269157Y-81276427D03*
X143986315Y-80993585D03*
X143703472Y-80710742D03*
X143420629Y-80427899D03*
X143137786Y-80145056D03*
X142854944Y-79862214D03*
X142572101Y-79579371D03*
X142289258Y-79296528D03*
X142006416Y-79013686D03*
X141723573Y-78730843D03*
D42*
X140539169Y-78730843D03*
X140256326Y-79013686D03*
X139973484Y-79296528D03*
X139690641Y-79579371D03*
X139407798Y-79862214D03*
X139124956Y-80145056D03*
X138842113Y-80427899D03*
X138559270Y-80710742D03*
X138276427Y-80993585D03*
X137993585Y-81276427D03*
X137710742Y-81559270D03*
X137427899Y-81842113D03*
X137145057Y-82124955D03*
X136862214Y-82407798D03*
D41*
X136862214Y-83592202D03*
X137145057Y-83875045D03*
X137427899Y-84157887D03*
X137710742Y-84440730D03*
X137993585Y-84723573D03*
X138276427Y-85006415D03*
X138559270Y-85289258D03*
X138842113Y-85572101D03*
X139124956Y-85854944D03*
X139407798Y-86137786D03*
X139690641Y-86420629D03*
X139973484Y-86703472D03*
X140256326Y-86986314D03*
X140539169Y-87269157D03*
D42*
X141723573Y-87269157D03*
X142006416Y-86986314D03*
X142289258Y-86703472D03*
X142572101Y-86420629D03*
X142854944Y-86137786D03*
X143137786Y-85854944D03*
X143420629Y-85572101D03*
X143703472Y-85289258D03*
X143986315Y-85006415D03*
X144269157Y-84723573D03*
X144552000Y-84440730D03*
X144834843Y-84157887D03*
X145117685Y-83875045D03*
X145400528Y-83592202D03*
%TD*%
D29*
%TO.C,C14*%
X148460589Y-82660589D03*
X149139411Y-83339411D03*
%TD*%
D14*
%TO.C,C12*%
X107800000Y-92880000D03*
X107800000Y-91920000D03*
%TD*%
M02*
