%TF.GenerationSoftware,KiCad,Pcbnew,9.0.1*%
%TF.CreationDate,2025-10-31T20:13:03-04:00*%
%TF.ProjectId,arcus,61726375-732e-46b6-9963-61645f706362,2025-10-31*%
%TF.SameCoordinates,Original*%
%TF.FileFunction,Other,User*%
%FSLAX46Y46*%
G04 Gerber Fmt 4.6, Leading zero omitted, Abs format (unit mm)*
G04 Created by KiCad (PCBNEW 9.0.1) date 2025-10-31 20:13:03*
%MOMM*%
%LPD*%
G01*
G04 APERTURE LIST*
%ADD10C,0.050000*%
G04 APERTURE END LIST*
D10*
%TO.C,D7*%
X174050000Y-77650000D02*
X171750000Y-77650000D01*
X174050000Y-77650000D02*
X174050000Y-82350000D01*
X174050000Y-82350000D02*
X171750000Y-82350000D01*
X171750000Y-82350000D02*
X171750000Y-77650000D01*
%TO.C,D6*%
X171312742Y-87150000D02*
X173612742Y-87150000D01*
X171312742Y-87150000D02*
X171312742Y-82450000D01*
X171312742Y-82450000D02*
X173612742Y-82450000D01*
X173612742Y-82450000D02*
X173612742Y-87150000D01*
%TO.C,D5*%
X168987258Y-82350000D02*
X171287258Y-82350000D01*
X168987258Y-82350000D02*
X168987258Y-77650000D01*
X168987258Y-77650000D02*
X171287258Y-77650000D01*
X171287258Y-77650000D02*
X171287258Y-82350000D01*
%TO.C,D1*%
X103405000Y-91070000D02*
X103405000Y-88770000D01*
X103405000Y-91070000D02*
X98705000Y-91070000D01*
X98705000Y-91070000D02*
X98705000Y-88770000D01*
X98705000Y-88770000D02*
X103405000Y-88770000D01*
%TO.C,C7*%
X166172742Y-85860000D02*
X164352742Y-85860000D01*
X166172742Y-84940000D02*
X166172742Y-85860000D01*
X164352742Y-85860000D02*
X164352742Y-84940000D01*
X164352742Y-84940000D02*
X166172742Y-84940000D01*
%TO.C,C6*%
X174260000Y-74690000D02*
X174260000Y-76510000D01*
X173340000Y-74690000D02*
X174260000Y-74690000D01*
X174260000Y-76510000D02*
X173340000Y-76510000D01*
X173340000Y-76510000D02*
X173340000Y-74690000D01*
%TO.C,C26*%
X140781142Y-75283223D02*
X140781142Y-76203223D01*
X140781142Y-76203223D02*
X138961142Y-76203223D01*
X138961142Y-75283223D02*
X140781142Y-75283223D01*
X138961142Y-76203223D02*
X138961142Y-75283223D01*
%TO.C,R1*%
X144610051Y-88274731D02*
X145274731Y-87610051D01*
X145274731Y-87610051D02*
X146589949Y-88925269D01*
X145925269Y-89589949D02*
X144610051Y-88274731D01*
X146589949Y-88925269D02*
X145925269Y-89589949D01*
%TO.C,R11*%
X175132742Y-83330000D02*
X176992742Y-83330000D01*
X175132742Y-84270000D02*
X175132742Y-83330000D01*
X176992742Y-83330000D02*
X176992742Y-84270000D01*
X176992742Y-84270000D02*
X175132742Y-84270000D01*
%TO.C,C8*%
X175152742Y-82340000D02*
X176972742Y-82340000D01*
X175152742Y-83260000D02*
X175152742Y-82340000D01*
X176972742Y-82340000D02*
X176972742Y-83260000D01*
X176972742Y-83260000D02*
X175152742Y-83260000D01*
%TO.C,C28*%
X175027258Y-75640000D02*
X176847258Y-75640000D01*
X175027258Y-76560000D02*
X175027258Y-75640000D01*
X176847258Y-75640000D02*
X176847258Y-76560000D01*
X176847258Y-76560000D02*
X175027258Y-76560000D01*
%TO.C,L2*%
X166362742Y-82550000D02*
X166362742Y-87050000D01*
X166362742Y-87050000D02*
X170962742Y-87050000D01*
X170962742Y-82550000D02*
X166362742Y-82550000D01*
X170962742Y-87050000D02*
X170962742Y-82550000D01*
%TO.C,C22*%
X135831264Y-79481802D02*
X136481802Y-78831264D01*
X136481802Y-78831264D02*
X137768736Y-80118198D01*
X137118198Y-80768736D02*
X135831264Y-79481802D01*
X137768736Y-80118198D02*
X137118198Y-80768736D01*
%TO.C,SW1*%
X122200000Y-99650000D02*
X127400000Y-99650000D01*
X127400000Y-102750000D01*
X122200000Y-102750000D01*
X122200000Y-99650000D01*
%TO.C,C27*%
X173802742Y-82890000D02*
X174722742Y-82890000D01*
X173802742Y-84710000D02*
X173802742Y-82890000D01*
X174722742Y-82890000D02*
X174722742Y-84710000D01*
X174722742Y-84710000D02*
X173802742Y-84710000D01*
%TO.C,SW2*%
X131400000Y-99650000D02*
X136600000Y-99650000D01*
X136600000Y-102750000D01*
X131400000Y-102750000D01*
X131400000Y-99650000D01*
%TO.C,C25*%
X143161142Y-75283223D02*
X143161142Y-76203223D01*
X143161142Y-76203223D02*
X141341142Y-76203223D01*
X141341142Y-75283223D02*
X143161142Y-75283223D01*
X141341142Y-76203223D02*
X141341142Y-75283223D01*
%TO.C,U3*%
X108800000Y-87400000D02*
X108800000Y-94600000D01*
X108800000Y-94600000D02*
X117600000Y-94600000D01*
X117600000Y-87400000D02*
X108800000Y-87400000D01*
X117600000Y-94600000D02*
X117600000Y-87400000D01*
%TO.C,J2*%
X98470000Y-87680000D02*
X89530000Y-87680000D01*
X89530000Y-98320000D01*
X98470000Y-98320000D01*
X98470000Y-87680000D01*
%TO.C,C13*%
X138231264Y-88918198D02*
X139518198Y-87631264D01*
X138881802Y-89568736D02*
X138231264Y-88918198D01*
X139518198Y-87631264D02*
X140168736Y-88281802D01*
X140168736Y-88281802D02*
X138881802Y-89568736D01*
%TO.C,R7*%
X136010051Y-78074731D02*
X136674731Y-77410051D01*
X136674731Y-77410051D02*
X137989949Y-78725269D01*
X137325269Y-79389949D02*
X136010051Y-78074731D01*
X137989949Y-78725269D02*
X137325269Y-79389949D01*
%TO.C,C1*%
X175090000Y-71740000D02*
X176910000Y-71740000D01*
X175090000Y-72660000D02*
X175090000Y-71740000D01*
X176910000Y-71740000D02*
X176910000Y-72660000D01*
X176910000Y-72660000D02*
X175090000Y-72660000D01*
%TO.C,C29*%
X164352742Y-82940000D02*
X166172742Y-82940000D01*
X164352742Y-83860000D02*
X164352742Y-82940000D01*
X166172742Y-82940000D02*
X166172742Y-83860000D01*
X166172742Y-83860000D02*
X164352742Y-83860000D01*
%TO.C,C17*%
X141031264Y-89281802D02*
X141681802Y-88631264D01*
X141681802Y-88631264D02*
X142968736Y-89918198D01*
X142318198Y-90568736D02*
X141031264Y-89281802D01*
X142968736Y-89918198D02*
X142318198Y-90568736D01*
%TO.C,U4*%
X158801398Y-88162563D02*
X152225305Y-94738656D01*
X148124086Y-90637437D01*
X154700179Y-84061344D01*
X158801398Y-88162563D01*
%TO.C,C3*%
X172590000Y-76740000D02*
X174410000Y-76740000D01*
X172590000Y-77660000D02*
X172590000Y-76740000D01*
X174410000Y-76740000D02*
X174410000Y-77660000D01*
X174410000Y-77660000D02*
X172590000Y-77660000D01*
%TO.C,R6*%
X138240051Y-78255269D02*
X139555269Y-76940051D01*
X138904731Y-78919949D02*
X138240051Y-78255269D01*
X139555269Y-76940051D02*
X140219949Y-77604731D01*
X140219949Y-77604731D02*
X138904731Y-78919949D01*
%TO.C,Q3*%
X176382742Y-91100000D02*
X172542742Y-91100000D01*
X172542742Y-87700000D01*
X176382742Y-87700000D01*
X176382742Y-91100000D01*
%TO.C,R5*%
X149010051Y-93474731D02*
X149674731Y-92810051D01*
X149674731Y-92810051D02*
X150989949Y-94125269D01*
X150325269Y-94789949D02*
X149010051Y-93474731D01*
X150989949Y-94125269D02*
X150325269Y-94789949D01*
%TO.C,R10*%
X175370000Y-85230000D02*
X177230000Y-85230000D01*
X175370000Y-86170000D02*
X175370000Y-85230000D01*
X177230000Y-85230000D02*
X177230000Y-86170000D01*
X177230000Y-86170000D02*
X175370000Y-86170000D01*
%TO.C,C4*%
X175027258Y-74540000D02*
X176847258Y-74540000D01*
X175027258Y-75460000D02*
X175027258Y-74540000D01*
X176847258Y-74540000D02*
X176847258Y-75460000D01*
X176847258Y-75460000D02*
X175027258Y-75460000D01*
%TO.C,C21*%
X142631264Y-89481802D02*
X143281802Y-88831264D01*
X143281802Y-88831264D02*
X144568736Y-90118198D01*
X143918198Y-90768736D02*
X142631264Y-89481802D01*
X144568736Y-90118198D02*
X143918198Y-90768736D01*
%TO.C,C11*%
X107340000Y-88490000D02*
X108260000Y-88490000D01*
X107340000Y-90310000D02*
X107340000Y-88490000D01*
X108260000Y-88490000D02*
X108260000Y-90310000D01*
X108260000Y-90310000D02*
X107340000Y-90310000D01*
%TO.C,C9*%
X175152742Y-81340000D02*
X176972742Y-81340000D01*
X175152742Y-82260000D02*
X175152742Y-81340000D01*
X176972742Y-81340000D02*
X176972742Y-82260000D01*
X176972742Y-82260000D02*
X175152742Y-82260000D01*
%TO.C,C16*%
X146031264Y-87481802D02*
X146681802Y-86831264D01*
X146681802Y-86831264D02*
X147968736Y-88118198D01*
X147318198Y-88768736D02*
X146031264Y-87481802D01*
X147968736Y-88118198D02*
X147318198Y-88768736D01*
%TO.C,R3*%
X98855000Y-91250000D02*
X100715000Y-91250000D01*
X98855000Y-92190000D02*
X98855000Y-91250000D01*
X100715000Y-91250000D02*
X100715000Y-92190000D01*
X100715000Y-92190000D02*
X98855000Y-92190000D01*
%TO.C,C20*%
X135831264Y-86118198D02*
X137118198Y-84831264D01*
X136481802Y-86768736D02*
X135831264Y-86118198D01*
X137118198Y-84831264D02*
X137768736Y-85481802D01*
X137768736Y-85481802D02*
X136481802Y-86768736D01*
%TO.C,C18*%
X143031264Y-78918198D02*
X144318198Y-77631264D01*
X143681802Y-79568736D02*
X143031264Y-78918198D01*
X144318198Y-77631264D02*
X144968736Y-78281802D01*
X144968736Y-78281802D02*
X143681802Y-79568736D01*
%TO.C,C5*%
X175027258Y-76640000D02*
X176847258Y-76640000D01*
X175027258Y-77560000D02*
X175027258Y-76640000D01*
X176847258Y-76640000D02*
X176847258Y-77560000D01*
X176847258Y-77560000D02*
X175027258Y-77560000D01*
%TO.C,U1*%
X177312742Y-88750000D02*
X184012742Y-88750000D01*
X184012742Y-68450000D01*
X177312742Y-68450000D01*
X177312742Y-88750000D01*
%TO.C,C19*%
X139031264Y-89718198D02*
X140318198Y-88431264D01*
X139681802Y-90368736D02*
X139031264Y-89718198D01*
X140318198Y-88431264D02*
X140968736Y-89081802D01*
X140968736Y-89081802D02*
X139681802Y-90368736D01*
%TO.C,R2*%
X143010051Y-88274731D02*
X143674731Y-87610051D01*
X143674731Y-87610051D02*
X144989949Y-88925269D01*
X144325269Y-89589949D02*
X143010051Y-88274731D01*
X144989949Y-88925269D02*
X144325269Y-89589949D01*
%TO.C,C15*%
X147031264Y-81918198D02*
X148318198Y-80631264D01*
X147681802Y-82568736D02*
X147031264Y-81918198D01*
X148318198Y-80631264D02*
X148968736Y-81281802D01*
X148968736Y-81281802D02*
X147681802Y-82568736D01*
%TO.C,C23*%
X146831264Y-86681802D02*
X147481802Y-86031264D01*
X147481802Y-86031264D02*
X148768736Y-87318198D01*
X148118198Y-87968736D02*
X146831264Y-86681802D01*
X148768736Y-87318198D02*
X148118198Y-87968736D01*
%TO.C,C2*%
X175090000Y-73140000D02*
X176910000Y-73140000D01*
X175090000Y-74060000D02*
X175090000Y-73140000D01*
X176910000Y-73140000D02*
X176910000Y-74060000D01*
X176910000Y-74060000D02*
X175090000Y-74060000D01*
%TO.C,R4*%
X98870000Y-94550000D02*
X100730000Y-94550000D01*
X98870000Y-95490000D02*
X98870000Y-94550000D01*
X100730000Y-94550000D02*
X100730000Y-95490000D01*
X100730000Y-95490000D02*
X98870000Y-95490000D01*
%TO.C,C10*%
X169827258Y-76740000D02*
X171647258Y-76740000D01*
X169827258Y-77660000D02*
X169827258Y-76740000D01*
X171647258Y-76740000D02*
X171647258Y-77660000D01*
X171647258Y-77660000D02*
X169827258Y-77660000D01*
%TO.C,Y1*%
X138960000Y-75210000D02*
X143160000Y-75210000D01*
X138960000Y-71810000D02*
X138960000Y-75210000D01*
X143160000Y-75210000D02*
X143160000Y-71810000D01*
X143160000Y-71810000D02*
X138960000Y-71810000D01*
%TO.C,C24*%
X156694006Y-85081802D02*
X157344544Y-84431264D01*
X157344544Y-84431264D02*
X158631478Y-85718198D01*
X157980940Y-86368736D02*
X156694006Y-85081802D01*
X158631478Y-85718198D02*
X157980940Y-86368736D01*
%TO.C,U2*%
X146972073Y-83000000D02*
X141131371Y-88840702D01*
X135290669Y-83000000D01*
X141131371Y-77159298D01*
X146972073Y-83000000D01*
%TO.C,C14*%
X147831264Y-82681802D02*
X148481802Y-82031264D01*
X148481802Y-82031264D02*
X149768736Y-83318198D01*
X149118198Y-83968736D02*
X147831264Y-82681802D01*
X149768736Y-83318198D02*
X149118198Y-83968736D01*
%TO.C,C12*%
X107340000Y-91490000D02*
X108260000Y-91490000D01*
X107340000Y-93310000D02*
X107340000Y-91490000D01*
X108260000Y-91490000D02*
X108260000Y-93310000D01*
X108260000Y-93310000D02*
X107340000Y-93310000D01*
%TD*%
M02*
