%TF.GenerationSoftware,KiCad,Pcbnew,9.0.1*%
%TF.CreationDate,2025-10-31T20:13:03-04:00*%
%TF.ProjectId,arcus,61726375-732e-46b6-9963-61645f706362,2025-10-31*%
%TF.SameCoordinates,Original*%
%TF.FileFunction,Copper,L1,Top*%
%TF.FilePolarity,Positive*%
%FSLAX46Y46*%
G04 Gerber Fmt 4.6, Leading zero omitted, Abs format (unit mm)*
G04 Created by KiCad (PCBNEW 9.0.1) date 2025-10-31 20:13:03*
%MOMM*%
%LPD*%
G01*
G04 APERTURE LIST*
G04 Aperture macros list*
%AMRoundRect*
0 Rectangle with rounded corners*
0 $1 Rounding radius*
0 $2 $3 $4 $5 $6 $7 $8 $9 X,Y pos of 4 corners*
0 Add a 4 corners polygon primitive as box body*
4,1,4,$2,$3,$4,$5,$6,$7,$8,$9,$2,$3,0*
0 Add four circle primitives for the rounded corners*
1,1,$1+$1,$2,$3*
1,1,$1+$1,$4,$5*
1,1,$1+$1,$6,$7*
1,1,$1+$1,$8,$9*
0 Add four rect primitives between the rounded corners*
20,1,$1+$1,$2,$3,$4,$5,0*
20,1,$1+$1,$4,$5,$6,$7,0*
20,1,$1+$1,$6,$7,$8,$9,0*
20,1,$1+$1,$8,$9,$2,$3,0*%
%AMRotRect*
0 Rectangle, with rotation*
0 The origin of the aperture is its center*
0 $1 length*
0 $2 width*
0 $3 Rotation angle, in degrees counterclockwise*
0 Add horizontal line*
21,1,$1,$2,0,0,$3*%
G04 Aperture macros list end*
%TA.AperFunction,SMDPad,CuDef*%
%ADD10RoundRect,0.225000X-0.375000X0.225000X-0.375000X-0.225000X0.375000X-0.225000X0.375000X0.225000X0*%
%TD*%
%TA.AperFunction,SMDPad,CuDef*%
%ADD11RoundRect,0.225000X0.375000X-0.225000X0.375000X0.225000X-0.375000X0.225000X-0.375000X-0.225000X0*%
%TD*%
%TA.AperFunction,SMDPad,CuDef*%
%ADD12RoundRect,0.225000X0.225000X0.375000X-0.225000X0.375000X-0.225000X-0.375000X0.225000X-0.375000X0*%
%TD*%
%TA.AperFunction,SMDPad,CuDef*%
%ADD13RoundRect,0.140000X-0.140000X-0.170000X0.140000X-0.170000X0.140000X0.170000X-0.140000X0.170000X0*%
%TD*%
%TA.AperFunction,SMDPad,CuDef*%
%ADD14RoundRect,0.140000X0.170000X-0.140000X0.170000X0.140000X-0.170000X0.140000X-0.170000X-0.140000X0*%
%TD*%
%TA.AperFunction,SMDPad,CuDef*%
%ADD15RoundRect,0.135000X0.226274X0.035355X0.035355X0.226274X-0.226274X-0.035355X-0.035355X-0.226274X0*%
%TD*%
%TA.AperFunction,SMDPad,CuDef*%
%ADD16RoundRect,0.135000X0.135000X0.185000X-0.135000X0.185000X-0.135000X-0.185000X0.135000X-0.185000X0*%
%TD*%
%TA.AperFunction,SMDPad,CuDef*%
%ADD17RoundRect,0.250000X-0.300000X-1.600000X0.300000X-1.600000X0.300000X1.600000X-0.300000X1.600000X0*%
%TD*%
%TA.AperFunction,SMDPad,CuDef*%
%ADD18RoundRect,0.140000X0.219203X0.021213X0.021213X0.219203X-0.219203X-0.021213X-0.021213X-0.219203X0*%
%TD*%
%TA.AperFunction,SMDPad,CuDef*%
%ADD19RoundRect,0.142500X-0.382500X-0.332500X0.382500X-0.332500X0.382500X0.332500X-0.382500X0.332500X0*%
%TD*%
%TA.AperFunction,SMDPad,CuDef*%
%ADD20RoundRect,0.140000X-0.170000X0.140000X-0.170000X-0.140000X0.170000X-0.140000X0.170000X0.140000X0*%
%TD*%
%TA.AperFunction,SMDPad,CuDef*%
%ADD21RoundRect,0.140000X0.140000X0.170000X-0.140000X0.170000X-0.140000X-0.170000X0.140000X-0.170000X0*%
%TD*%
%TA.AperFunction,SMDPad,CuDef*%
%ADD22RoundRect,0.375000X-0.625000X-0.375000X0.625000X-0.375000X0.625000X0.375000X-0.625000X0.375000X0*%
%TD*%
%TA.AperFunction,SMDPad,CuDef*%
%ADD23RoundRect,0.500000X-0.500000X-1.400000X0.500000X-1.400000X0.500000X1.400000X-0.500000X1.400000X0*%
%TD*%
%TA.AperFunction,SMDPad,CuDef*%
%ADD24RoundRect,0.150000X-0.425000X0.150000X-0.425000X-0.150000X0.425000X-0.150000X0.425000X0.150000X0*%
%TD*%
%TA.AperFunction,SMDPad,CuDef*%
%ADD25RoundRect,0.075000X-0.500000X0.075000X-0.500000X-0.075000X0.500000X-0.075000X0.500000X0.075000X0*%
%TD*%
%TA.AperFunction,HeatsinkPad*%
%ADD26O,2.100000X1.000000*%
%TD*%
%TA.AperFunction,HeatsinkPad*%
%ADD27O,1.800000X1.000000*%
%TD*%
%TA.AperFunction,SMDPad,CuDef*%
%ADD28RoundRect,0.140000X-0.021213X0.219203X-0.219203X0.021213X0.021213X-0.219203X0.219203X-0.021213X0*%
%TD*%
%TA.AperFunction,SMDPad,CuDef*%
%ADD29RoundRect,0.140000X-0.219203X-0.021213X-0.021213X-0.219203X0.219203X0.021213X0.021213X0.219203X0*%
%TD*%
%TA.AperFunction,SMDPad,CuDef*%
%ADD30RoundRect,0.162500X0.344715X0.574524X-0.574524X-0.344715X-0.344715X-0.574524X0.574524X0.344715X0*%
%TD*%
%TA.AperFunction,SMDPad,CuDef*%
%ADD31RoundRect,0.135000X-0.035355X0.226274X-0.226274X0.035355X0.035355X-0.226274X0.226274X-0.035355X0*%
%TD*%
%TA.AperFunction,SMDPad,CuDef*%
%ADD32RoundRect,0.150000X0.587500X0.150000X-0.587500X0.150000X-0.587500X-0.150000X0.587500X-0.150000X0*%
%TD*%
%TA.AperFunction,SMDPad,CuDef*%
%ADD33RoundRect,0.135000X-0.226274X-0.035355X-0.035355X-0.226274X0.226274X0.035355X0.035355X0.226274X0*%
%TD*%
%TA.AperFunction,SMDPad,CuDef*%
%ADD34RoundRect,0.135000X-0.135000X-0.185000X0.135000X-0.185000X0.135000X0.185000X-0.135000X0.185000X0*%
%TD*%
%TA.AperFunction,SMDPad,CuDef*%
%ADD35RoundRect,0.140000X0.021213X-0.219203X0.219203X-0.021213X-0.021213X0.219203X-0.219203X0.021213X0*%
%TD*%
%TA.AperFunction,SMDPad,CuDef*%
%ADD36RoundRect,0.075000X0.525000X-0.075000X0.525000X0.075000X-0.525000X0.075000X-0.525000X-0.075000X0*%
%TD*%
%TA.AperFunction,SMDPad,CuDef*%
%ADD37RoundRect,0.330000X1.320000X-0.770000X1.320000X0.770000X-1.320000X0.770000X-1.320000X-0.770000X0*%
%TD*%
%TA.AperFunction,SMDPad,CuDef*%
%ADD38RoundRect,0.315000X1.335000X-0.735000X1.335000X0.735000X-1.335000X0.735000X-1.335000X-0.735000X0*%
%TD*%
%TA.AperFunction,SMDPad,CuDef*%
%ADD39R,1.400000X1.200000*%
%TD*%
%TA.AperFunction,SMDPad,CuDef*%
%ADD40RoundRect,0.050000X0.238649X0.309359X-0.309359X-0.238649X-0.238649X-0.309359X0.309359X0.238649X0*%
%TD*%
%TA.AperFunction,SMDPad,CuDef*%
%ADD41RoundRect,0.050000X-0.238649X0.309359X-0.309359X0.238649X0.238649X-0.309359X0.309359X-0.238649X0*%
%TD*%
%TA.AperFunction,HeatsinkPad*%
%ADD42RotRect,3.200000X3.200000X225.000000*%
%TD*%
%TA.AperFunction,ViaPad*%
%ADD43C,0.600000*%
%TD*%
%TA.AperFunction,Conductor*%
%ADD44C,0.190000*%
%TD*%
%TA.AperFunction,Conductor*%
%ADD45C,0.265000*%
%TD*%
%TA.AperFunction,Conductor*%
%ADD46C,0.200000*%
%TD*%
%TA.AperFunction,Conductor*%
%ADD47C,0.100000*%
%TD*%
%TA.AperFunction,Conductor*%
%ADD48C,0.199000*%
%TD*%
G04 APERTURE END LIST*
D10*
%TO.P,D7,1,K*%
%TO.N,/VGH*%
X172900000Y-78350000D03*
%TO.P,D7,2,A*%
%TO.N,Net-(D7-A)*%
X172900000Y-81650000D03*
%TD*%
D11*
%TO.P,D6,1,K*%
%TO.N,GND*%
X172462742Y-86450000D03*
%TO.P,D6,2,A*%
%TO.N,Net-(D5-K)*%
X172462742Y-83150000D03*
%TD*%
%TO.P,D5,1,K*%
%TO.N,Net-(D5-K)*%
X170137258Y-81650000D03*
%TO.P,D5,2,A*%
%TO.N,/VGL*%
X170137258Y-78350000D03*
%TD*%
D12*
%TO.P,D1,1,K*%
%TO.N,+5V*%
X102705000Y-89920000D03*
%TO.P,D1,2,A*%
%TO.N,Net-(D1-A)*%
X99405000Y-89920000D03*
%TD*%
D13*
%TO.P,C7,2*%
%TO.N,+3V3*%
X165742742Y-85400000D03*
%TO.P,C7,1*%
%TO.N,GND*%
X164782742Y-85400000D03*
%TD*%
D14*
%TO.P,C6,2*%
%TO.N,+3V3*%
X173800000Y-75120000D03*
%TO.P,C6,1*%
%TO.N,GND*%
X173800000Y-76080000D03*
%TD*%
D13*
%TO.P,C26,1*%
%TO.N,GND*%
X139391142Y-75743223D03*
%TO.P,C26,2*%
%TO.N,Net-(C26-Pad2)*%
X140351142Y-75743223D03*
%TD*%
D15*
%TO.P,R1,1*%
%TO.N,/USB_D+*%
X145960624Y-88960624D03*
%TO.P,R1,2*%
%TO.N,Net-(U2-USB_DP)*%
X145239376Y-88239376D03*
%TD*%
D16*
%TO.P,R11,1*%
%TO.N,/RESE*%
X176572742Y-83800000D03*
%TO.P,R11,2*%
%TO.N,GND*%
X175552742Y-83800000D03*
%TD*%
D13*
%TO.P,C8,1*%
%TO.N,GND*%
X175582742Y-82800000D03*
%TO.P,C8,2*%
%TO.N,Net-(U1-VGL{slash}NC)*%
X176542742Y-82800000D03*
%TD*%
%TO.P,C28,1*%
%TO.N,GND*%
X175457258Y-76100000D03*
%TO.P,C28,2*%
%TO.N,Net-(U1-VPP)*%
X176417258Y-76100000D03*
%TD*%
D17*
%TO.P,L2,1,1*%
%TO.N,+3V3*%
X167162742Y-84800000D03*
%TO.P,L2,2,2*%
%TO.N,Net-(D7-A)*%
X170162742Y-84800000D03*
%TD*%
D18*
%TO.P,C22,1*%
%TO.N,+1V1*%
X137139411Y-80139411D03*
%TO.P,C22,2*%
%TO.N,GND*%
X136460589Y-79460589D03*
%TD*%
D19*
%TO.P,SW1,1,1*%
%TO.N,GND*%
X122725000Y-100125000D03*
X126875000Y-100125000D03*
%TO.P,SW1,2,2*%
%TO.N,Net-(R5-Pad1)*%
X122725000Y-102275000D03*
X126875000Y-102275000D03*
%TD*%
D20*
%TO.P,C27,1*%
%TO.N,Net-(D5-K)*%
X174262742Y-83320000D03*
%TO.P,C27,2*%
%TO.N,Net-(D7-A)*%
X174262742Y-84280000D03*
%TD*%
D19*
%TO.P,SW2,1,1*%
%TO.N,GND*%
X131925000Y-100125000D03*
X136075000Y-100125000D03*
%TO.P,SW2,2,2*%
%TO.N,Net-(U2-RUN)*%
X131925000Y-102275000D03*
X136075000Y-102275000D03*
%TD*%
D21*
%TO.P,C25,1*%
%TO.N,GND*%
X142731142Y-75743223D03*
%TO.P,C25,2*%
%TO.N,/XIN*%
X141771142Y-75743223D03*
%TD*%
D22*
%TO.P,U3,1,GND*%
%TO.N,GND*%
X110050000Y-88700000D03*
%TO.P,U3,2,VO*%
%TO.N,+3V3*%
X110050000Y-91000000D03*
D23*
X116350000Y-91000000D03*
D22*
%TO.P,U3,3,VI*%
%TO.N,+5V*%
X110050000Y-93300000D03*
%TD*%
D24*
%TO.P,J2,A1,GND*%
%TO.N,GND*%
X97390000Y-89800000D03*
%TO.P,J2,A4,VBUS*%
%TO.N,Net-(D1-A)*%
X97390000Y-90600000D03*
D25*
%TO.P,J2,A5,CC1*%
%TO.N,Net-(J2-CC1)*%
X97390000Y-91750000D03*
%TO.P,J2,A6,D+*%
%TO.N,/USB_D+*%
X97390000Y-92750000D03*
%TO.P,J2,A7,D-*%
%TO.N,/USB_D-*%
X97390000Y-93250000D03*
%TO.P,J2,A8,SBU1*%
%TO.N,unconnected-(J2-SBU1-PadA8)*%
X97390000Y-94250000D03*
D24*
%TO.P,J2,A9,VBUS*%
%TO.N,Net-(D1-A)*%
X97390000Y-95400000D03*
%TO.P,J2,A12,GND*%
%TO.N,GND*%
X97390000Y-96200000D03*
%TO.P,J2,B1,GND*%
X97390000Y-96200000D03*
%TO.P,J2,B4,VBUS*%
%TO.N,Net-(D1-A)*%
X97390000Y-95400000D03*
D25*
%TO.P,J2,B5,CC2*%
%TO.N,Net-(J2-CC2)*%
X97390000Y-94750000D03*
%TO.P,J2,B6,D+*%
%TO.N,/USB_D+*%
X97390000Y-93750000D03*
%TO.P,J2,B7,D-*%
%TO.N,/USB_D-*%
X97390000Y-92250000D03*
%TO.P,J2,B8,SBU2*%
%TO.N,unconnected-(J2-SBU2-PadB8)*%
X97390000Y-91250000D03*
D24*
%TO.P,J2,B9,VBUS*%
%TO.N,Net-(D1-A)*%
X97390000Y-90600000D03*
%TO.P,J2,B12,GND*%
%TO.N,GND*%
X97390000Y-89800000D03*
D26*
%TO.P,J2,S1,SHIELD*%
X96815000Y-88680000D03*
D27*
X92635000Y-88680000D03*
D26*
X96815000Y-97320000D03*
D27*
X92635000Y-97320000D03*
%TD*%
D28*
%TO.P,C13,1*%
%TO.N,+3V3*%
X139539411Y-88260589D03*
%TO.P,C13,2*%
%TO.N,GND*%
X138860589Y-88939411D03*
%TD*%
D15*
%TO.P,R7,1*%
%TO.N,+3V3*%
X137360624Y-78760624D03*
%TO.P,R7,2*%
%TO.N,Net-(U2-RUN)*%
X136639376Y-78039376D03*
%TD*%
D13*
%TO.P,C1,1*%
%TO.N,GND*%
X175520000Y-72200000D03*
%TO.P,C1,2*%
%TO.N,Net-(U1-VCOM)*%
X176480000Y-72200000D03*
%TD*%
D21*
%TO.P,C29,1*%
%TO.N,+3V3*%
X165742742Y-83400000D03*
%TO.P,C29,2*%
%TO.N,GND*%
X164782742Y-83400000D03*
%TD*%
D29*
%TO.P,C17,1*%
%TO.N,+3V3*%
X141660589Y-89260589D03*
%TO.P,C17,2*%
%TO.N,GND*%
X142339411Y-89939411D03*
%TD*%
D30*
%TO.P,U4,1,~{CS}*%
%TO.N,+3V3*%
X157346526Y-88210293D03*
%TO.P,U4,2,DO/IO_{1}*%
%TO.N,/QSPI_SD1*%
X156448500Y-87312267D03*
%TO.P,U4,3,~{WP}/IO_{2}*%
%TO.N,/QSPI_SD2*%
X155550475Y-86414242D03*
%TO.P,U4,4,GND*%
%TO.N,GND*%
X154652449Y-85516216D03*
%TO.P,U4,5,DI/IO_{0}*%
%TO.N,/QSPI_SD0*%
X149578958Y-90589707D03*
%TO.P,U4,6,CLK*%
%TO.N,/QSPI_CLK*%
X150476984Y-91487733D03*
%TO.P,U4,7,~{HOLD}/~{RESET}/IO_{3}*%
%TO.N,/QSPI_SD3*%
X151375009Y-92385758D03*
%TO.P,U4,8,VCC*%
%TO.N,+3V3*%
X152273035Y-93283784D03*
%TD*%
D21*
%TO.P,C3,1*%
%TO.N,GND*%
X173980000Y-77200000D03*
%TO.P,C3,2*%
%TO.N,/VGH*%
X173020000Y-77200000D03*
%TD*%
D31*
%TO.P,R6,1*%
%TO.N,Net-(C26-Pad2)*%
X139590624Y-77569376D03*
%TO.P,R6,2*%
%TO.N,/XOUT*%
X138869376Y-78290624D03*
%TD*%
D32*
%TO.P,Q3,1,G*%
%TO.N,/GDR*%
X175400242Y-90350000D03*
%TO.P,Q3,2,S*%
%TO.N,/RESE*%
X175400242Y-88450000D03*
%TO.P,Q3,3,D*%
%TO.N,Net-(D7-A)*%
X173525242Y-89400000D03*
%TD*%
D33*
%TO.P,R5,1*%
%TO.N,Net-(R5-Pad1)*%
X149639376Y-93439376D03*
%TO.P,R5,2*%
%TO.N,+3V3*%
X150360624Y-94160624D03*
%TD*%
D16*
%TO.P,R10,1*%
%TO.N,/GDR*%
X176810000Y-85700000D03*
%TO.P,R10,2*%
%TO.N,GND*%
X175790000Y-85700000D03*
%TD*%
D13*
%TO.P,C4,1*%
%TO.N,GND*%
X175457258Y-75000000D03*
%TO.P,C4,2*%
%TO.N,Net-(U1-VSH1)*%
X176417258Y-75000000D03*
%TD*%
D29*
%TO.P,C21,1*%
%TO.N,+1V1*%
X143260589Y-89460589D03*
%TO.P,C21,2*%
%TO.N,GND*%
X143939411Y-90139411D03*
%TD*%
D14*
%TO.P,C11,1*%
%TO.N,+3V3*%
X107800000Y-89880000D03*
%TO.P,C11,2*%
%TO.N,GND*%
X107800000Y-88920000D03*
%TD*%
D13*
%TO.P,C9,1*%
%TO.N,GND*%
X175582742Y-81800000D03*
%TO.P,C9,2*%
%TO.N,Net-(U1-VSH2)*%
X176542742Y-81800000D03*
%TD*%
D29*
%TO.P,C16,1*%
%TO.N,+3V3*%
X146660589Y-87460589D03*
%TO.P,C16,2*%
%TO.N,GND*%
X147339411Y-88139411D03*
%TD*%
D34*
%TO.P,R3,1*%
%TO.N,Net-(J2-CC1)*%
X99275000Y-91720000D03*
%TO.P,R3,2*%
%TO.N,GND*%
X100295000Y-91720000D03*
%TD*%
D28*
%TO.P,C20,1*%
%TO.N,+3V3*%
X137139411Y-85460589D03*
%TO.P,C20,2*%
%TO.N,GND*%
X136460589Y-86139411D03*
%TD*%
D35*
%TO.P,C18,1*%
%TO.N,+3V3*%
X143660589Y-78939411D03*
%TO.P,C18,2*%
%TO.N,GND*%
X144339411Y-78260589D03*
%TD*%
D13*
%TO.P,C5,1*%
%TO.N,GND*%
X175457258Y-77100000D03*
%TO.P,C5,2*%
%TO.N,Net-(U1-VDD)*%
X176417258Y-77100000D03*
%TD*%
D36*
%TO.P,U1,1,NC*%
%TO.N,unconnected-(U1-NC-Pad1)*%
X178362742Y-84350000D03*
%TO.P,U1,2,GDR*%
%TO.N,/GDR*%
X178362742Y-83850000D03*
%TO.P,U1,3,RESE*%
%TO.N,/RESE*%
X178362742Y-83350000D03*
%TO.P,U1,4,VGL/NC*%
%TO.N,Net-(U1-VGL{slash}NC)*%
X178362742Y-82850000D03*
%TO.P,U1,5,VSH2*%
%TO.N,Net-(U1-VSH2)*%
X178362742Y-82350000D03*
%TO.P,U1,6,TSCL*%
%TO.N,unconnected-(U1-TSCL-Pad6)*%
X178362742Y-81850000D03*
%TO.P,U1,7,TSDA*%
%TO.N,unconnected-(U1-TSDA-Pad7)*%
X178362742Y-81350000D03*
%TO.P,U1,8,BS1*%
%TO.N,GND*%
X178362742Y-80850000D03*
%TO.P,U1,9,BUSY*%
%TO.N,/BUSY*%
X178362742Y-80350000D03*
%TO.P,U1,10,~{RST}*%
%TO.N,/RST*%
X178362742Y-79850000D03*
%TO.P,U1,11,~{D/C}*%
%TO.N,/D{slash}C*%
X178362742Y-79350000D03*
%TO.P,U1,12,~{CS}*%
%TO.N,/CS*%
X178362742Y-78850000D03*
%TO.P,U1,13,SCL*%
%TO.N,/CLK*%
X178362742Y-78350000D03*
%TO.P,U1,14,SDA*%
%TO.N,/MOSI*%
X178362742Y-77850000D03*
%TO.P,U1,15,VDDIO*%
%TO.N,+3V3*%
X178362742Y-77350000D03*
%TO.P,U1,16,VCI*%
X178362742Y-76850000D03*
%TO.P,U1,17,VSS*%
%TO.N,GND*%
X178362742Y-76350000D03*
%TO.P,U1,18,VDD*%
%TO.N,Net-(U1-VDD)*%
X178362742Y-75850000D03*
%TO.P,U1,19,VPP*%
%TO.N,Net-(U1-VPP)*%
X178362742Y-75350000D03*
%TO.P,U1,20,VSH1*%
%TO.N,Net-(U1-VSH1)*%
X178362742Y-74850000D03*
%TO.P,U1,21,VGH*%
%TO.N,/VGH*%
X178362742Y-74350000D03*
%TO.P,U1,22,VSL*%
%TO.N,Net-(U1-VSL)*%
X178362742Y-73850000D03*
%TO.P,U1,23,VGL*%
%TO.N,/VGL*%
X178362742Y-73350000D03*
%TO.P,U1,24,VCOM*%
%TO.N,Net-(U1-VCOM)*%
X178362742Y-72850000D03*
D37*
%TO.P,U1,MP,SHIELD*%
%TO.N,GND*%
X180532742Y-85950000D03*
D38*
X180532742Y-71200000D03*
%TD*%
D28*
%TO.P,C19,1*%
%TO.N,+3V3*%
X140339411Y-89060589D03*
%TO.P,C19,2*%
%TO.N,GND*%
X139660589Y-89739411D03*
%TD*%
D15*
%TO.P,R2,1*%
%TO.N,/USB_D-*%
X144360624Y-88960624D03*
%TO.P,R2,2*%
%TO.N,Net-(U2-USB_DM)*%
X143639376Y-88239376D03*
%TD*%
D35*
%TO.P,C15,1*%
%TO.N,+3V3*%
X147660589Y-81939411D03*
%TO.P,C15,2*%
%TO.N,GND*%
X148339411Y-81260589D03*
%TD*%
D29*
%TO.P,C23,1*%
%TO.N,+1V1*%
X147460589Y-86660589D03*
%TO.P,C23,2*%
%TO.N,GND*%
X148139411Y-87339411D03*
%TD*%
D13*
%TO.P,C2,1*%
%TO.N,GND*%
X175520000Y-73600000D03*
%TO.P,C2,2*%
%TO.N,Net-(U1-VSL)*%
X176480000Y-73600000D03*
%TD*%
D34*
%TO.P,R4,1*%
%TO.N,Net-(J2-CC2)*%
X99290000Y-95020000D03*
%TO.P,R4,2*%
%TO.N,GND*%
X100310000Y-95020000D03*
%TD*%
D21*
%TO.P,C10,1*%
%TO.N,GND*%
X171217258Y-77200000D03*
%TO.P,C10,2*%
%TO.N,/VGL*%
X170257258Y-77200000D03*
%TD*%
D39*
%TO.P,Y1,1,1*%
%TO.N,Net-(C26-Pad2)*%
X139960000Y-74360000D03*
%TO.P,Y1,2,2*%
%TO.N,GND*%
X142160000Y-74360000D03*
%TO.P,Y1,3,3*%
%TO.N,/XIN*%
X142160000Y-72660000D03*
%TO.P,Y1,4,4*%
%TO.N,GND*%
X139960000Y-72660000D03*
%TD*%
D18*
%TO.P,C24,1*%
%TO.N,+3V3*%
X158002153Y-85739411D03*
%TO.P,C24,2*%
%TO.N,GND*%
X157323331Y-85060589D03*
%TD*%
D40*
%TO.P,U2,1,IOVDD*%
%TO.N,+3V3*%
X145400528Y-82407798D03*
%TO.P,U2,2,GPIO0*%
%TO.N,/BUSY*%
X145117685Y-82124955D03*
%TO.P,U2,3,GPIO1*%
%TO.N,/CS*%
X144834843Y-81842113D03*
%TO.P,U2,4,GPIO2*%
%TO.N,/CLK*%
X144552000Y-81559270D03*
%TO.P,U2,5,GPIO3*%
%TO.N,/MOSI*%
X144269157Y-81276427D03*
%TO.P,U2,6,GPIO4*%
%TO.N,/D{slash}C*%
X143986315Y-80993585D03*
%TO.P,U2,7,GPIO5*%
%TO.N,/RST*%
X143703472Y-80710742D03*
%TO.P,U2,8,GPIO6*%
%TO.N,unconnected-(U2-GPIO6-Pad8)*%
X143420629Y-80427899D03*
%TO.P,U2,9,GPIO7*%
%TO.N,unconnected-(U2-GPIO7-Pad9)*%
X143137786Y-80145056D03*
%TO.P,U2,10,IOVDD*%
%TO.N,+3V3*%
X142854944Y-79862214D03*
%TO.P,U2,11,GPIO8*%
%TO.N,unconnected-(U2-GPIO8-Pad11)*%
X142572101Y-79579371D03*
%TO.P,U2,12,GPIO9*%
%TO.N,unconnected-(U2-GPIO9-Pad12)*%
X142289258Y-79296528D03*
%TO.P,U2,13,GPIO10*%
%TO.N,unconnected-(U2-GPIO10-Pad13)*%
X142006416Y-79013686D03*
%TO.P,U2,14,GPIO11*%
%TO.N,unconnected-(U2-GPIO11-Pad14)*%
X141723573Y-78730843D03*
D41*
%TO.P,U2,15,GPIO12*%
%TO.N,unconnected-(U2-GPIO12-Pad15)*%
X140539169Y-78730843D03*
%TO.P,U2,16,GPIO13*%
%TO.N,unconnected-(U2-GPIO13-Pad16)*%
X140256326Y-79013686D03*
%TO.P,U2,17,GPIO14*%
%TO.N,unconnected-(U2-GPIO14-Pad17)*%
X139973484Y-79296528D03*
%TO.P,U2,18,GPIO15*%
%TO.N,unconnected-(U2-GPIO15-Pad18)*%
X139690641Y-79579371D03*
%TO.P,U2,19,TESTEN*%
%TO.N,unconnected-(U2-TESTEN-Pad19)*%
X139407798Y-79862214D03*
%TO.P,U2,20,XIN*%
%TO.N,/XIN*%
X139124956Y-80145056D03*
%TO.P,U2,21,XOUT*%
%TO.N,/XOUT*%
X138842113Y-80427899D03*
%TO.P,U2,22,IOVDD*%
%TO.N,+3V3*%
X138559270Y-80710742D03*
%TO.P,U2,23,DVDD*%
%TO.N,+1V1*%
X138276427Y-80993585D03*
%TO.P,U2,24,SWCLK*%
%TO.N,unconnected-(U2-SWCLK-Pad24)*%
X137993585Y-81276427D03*
%TO.P,U2,25,SWD*%
%TO.N,unconnected-(U2-SWD-Pad25)*%
X137710742Y-81559270D03*
%TO.P,U2,26,RUN*%
%TO.N,Net-(U2-RUN)*%
X137427899Y-81842113D03*
%TO.P,U2,27,GPIO16*%
%TO.N,unconnected-(U2-GPIO16-Pad27)*%
X137145057Y-82124955D03*
%TO.P,U2,28,GPIO17*%
%TO.N,unconnected-(U2-GPIO17-Pad28)*%
X136862214Y-82407798D03*
D40*
%TO.P,U2,29,GPIO18*%
%TO.N,unconnected-(U2-GPIO18-Pad29)*%
X136862214Y-83592202D03*
%TO.P,U2,30,GPIO19*%
%TO.N,unconnected-(U2-GPIO19-Pad30)*%
X137145057Y-83875045D03*
%TO.P,U2,31,GPIO20*%
%TO.N,unconnected-(U2-GPIO20-Pad31)*%
X137427899Y-84157887D03*
%TO.P,U2,32,GPIO21*%
%TO.N,unconnected-(U2-GPIO21-Pad32)*%
X137710742Y-84440730D03*
%TO.P,U2,33,IOVDD*%
%TO.N,+3V3*%
X137993585Y-84723573D03*
%TO.P,U2,34,GPIO22*%
%TO.N,unconnected-(U2-GPIO22-Pad34)*%
X138276427Y-85006415D03*
%TO.P,U2,35,GPIO23*%
%TO.N,unconnected-(U2-GPIO23-Pad35)*%
X138559270Y-85289258D03*
%TO.P,U2,36,GPIO24*%
%TO.N,unconnected-(U2-GPIO24-Pad36)*%
X138842113Y-85572101D03*
%TO.P,U2,37,GPIO25*%
%TO.N,unconnected-(U2-GPIO25-Pad37)*%
X139124956Y-85854944D03*
%TO.P,U2,38,GPIO26_ADC0*%
%TO.N,/NP1*%
X139407798Y-86137786D03*
%TO.P,U2,39,GPIO27_ADC1*%
%TO.N,/NP2*%
X139690641Y-86420629D03*
%TO.P,U2,40,GPIO28_ADC2*%
%TO.N,unconnected-(U2-GPIO28_ADC2-Pad40)*%
X139973484Y-86703472D03*
%TO.P,U2,41,GPIO29_ADC3*%
%TO.N,unconnected-(U2-GPIO29_ADC3-Pad41)*%
X140256326Y-86986314D03*
%TO.P,U2,42,IOVDD*%
%TO.N,+3V3*%
X140539169Y-87269157D03*
D41*
%TO.P,U2,43,ADC_AVDD*%
X141723573Y-87269157D03*
%TO.P,U2,44,VREG_IN*%
X142006416Y-86986314D03*
%TO.P,U2,45,VREG_VOUT*%
%TO.N,+1V1*%
X142289258Y-86703472D03*
%TO.P,U2,46,USB_DM*%
%TO.N,Net-(U2-USB_DM)*%
X142572101Y-86420629D03*
%TO.P,U2,47,USB_DP*%
%TO.N,Net-(U2-USB_DP)*%
X142854944Y-86137786D03*
%TO.P,U2,48,USB_VDD*%
%TO.N,+3V3*%
X143137786Y-85854944D03*
%TO.P,U2,49,IOVDD*%
X143420629Y-85572101D03*
%TO.P,U2,50,DVDD*%
%TO.N,+1V1*%
X143703472Y-85289258D03*
%TO.P,U2,51,QSPI_SD3*%
%TO.N,/QSPI_SD3*%
X143986315Y-85006415D03*
%TO.P,U2,52,QSPI_SCLK*%
%TO.N,/QSPI_CLK*%
X144269157Y-84723573D03*
%TO.P,U2,53,QSPI_SD0*%
%TO.N,/QSPI_SD0*%
X144552000Y-84440730D03*
%TO.P,U2,54,QSPI_SD2*%
%TO.N,/QSPI_SD2*%
X144834843Y-84157887D03*
%TO.P,U2,55,QSPI_SD1*%
%TO.N,/QSPI_SD1*%
X145117685Y-83875045D03*
%TO.P,U2,56,QSPI_SS*%
%TO.N,+3V3*%
X145400528Y-83592202D03*
D42*
%TO.P,U2,57,GND*%
%TO.N,GND*%
X141131371Y-83000000D03*
%TD*%
D29*
%TO.P,C14,1*%
%TO.N,+3V3*%
X148460589Y-82660589D03*
%TO.P,C14,2*%
%TO.N,GND*%
X149139411Y-83339411D03*
%TD*%
D14*
%TO.P,C12,1*%
%TO.N,+5V*%
X107800000Y-92880000D03*
%TO.P,C12,2*%
%TO.N,GND*%
X107800000Y-91920000D03*
%TD*%
D43*
%TO.N,GND*%
X101300000Y-91800000D03*
%TO.N,/D{slash}C*%
X147900000Y-78300000D03*
X174824265Y-79824265D03*
%TO.N,/CS*%
X173739990Y-80032203D03*
%TO.N,/MOSI*%
X148700000Y-78900000D03*
%TO.N,/CLK*%
X150300000Y-79500000D03*
X175892227Y-78455212D03*
%TO.N,/CS*%
X149000000Y-80100000D03*
%TO.N,/BUSY*%
X146847594Y-81672170D03*
X174500000Y-81500000D03*
%TO.N,+3V3*%
X174600000Y-75300000D03*
%TO.N,GND*%
X174700000Y-76300000D03*
X173200000Y-87400000D03*
X171200000Y-76200000D03*
X140500000Y-85600000D03*
X161800000Y-68992462D03*
X172400000Y-74000000D03*
X174400000Y-72300000D03*
X117000000Y-72200000D03*
X156400000Y-64000000D03*
X135363641Y-80163641D03*
X129400000Y-65800000D03*
X123200000Y-89800000D03*
X125200000Y-80600000D03*
X111200000Y-81400000D03*
X161000000Y-91000000D03*
X138200000Y-82800000D03*
X175072742Y-84395635D03*
X141200000Y-80000000D03*
X112400000Y-63800000D03*
X132000000Y-73000000D03*
X160600000Y-82200000D03*
X148200000Y-89000000D03*
X142800000Y-91000000D03*
X175800000Y-87000000D03*
X138400000Y-66000000D03*
X171600000Y-63800000D03*
X179600000Y-92600000D03*
X144000000Y-83200000D03*
%TO.N,+3V3*%
X138450000Y-87010000D03*
X142900000Y-76900000D03*
X145600000Y-87000000D03*
X177313724Y-77113724D03*
X167600000Y-87800000D03*
X149000000Y-95000000D03*
X146600000Y-83000000D03*
X138400000Y-75800000D03*
%TO.N,+1V1*%
X142700000Y-88900000D03*
X136600000Y-80600000D03*
%TO.N,Net-(U2-RUN)*%
X128400000Y-95400000D03*
X133800000Y-81200000D03*
%TO.N,+1V1*%
X143233195Y-84442571D03*
%TO.N,/MOSI*%
X171600000Y-78900000D03*
%TD*%
D44*
%TO.N,/XOUT*%
X138360459Y-79946245D02*
X138842113Y-80427899D01*
X138360459Y-78799541D02*
X138360459Y-79946245D01*
X138869376Y-78290624D02*
X138360459Y-78799541D01*
%TO.N,GND*%
X138964000Y-73556000D02*
X139860000Y-72660000D01*
X139860000Y-72660000D02*
X139960000Y-72660000D01*
X138964000Y-75316081D02*
X138964000Y-73556000D01*
X139391142Y-75743223D02*
X138964000Y-75316081D01*
%TO.N,/XIN*%
X138751459Y-79777215D02*
X139342122Y-80367878D01*
X138751459Y-79481227D02*
X138751459Y-79777215D01*
X141771142Y-76461544D02*
X138751459Y-79481227D01*
X141771142Y-75743223D02*
X141771142Y-76461544D01*
X141164000Y-75136081D02*
X141164000Y-73556000D01*
X141771142Y-75743223D02*
X141164000Y-75136081D01*
X141164000Y-73556000D02*
X142060000Y-72660000D01*
X142060000Y-72660000D02*
X142160000Y-72660000D01*
%TO.N,Net-(C26-Pad2)*%
X140351142Y-76018858D02*
X139590624Y-76779376D01*
X139590624Y-76779376D02*
X139590624Y-77569376D01*
X140351142Y-75743223D02*
X140351142Y-76018858D01*
X139960000Y-75352081D02*
X140351142Y-75743223D01*
X139960000Y-74360000D02*
X139960000Y-75352081D01*
%TO.N,/USB_D+*%
X96846000Y-93750000D02*
X97390000Y-93750000D01*
X96619124Y-92945877D02*
X96619124Y-93523124D01*
X96619124Y-93523124D02*
X96846000Y-93750000D01*
X97390000Y-92750000D02*
X96815001Y-92750000D01*
X96815001Y-92750000D02*
X96619124Y-92945877D01*
%TO.N,/USB_D-*%
X98161000Y-92560670D02*
X98161000Y-93189000D01*
X98161000Y-93189000D02*
X98100000Y-93250000D01*
X97850330Y-92250000D02*
X98161000Y-92560670D01*
X98100000Y-93250000D02*
X97390000Y-93250000D01*
X97390000Y-92250000D02*
X97850330Y-92250000D01*
D45*
X144634858Y-90311584D02*
X144634858Y-89924810D01*
X108319990Y-94383500D02*
X140562942Y-94383500D01*
X107253990Y-93317500D02*
X108319990Y-94383500D01*
X98320001Y-93317500D02*
X107253990Y-93317500D01*
X144634858Y-89924810D02*
X144360624Y-89650576D01*
X98252501Y-93250000D02*
X98320001Y-93317500D01*
X97390000Y-93250000D02*
X98252501Y-93250000D01*
%TO.N,/USB_D+*%
X145000838Y-89920410D02*
X145960624Y-88960624D01*
X140714536Y-94749480D02*
X145000838Y-90463178D01*
X108168396Y-94749480D02*
X140714536Y-94749480D01*
X98319021Y-93683480D02*
X107102396Y-93683480D01*
X107102396Y-93683480D02*
X108168396Y-94749480D01*
X98252501Y-93750000D02*
X98319021Y-93683480D01*
%TO.N,/USB_D-*%
X140562942Y-94383500D02*
X144634858Y-90311584D01*
X144360624Y-89650576D02*
X144360624Y-88960624D01*
%TO.N,/USB_D+*%
X145000838Y-90463178D02*
X145000838Y-89920410D01*
X97390000Y-93750000D02*
X98252501Y-93750000D01*
D44*
%TO.N,GND*%
X175457258Y-75000000D02*
X175457258Y-76100000D01*
D46*
X136066690Y-79460589D02*
X136460589Y-79460589D01*
X135363641Y-80163638D02*
X136066690Y-79460589D01*
X135363641Y-80163641D02*
X135363641Y-80163638D01*
D44*
X101220000Y-91720000D02*
X101300000Y-91800000D01*
X100295000Y-91720000D02*
X101220000Y-91720000D01*
X148339411Y-81260589D02*
X148460589Y-81260589D01*
X107800000Y-91920000D02*
X107800000Y-91111000D01*
D46*
X107189000Y-90500000D02*
X107189000Y-89531000D01*
D44*
X107800000Y-91111000D02*
X107189000Y-90500000D01*
%TO.N,/MOSI*%
X144269157Y-81276427D02*
X144269157Y-81272183D01*
X144269157Y-81272183D02*
X144770670Y-80770670D01*
%TO.N,/D{slash}C*%
X143986315Y-80993585D02*
X146679900Y-78300000D01*
D46*
%TO.N,/RST*%
X146914214Y-77500000D02*
X143703472Y-80710742D01*
X166975549Y-77500000D02*
X146914214Y-77500000D01*
X170024549Y-80549000D02*
X166975549Y-77500000D01*
X170672418Y-80549000D02*
X170024549Y-80549000D01*
X170923418Y-80800000D02*
X170672418Y-80549000D01*
X172113840Y-80800000D02*
X170923418Y-80800000D01*
X172364840Y-80549000D02*
X172113840Y-80800000D01*
X173686160Y-80800000D02*
X173435160Y-80549000D01*
X173435160Y-80549000D02*
X172364840Y-80549000D01*
X174700000Y-80800000D02*
X173686160Y-80800000D01*
X175551000Y-79949000D02*
X174700000Y-80800000D01*
X177629918Y-79949000D02*
X175551000Y-79949000D01*
X178313742Y-79899000D02*
X177679918Y-79899000D01*
X177679918Y-79899000D02*
X177629918Y-79949000D01*
X178362742Y-79850000D02*
X178313742Y-79899000D01*
%TO.N,/D{slash}C*%
X147900000Y-78300000D02*
X146681314Y-78300000D01*
%TO.N,/CLK*%
X175892227Y-78455212D02*
X175997439Y-78350000D01*
X175997439Y-78350000D02*
X178362742Y-78350000D01*
%TO.N,/MOSI*%
X173435160Y-79451000D02*
X174876160Y-78010000D01*
X175490000Y-78010000D02*
X175652000Y-77848000D01*
X172151000Y-79451000D02*
X173435160Y-79451000D01*
X174876160Y-78010000D02*
X175490000Y-78010000D01*
X175652000Y-77848000D02*
X178360742Y-77848000D01*
X171600000Y-78900000D02*
X172151000Y-79451000D01*
X178360742Y-77848000D02*
X178362742Y-77850000D01*
X171600000Y-78900000D02*
X171672368Y-78827632D01*
%TO.N,/CS*%
X176164829Y-79055211D02*
X176370040Y-78850000D01*
X174744789Y-79055211D02*
X176164829Y-79055211D01*
X173767797Y-80032203D02*
X174744789Y-79055211D01*
X173739990Y-80032203D02*
X173767797Y-80032203D01*
X176370040Y-78850000D02*
X178362742Y-78850000D01*
%TO.N,GND*%
X178362742Y-76350000D02*
X180482742Y-76350000D01*
X180532742Y-76300000D02*
X180532742Y-71200000D01*
X180482742Y-76350000D02*
X180532742Y-76300000D01*
%TO.N,/BUSY*%
X176001413Y-80350000D02*
X178362742Y-80350000D01*
X174851413Y-81500000D02*
X176001413Y-80350000D01*
X174500000Y-81500000D02*
X174851413Y-81500000D01*
%TO.N,/CS*%
X146675540Y-80000000D02*
X145213339Y-81462201D01*
X149000000Y-80100000D02*
X148900000Y-80000000D01*
X148900000Y-80000000D02*
X146675540Y-80000000D01*
%TO.N,/CLK*%
X146608440Y-79500000D02*
X144930496Y-81177944D01*
X150300000Y-79500000D02*
X146608440Y-79500000D01*
%TO.N,/MOSI*%
X146641340Y-78900000D02*
X144770670Y-80770670D01*
X148700000Y-78900000D02*
X146641340Y-78900000D01*
%TO.N,/BUSY*%
X146687459Y-81512035D02*
X145730606Y-81512035D01*
X146847594Y-81672170D02*
X146687459Y-81512035D01*
X145730606Y-81512035D02*
X145496182Y-81746459D01*
D44*
%TO.N,+3V3*%
X137256569Y-85460589D02*
X137139411Y-85460589D01*
X137993585Y-84723573D02*
X137256569Y-85460589D01*
%TO.N,+1V1*%
X142996000Y-87804000D02*
X142400000Y-88400000D01*
X142996000Y-87411628D02*
X142996000Y-87804000D01*
X142992186Y-87407814D02*
X142996000Y-87411628D01*
D46*
%TO.N,+5V*%
X104840000Y-89920000D02*
X107800000Y-92880000D01*
X102455000Y-89920000D02*
X104840000Y-89920000D01*
X108220000Y-93300000D02*
X107800000Y-92880000D01*
X110050000Y-93300000D02*
X108220000Y-93300000D01*
%TO.N,+3V3*%
X142005708Y-86987022D02*
X141723573Y-87269157D01*
X166042742Y-84800000D02*
X165742742Y-84500000D01*
X167162742Y-84800000D02*
X166042742Y-84800000D01*
X165742742Y-84500000D02*
X165742742Y-85400000D01*
X165742742Y-83400000D02*
X165742742Y-84500000D01*
X174420000Y-75120000D02*
X174600000Y-75300000D01*
X173800000Y-75120000D02*
X174420000Y-75120000D01*
%TO.N,GND*%
X175348859Y-73771141D02*
X175520000Y-73600000D01*
X173271141Y-73771141D02*
X175348859Y-73771141D01*
X173042282Y-74000000D02*
X173271141Y-73771141D01*
X172400000Y-74000000D02*
X173042282Y-74000000D01*
%TO.N,/VGH*%
X173450000Y-74350000D02*
X172900000Y-74900000D01*
X172900000Y-74900000D02*
X172900000Y-78600000D01*
X178362742Y-74350000D02*
X173450000Y-74350000D01*
%TO.N,Net-(U1-VCOM)*%
X176480000Y-72200000D02*
X177712742Y-72200000D01*
X177712742Y-72200000D02*
X178362742Y-72850000D01*
%TO.N,GND*%
X180532742Y-71200000D02*
X176520000Y-71200000D01*
X180532742Y-85950000D02*
X180532742Y-76300000D01*
X171462742Y-87200000D02*
X169200000Y-87200000D01*
X165782742Y-82400000D02*
X164782742Y-83400000D01*
X169200000Y-87200000D02*
X168200000Y-86200000D01*
X167800000Y-82400000D02*
X165782742Y-82400000D01*
X157125342Y-84862600D02*
X157323331Y-85060589D01*
X136075000Y-100125000D02*
X122725000Y-100125000D01*
X178313742Y-80899000D02*
X178362742Y-80850000D01*
X177679918Y-80899000D02*
X178313742Y-80899000D01*
X175183732Y-84284645D02*
X175183732Y-84169010D01*
X110050000Y-88700000D02*
X108020000Y-88700000D01*
X136400000Y-86200000D02*
X136460589Y-86139411D01*
X172462742Y-86200000D02*
X172462742Y-86662742D01*
X175183732Y-84169010D02*
X175552742Y-83800000D01*
X164782742Y-85400000D02*
X164443331Y-85060589D01*
X97390000Y-89255000D02*
X96815000Y-88680000D01*
X108020000Y-88700000D02*
X107800000Y-88920000D01*
X174080000Y-77100000D02*
X173980000Y-77200000D01*
X99130000Y-96200000D02*
X100310000Y-95020000D01*
X175800000Y-85710000D02*
X175790000Y-85700000D01*
X176520000Y-71200000D02*
X175520000Y-72200000D01*
X175800000Y-87000000D02*
X175800000Y-85710000D01*
X154652449Y-85516216D02*
X155306065Y-84862600D01*
X172462742Y-86662742D02*
X173200000Y-87400000D01*
X155306065Y-84862600D02*
X157125342Y-84862600D01*
X92635000Y-97320000D02*
X96815000Y-97320000D01*
X175072742Y-84395635D02*
X175183732Y-84284645D01*
X92635000Y-88680000D02*
X96815000Y-88680000D01*
X142539411Y-90139411D02*
X142339411Y-89939411D01*
X168200000Y-82800000D02*
X167800000Y-82400000D01*
X175552742Y-81830000D02*
X175582742Y-81800000D01*
X164443331Y-85060589D02*
X157323331Y-85060589D01*
X177578918Y-81000000D02*
X177679918Y-80899000D01*
X175552742Y-83800000D02*
X175552742Y-81830000D01*
X97390000Y-96200000D02*
X97390000Y-96745000D01*
X172462742Y-86200000D02*
X171462742Y-87200000D01*
X171200000Y-77182742D02*
X171217258Y-77200000D01*
X175582742Y-81800000D02*
X176382742Y-81000000D01*
X174400000Y-72300000D02*
X175420000Y-72300000D01*
X168200000Y-86200000D02*
X168200000Y-82800000D01*
X171200000Y-76200000D02*
X171200000Y-77182742D01*
X143939411Y-90139411D02*
X142539411Y-90139411D01*
X97390000Y-96200000D02*
X99130000Y-96200000D01*
X175420000Y-72300000D02*
X175520000Y-72200000D01*
X97390000Y-89800000D02*
X97390000Y-89255000D01*
X97390000Y-96745000D02*
X96815000Y-97320000D01*
X176382742Y-81000000D02*
X177578918Y-81000000D01*
X107189000Y-89531000D02*
X107800000Y-88920000D01*
%TO.N,Net-(U1-VSL)*%
X176930000Y-73850000D02*
X176480000Y-73400000D01*
X178362742Y-73850000D02*
X176930000Y-73850000D01*
%TO.N,Net-(U1-VSH1)*%
X178362742Y-74850000D02*
X176567258Y-74850000D01*
X176567258Y-74850000D02*
X176417258Y-75000000D01*
%TO.N,Net-(U1-VDD)*%
X177728918Y-75850000D02*
X176478918Y-77100000D01*
X178362742Y-75850000D02*
X177728918Y-75850000D01*
X176478918Y-77100000D02*
X176417258Y-77100000D01*
%TO.N,+3V3*%
X158273742Y-86011000D02*
X165109292Y-86011000D01*
X143660589Y-77660589D02*
X143660589Y-78939411D01*
X152273035Y-93283784D02*
X151396195Y-94160624D01*
X157346526Y-88210293D02*
X158002153Y-87554666D01*
X147660589Y-81939411D02*
X147192202Y-82407798D01*
X165109292Y-86011000D02*
X165742742Y-85377550D01*
X146600000Y-83000000D02*
X146600000Y-82407798D01*
X116350000Y-91000000D02*
X110050000Y-91000000D01*
X146139411Y-87460589D02*
X146660589Y-87460589D01*
X121889411Y-85460589D02*
X132000000Y-85460589D01*
D44*
X142854944Y-79862214D02*
X143660589Y-79056569D01*
D46*
X146600000Y-82407798D02*
X145400528Y-82407798D01*
X138000000Y-76200000D02*
X138000000Y-77400000D01*
X108930000Y-89880000D02*
X110050000Y-91000000D01*
X157346526Y-88210293D02*
X152273035Y-93283784D01*
X107800000Y-89880000D02*
X108930000Y-89880000D01*
X139539411Y-88260589D02*
X139549151Y-88260589D01*
D44*
X143660589Y-79056569D02*
X143660589Y-78939411D01*
D46*
X142900000Y-76900000D02*
X143660589Y-77660589D01*
X149000000Y-95000000D02*
X149839376Y-94160624D01*
X137802358Y-79953830D02*
X138559270Y-80710742D01*
%TO.N,+5V*%
X109630000Y-92880000D02*
X110050000Y-93300000D01*
%TO.N,+3V3*%
X145678822Y-87000000D02*
X146139411Y-87460589D01*
X158002153Y-87554666D02*
X158002153Y-85739411D01*
X137139411Y-85460589D02*
X137139411Y-85539411D01*
X149839376Y-94160624D02*
X150360624Y-94160624D01*
X145400528Y-83592202D02*
X147528976Y-83592202D01*
X147192202Y-82407798D02*
X146600000Y-82407798D01*
X139549151Y-88260589D02*
X140539876Y-87269864D01*
X145600000Y-87000000D02*
X145678822Y-87000000D01*
X116350000Y-91000000D02*
X121889411Y-85460589D01*
X167600000Y-87400000D02*
X167162742Y-86962742D01*
X178362742Y-77350000D02*
X177550000Y-77350000D01*
X167600000Y-87800000D02*
X167600000Y-87400000D01*
X143138494Y-85854236D02*
X143420629Y-85572101D01*
X137802358Y-79202358D02*
X137802358Y-79953830D01*
X147660589Y-81939411D02*
X147739411Y-81939411D01*
X138400000Y-75800000D02*
X138000000Y-76200000D01*
X144847114Y-87000000D02*
X143419922Y-85572808D01*
X178362742Y-76850000D02*
X178362742Y-77350000D01*
X140339411Y-89060589D02*
X139539411Y-88260589D01*
X138000000Y-77400000D02*
X138000000Y-77000000D01*
X138000000Y-77000000D02*
X135600000Y-77000000D01*
X145600000Y-87000000D02*
X144847114Y-87000000D01*
X167162742Y-86962742D02*
X167162742Y-84800000D01*
X147528976Y-83592202D02*
X148460589Y-82660589D01*
X166762742Y-84400000D02*
X167162742Y-84800000D01*
X177550000Y-77350000D02*
X177313724Y-77113724D01*
X137360624Y-78760624D02*
X138000000Y-78121248D01*
X151396195Y-94160624D02*
X150360624Y-94160624D01*
X158002153Y-85739411D02*
X158273742Y-86011000D01*
X137360624Y-78760624D02*
X137802358Y-79202358D01*
X147739411Y-81939411D02*
X148460589Y-82660589D01*
X132000000Y-85460589D02*
X137139411Y-85460589D01*
X135600000Y-77000000D02*
X132000000Y-80600000D01*
X132000000Y-80600000D02*
X132000000Y-85460589D01*
X138000000Y-78121248D02*
X138000000Y-77400000D01*
%TO.N,Net-(U1-VGL{slash}NC)*%
X176542742Y-82800000D02*
X178312742Y-82800000D01*
X178312742Y-82800000D02*
X178362742Y-82850000D01*
%TO.N,Net-(U1-VSH2)*%
X176542742Y-81800000D02*
X177092742Y-82350000D01*
X177092742Y-82350000D02*
X178362742Y-82350000D01*
%TO.N,/VGL*%
X178362742Y-73350000D02*
X177550000Y-73350000D01*
X177550000Y-73350000D02*
X177100000Y-72900000D01*
X172300000Y-72900000D02*
X170137258Y-75062742D01*
X170137258Y-75062742D02*
X170137258Y-78600000D01*
X177100000Y-72900000D02*
X172300000Y-72900000D01*
%TO.N,+1V1*%
X137060589Y-80139411D02*
X136600000Y-80600000D01*
X142700000Y-88900000D02*
X142400000Y-88600000D01*
D44*
X138276427Y-80993585D02*
X137422253Y-80139411D01*
D46*
X147460589Y-86660589D02*
X147200000Y-86400000D01*
X147200000Y-86400000D02*
X144815630Y-86400000D01*
X144815630Y-86400000D02*
X144807815Y-86392185D01*
D44*
X142289258Y-86704886D02*
X142992186Y-87407814D01*
D46*
X137139411Y-80139411D02*
X137060589Y-80139411D01*
X143260589Y-89460589D02*
X142700000Y-88900000D01*
X142992186Y-87407814D02*
X142667755Y-87083383D01*
D47*
X143703472Y-85289258D02*
X143704888Y-85289258D01*
D46*
X142400000Y-88600000D02*
X142400000Y-88400000D01*
D44*
X142289258Y-86703472D02*
X142289258Y-86704886D01*
D46*
X143704888Y-85289258D02*
X144807815Y-86392185D01*
D44*
X137422253Y-80139411D02*
X137139411Y-80139411D01*
D46*
%TO.N,Net-(D7-A)*%
X170162742Y-84800000D02*
X172800000Y-84800000D01*
X173320000Y-84280000D02*
X174262742Y-84280000D01*
X173280292Y-81400000D02*
X174873742Y-82993450D01*
X172800000Y-84800000D02*
X173320000Y-84280000D01*
X174873742Y-82993450D02*
X174873742Y-83669000D01*
X174262742Y-88662500D02*
X173525242Y-89400000D01*
X174873742Y-83669000D02*
X174262742Y-84280000D01*
X172900000Y-81400000D02*
X173280292Y-81400000D01*
X174262742Y-84280000D02*
X174262742Y-88662500D01*
%TO.N,Net-(D5-K)*%
X172137258Y-83400000D02*
X172462742Y-83400000D01*
X174262742Y-83320000D02*
X172542742Y-83320000D01*
X170137258Y-81400000D02*
X172137258Y-83400000D01*
X172542742Y-83320000D02*
X172462742Y-83400000D01*
%TO.N,Net-(U1-VPP)*%
X177650000Y-75350000D02*
X176900000Y-76100000D01*
X176900000Y-76100000D02*
X176417258Y-76100000D01*
X178362742Y-75350000D02*
X177650000Y-75350000D01*
%TO.N,Net-(D1-A)*%
X96595008Y-90786000D02*
X96034992Y-90786000D01*
X94800000Y-93909496D02*
X96104504Y-95214000D01*
X96104504Y-95214000D02*
X96595008Y-95214000D01*
X96781008Y-95400000D02*
X97390000Y-95400000D01*
X98975000Y-90600000D02*
X97390000Y-90600000D01*
X96034992Y-90786000D02*
X96024496Y-90775504D01*
X96781008Y-90600000D02*
X96595008Y-90786000D01*
X94800000Y-92000000D02*
X94800000Y-93909496D01*
X96024496Y-90775504D02*
X94800000Y-92000000D01*
X97390000Y-90600000D02*
X96781008Y-90600000D01*
X96595008Y-95214000D02*
X96781008Y-95400000D01*
X99655000Y-89920000D02*
X98975000Y-90600000D01*
%TO.N,Net-(J2-CC2)*%
X99290000Y-95020000D02*
X99020000Y-94750000D01*
X97420000Y-94720000D02*
X97390000Y-94750000D01*
X99020000Y-94750000D02*
X97390000Y-94750000D01*
%TO.N,Net-(J2-CC1)*%
X97420000Y-91720000D02*
X97390000Y-91750000D01*
X99275000Y-91720000D02*
X97420000Y-91720000D01*
%TO.N,/RESE*%
X175000000Y-88049758D02*
X175400242Y-88450000D01*
X176572742Y-83800000D02*
X177022742Y-83350000D01*
X176572742Y-83927258D02*
X175000000Y-85500000D01*
X177022742Y-83350000D02*
X178362742Y-83350000D01*
X175000000Y-85500000D02*
X175000000Y-88049758D01*
X176572742Y-83800000D02*
X176572742Y-83927258D01*
%TO.N,/GDR*%
X176810000Y-88940242D02*
X175400242Y-90350000D01*
X176810000Y-84768918D02*
X177728918Y-83850000D01*
X176810000Y-85700000D02*
X176810000Y-84768918D01*
X177728918Y-83850000D02*
X178362742Y-83850000D01*
X176810000Y-85700000D02*
X176810000Y-88940242D01*
D48*
%TO.N,Net-(U2-USB_DP)*%
X142854944Y-86137786D02*
X143233440Y-86516283D01*
D46*
X143516283Y-86516283D02*
X145239376Y-88239376D01*
X143233440Y-86516283D02*
X143516283Y-86516283D01*
%TO.N,Net-(U2-USB_DM)*%
X143639376Y-87487904D02*
X142572101Y-86420629D01*
X142572101Y-86420631D02*
X142572101Y-86420629D01*
X143639376Y-88239376D02*
X143639376Y-87487904D01*
%TO.N,Net-(R5-Pad1)*%
X126875000Y-102275000D02*
X127651000Y-103051000D01*
X127651000Y-103051000D02*
X140027752Y-103051000D01*
X126875000Y-102275000D02*
X122725000Y-102275000D01*
X140027752Y-103051000D02*
X149639376Y-93439376D01*
X149639376Y-93439376D02*
X149639376Y-93449674D01*
%TO.N,Net-(U2-RUN)*%
X133800000Y-81200000D02*
X134400000Y-80600000D01*
X137400000Y-100950000D02*
X136075000Y-102275000D01*
X128400000Y-95400000D02*
X133200000Y-95400000D01*
X135800000Y-81000000D02*
X134800000Y-81000000D01*
D44*
X136785786Y-81200000D02*
X136000000Y-81200000D01*
D46*
X133200000Y-95400000D02*
X137400000Y-99600000D01*
D44*
X137427899Y-81842113D02*
X136785786Y-81200000D01*
D46*
X134800000Y-81000000D02*
X134400000Y-80600000D01*
X137400000Y-99600000D02*
X137400000Y-100950000D01*
X134400000Y-80278752D02*
X136639376Y-78039376D01*
X136000000Y-81200000D02*
X135800000Y-81000000D01*
X134400000Y-80600000D02*
X134400000Y-80278752D01*
X131925000Y-102275000D02*
X136075000Y-102275000D01*
D48*
%TO.N,/QSPI_SD2*%
X145331496Y-84654540D02*
X145331496Y-84654541D01*
D46*
X154164717Y-87800000D02*
X151600000Y-87800000D01*
X145331496Y-84654541D02*
X145213339Y-84536384D01*
X148454541Y-84654541D02*
X145331496Y-84654541D01*
X155550475Y-86414242D02*
X154164717Y-87800000D01*
X151600000Y-87800000D02*
X148454541Y-84654541D01*
D48*
X144834843Y-84157887D02*
X145331496Y-84654540D01*
D44*
%TO.N,/QSPI_SD1*%
X145501181Y-84258541D02*
X148648541Y-84258541D01*
D46*
X155680929Y-85373034D02*
X153753963Y-87300000D01*
X156083995Y-85373034D02*
X155680929Y-85373034D01*
X156591683Y-85880722D02*
X156083995Y-85373034D01*
D44*
X145117685Y-83875045D02*
X145501181Y-84258541D01*
X148648541Y-84258541D02*
X148653541Y-84253541D01*
D46*
X151700000Y-87300000D02*
X148653541Y-84253541D01*
X156591683Y-87169084D02*
X156591683Y-85880722D01*
X156448500Y-87312267D02*
X156591683Y-87169084D01*
X153753963Y-87300000D02*
X151700000Y-87300000D01*
%TO.N,/QSPI_SD0*%
X149578958Y-90589707D02*
X151200000Y-88968665D01*
X148255541Y-85055541D02*
X145166811Y-85055541D01*
X145166811Y-85055541D02*
X144552000Y-84440730D01*
X151200000Y-88000000D02*
X148255541Y-85055541D01*
X151200000Y-88968665D02*
X151200000Y-88000000D01*
D48*
%TO.N,/QSPI_CLK*%
X144269157Y-84723573D02*
X144872792Y-85327208D01*
D46*
X148056541Y-85456541D02*
X150000000Y-87400000D01*
X144647654Y-85102070D02*
X144772792Y-85227208D01*
X145000711Y-85456541D02*
X148056541Y-85456541D01*
X148519194Y-91319194D02*
X149200000Y-92000000D01*
X149200000Y-92000000D02*
X149964717Y-92000000D01*
X148519194Y-90480806D02*
X148519194Y-91319194D01*
X150000000Y-87400000D02*
X150000000Y-89000000D01*
X144772792Y-85227208D02*
X144872792Y-85327208D01*
X149964717Y-92000000D02*
X150476984Y-91487733D01*
X145000711Y-85455127D02*
X145000711Y-85456541D01*
X144872792Y-85327208D02*
X145000711Y-85455127D01*
X150000000Y-89000000D02*
X148519194Y-90480806D01*
%TO.N,/QSPI_SD3*%
X149000000Y-92600000D02*
X147800000Y-91400000D01*
D47*
X144837441Y-85857541D02*
X145000000Y-85857541D01*
D46*
X151160767Y-92600000D02*
X149000000Y-92600000D01*
X149599000Y-87566100D02*
X147890441Y-85857541D01*
X149599000Y-88833900D02*
X149599000Y-87566100D01*
X145000000Y-85857541D02*
X144834611Y-85857541D01*
X147800000Y-90632900D02*
X149599000Y-88833900D01*
X147890441Y-85857541D02*
X145000000Y-85857541D01*
X143986315Y-85006415D02*
X144837441Y-85857541D01*
X147800000Y-91400000D02*
X147800000Y-90632900D01*
X151375009Y-92385758D02*
X151160767Y-92600000D01*
%TO.N,+1V1*%
X143703472Y-85289258D02*
X143233195Y-84818981D01*
X143233195Y-84818981D02*
X143233195Y-84442571D01*
%TO.N,+3V3*%
X141400000Y-86381314D02*
X142005708Y-86987022D01*
X141400000Y-85967159D02*
X141400000Y-86381314D01*
X142748528Y-84900000D02*
X142467159Y-84900000D01*
X143420629Y-85572101D02*
X142748528Y-84900000D01*
X142467159Y-84900000D02*
X141400000Y-85967159D01*
%TO.N,/RST*%
X178313742Y-79801000D02*
X177679918Y-79801000D01*
X178362742Y-79850000D02*
X178313742Y-79801000D01*
%TO.N,/D{slash}C*%
X178362742Y-79350000D02*
X176437140Y-79350000D01*
X176437140Y-79350000D02*
X176239140Y-79548000D01*
X176239140Y-79548000D02*
X175100530Y-79548000D01*
X175100530Y-79548000D02*
X174824265Y-79824265D01*
%TD*%
%TA.AperFunction,Conductor*%
%TO.N,+3V3*%
G36*
X137047015Y-85140289D02*
G01*
X137072752Y-85142935D01*
X137085138Y-85150206D01*
X137089598Y-85151367D01*
X137097133Y-85157248D01*
X137103189Y-85160804D01*
X137108615Y-85165135D01*
X137113309Y-85169829D01*
X137183373Y-85224870D01*
X137183545Y-85224944D01*
X137188687Y-85229049D01*
X137208842Y-85249360D01*
X137264876Y-85320690D01*
X137396472Y-85452286D01*
X137467796Y-85508316D01*
X137488704Y-85529224D01*
X137547329Y-85603850D01*
X137678991Y-85735512D01*
X137751948Y-85792826D01*
X137772855Y-85813732D01*
X137788385Y-85833500D01*
X137830171Y-85886691D01*
X137830173Y-85886693D01*
X137830177Y-85886698D01*
X137961834Y-86018355D01*
X138034791Y-86075669D01*
X138055698Y-86096575D01*
X138083136Y-86131501D01*
X138113014Y-86169534D01*
X138113016Y-86169536D01*
X138113020Y-86169541D01*
X138244677Y-86301198D01*
X138317634Y-86358512D01*
X138338541Y-86379418D01*
X138353361Y-86398282D01*
X138395857Y-86452377D01*
X138395859Y-86452379D01*
X138395863Y-86452384D01*
X138527520Y-86584041D01*
X138600478Y-86641356D01*
X138621385Y-86662262D01*
X138623658Y-86665155D01*
X138678699Y-86735219D01*
X138678701Y-86735221D01*
X138678705Y-86735226D01*
X138810362Y-86866883D01*
X138883319Y-86924197D01*
X138904226Y-86945103D01*
X138915041Y-86958869D01*
X138961542Y-87018062D01*
X138961544Y-87018064D01*
X138961548Y-87018069D01*
X139093205Y-87149726D01*
X139166162Y-87207040D01*
X139187069Y-87227946D01*
X139221267Y-87271477D01*
X139244385Y-87300905D01*
X139244387Y-87300907D01*
X139244391Y-87300912D01*
X139376048Y-87432569D01*
X139449006Y-87489884D01*
X139469913Y-87510790D01*
X139472186Y-87513683D01*
X139527227Y-87583747D01*
X139527229Y-87583749D01*
X139527233Y-87583754D01*
X139658884Y-87715405D01*
X139658888Y-87715408D01*
X139658893Y-87715413D01*
X139728957Y-87770454D01*
X139728960Y-87770455D01*
X139733517Y-87774035D01*
X139754426Y-87794944D01*
X139810460Y-87866274D01*
X139942056Y-87997870D01*
X140012060Y-88052863D01*
X140012063Y-88052865D01*
X140150737Y-88113099D01*
X140300520Y-88133687D01*
X140450303Y-88113099D01*
X140588977Y-88052865D01*
X140588980Y-88052863D01*
X140658984Y-87997870D01*
X141043690Y-87613164D01*
X141105013Y-87579679D01*
X141174704Y-87584663D01*
X141219052Y-87613164D01*
X141603757Y-87997870D01*
X141673761Y-88052863D01*
X141752696Y-88087149D01*
X141806343Y-88131912D01*
X141827273Y-88198574D01*
X141823070Y-88232977D01*
X141799500Y-88320943D01*
X141799500Y-88513330D01*
X141799499Y-88513348D01*
X141799499Y-88679054D01*
X141799498Y-88679054D01*
X141840423Y-88831784D01*
X141840423Y-88831785D01*
X141868091Y-88879708D01*
X141882886Y-88905333D01*
X141897311Y-88944138D01*
X141899500Y-88955633D01*
X141899500Y-88978842D01*
X141930263Y-89133497D01*
X141936014Y-89147382D01*
X141938395Y-89159884D01*
X141936184Y-89182505D01*
X141938612Y-89205108D01*
X141932850Y-89216615D01*
X141931599Y-89229422D01*
X141917508Y-89247257D01*
X141907331Y-89267585D01*
X141904265Y-89270761D01*
X141621577Y-89553449D01*
X141621570Y-89553457D01*
X141603995Y-89574034D01*
X141548805Y-89611174D01*
X140904723Y-89825172D01*
X140834896Y-89827629D01*
X140775750Y-89792929D01*
X140437485Y-89437070D01*
X140418707Y-89411388D01*
X140402087Y-89381155D01*
X140378437Y-89353465D01*
X140378422Y-89353449D01*
X140046542Y-89021570D01*
X140046535Y-89021563D01*
X140030084Y-89007512D01*
X140020753Y-88998665D01*
X139047923Y-87975238D01*
X137354417Y-86193652D01*
X137322497Y-86131501D01*
X137320292Y-86108221D01*
X137320292Y-86079714D01*
X137320291Y-86079706D01*
X137280047Y-85922965D01*
X137202088Y-85781157D01*
X137202087Y-85781155D01*
X137178437Y-85753465D01*
X137178422Y-85753449D01*
X136846550Y-85421577D01*
X136846538Y-85421566D01*
X136846535Y-85421563D01*
X136845461Y-85420645D01*
X136845337Y-85420456D01*
X136844756Y-85419919D01*
X136844821Y-85419848D01*
X136844814Y-85419841D01*
X136844887Y-85419767D01*
X136807269Y-85362140D01*
X136806769Y-85292272D01*
X136844122Y-85233226D01*
X136855724Y-85224189D01*
X136955587Y-85155533D01*
X136980167Y-85147478D01*
X137003249Y-85135790D01*
X137012828Y-85136774D01*
X137021979Y-85133776D01*
X137047015Y-85140289D01*
G37*
%TD.AperFunction*%
%TA.AperFunction,Conductor*%
G36*
X146679387Y-87020185D02*
G01*
X146713905Y-87057154D01*
X146715489Y-87056060D01*
X146719092Y-87061273D01*
X146742736Y-87088956D01*
X146742755Y-87088976D01*
X146926722Y-87272942D01*
X146960207Y-87334265D01*
X146955223Y-87403956D01*
X146926722Y-87448304D01*
X146621577Y-87753449D01*
X146621561Y-87753466D01*
X146597914Y-87781153D01*
X146597911Y-87781157D01*
X146518805Y-87925052D01*
X146498653Y-87945088D01*
X146480810Y-87967208D01*
X146471956Y-87971634D01*
X146469259Y-87974316D01*
X146449241Y-87982990D01*
X146221358Y-88058705D01*
X146151531Y-88061162D01*
X146091461Y-88025479D01*
X146064117Y-87975454D01*
X146064089Y-87975466D01*
X146063998Y-87975238D01*
X146062155Y-87971865D01*
X146062096Y-87971634D01*
X146061219Y-87968218D01*
X146061217Y-87968215D01*
X146061217Y-87968213D01*
X145983868Y-87827516D01*
X145983867Y-87827514D01*
X145960399Y-87800037D01*
X145960384Y-87800021D01*
X145678732Y-87518370D01*
X145678720Y-87518359D01*
X145678715Y-87518354D01*
X145651238Y-87494885D01*
X145555773Y-87442403D01*
X145510534Y-87417532D01*
X145355017Y-87377602D01*
X145355014Y-87377602D01*
X145278199Y-87377602D01*
X145248758Y-87368957D01*
X145218772Y-87362434D01*
X145213756Y-87358679D01*
X145211160Y-87357917D01*
X145190518Y-87341283D01*
X145061416Y-87212181D01*
X145027931Y-87150858D01*
X145032915Y-87081166D01*
X145074787Y-87025233D01*
X145140251Y-87000816D01*
X145149097Y-87000500D01*
X146612348Y-87000500D01*
X146679387Y-87020185D01*
G37*
%TD.AperFunction*%
%TA.AperFunction,Conductor*%
G36*
X142438678Y-84751233D02*
G01*
X142452234Y-84752203D01*
X142469867Y-84765402D01*
X142489920Y-84774513D01*
X142504638Y-84791432D01*
X142508168Y-84794074D01*
X142510500Y-84798169D01*
X142513085Y-84801141D01*
X142519168Y-84810566D01*
X142523801Y-84821750D01*
X142599778Y-84935458D01*
X142600316Y-84936291D01*
X142609961Y-84968902D01*
X142620112Y-85001321D01*
X142619841Y-85002308D01*
X142620132Y-85003292D01*
X142610619Y-85035926D01*
X142601628Y-85068702D01*
X142600865Y-85069386D01*
X142600579Y-85070370D01*
X142572734Y-85101044D01*
X142540675Y-85126228D01*
X142409076Y-85257827D01*
X142353044Y-85329154D01*
X142332137Y-85350061D01*
X142257503Y-85408693D01*
X142125851Y-85540345D01*
X142068531Y-85613310D01*
X142047625Y-85634216D01*
X141974660Y-85691536D01*
X141843008Y-85823188D01*
X141785688Y-85896153D01*
X141764782Y-85917059D01*
X141691817Y-85974379D01*
X141560165Y-86106031D01*
X141501533Y-86180665D01*
X141480626Y-86201572D01*
X141409299Y-86257604D01*
X141277702Y-86389201D01*
X141229200Y-86450943D01*
X141209955Y-86464662D01*
X141193635Y-86481761D01*
X141182028Y-86484570D01*
X141172307Y-86491501D01*
X141148700Y-86492637D01*
X141125727Y-86498199D01*
X141114444Y-86494287D01*
X141102518Y-86494862D01*
X141082042Y-86483054D01*
X141059712Y-86475313D01*
X141046118Y-86462338D01*
X141041991Y-86459958D01*
X141034181Y-86450944D01*
X140990346Y-86395145D01*
X140964411Y-86330267D01*
X140977668Y-86261667D01*
X141006234Y-86226349D01*
X141005982Y-86226097D01*
X141008375Y-86223703D01*
X141009205Y-86222678D01*
X141010280Y-86221794D01*
X141010289Y-86221789D01*
X141121789Y-86110289D01*
X141209394Y-85979179D01*
X141269737Y-85833497D01*
X141275673Y-85803650D01*
X141308055Y-85741742D01*
X141345777Y-85715047D01*
X141404744Y-85688119D01*
X141451427Y-85650500D01*
X142321222Y-84780702D01*
X142340548Y-84770149D01*
X142357168Y-84755692D01*
X142370616Y-84753731D01*
X142382543Y-84747219D01*
X142404512Y-84748790D01*
X142426307Y-84745613D01*
X142438678Y-84751233D01*
G37*
%TD.AperFunction*%
%TA.AperFunction,Conductor*%
G36*
X147830846Y-81871666D02*
G01*
X147875194Y-81900167D01*
X147953449Y-81978422D01*
X147953465Y-81978437D01*
X147981155Y-82002087D01*
X147981157Y-82002088D01*
X148101892Y-82068462D01*
X148122966Y-82080047D01*
X148238967Y-82109831D01*
X148295806Y-82142252D01*
X148549685Y-82396131D01*
X148583170Y-82457454D01*
X148578186Y-82527146D01*
X148549685Y-82571493D01*
X148460589Y-82660589D01*
X148499832Y-82699832D01*
X148533317Y-82761155D01*
X148528333Y-82830847D01*
X148499833Y-82875194D01*
X148421561Y-82953466D01*
X148397914Y-82981153D01*
X148397911Y-82981157D01*
X148319952Y-83122964D01*
X148317398Y-83132914D01*
X148284976Y-83189754D01*
X148068493Y-83406236D01*
X148068494Y-83406237D01*
X148112408Y-83430379D01*
X148161672Y-83479925D01*
X148176328Y-83548240D01*
X148151724Y-83613635D01*
X148095671Y-83655346D01*
X148052670Y-83663041D01*
X146317973Y-83663041D01*
X146250934Y-83643356D01*
X146205179Y-83590552D01*
X146204239Y-83588443D01*
X146184236Y-83542394D01*
X146184234Y-83542390D01*
X146129241Y-83472386D01*
X145744535Y-83087681D01*
X145711050Y-83026358D01*
X145716034Y-82956667D01*
X145744535Y-82912319D01*
X146129241Y-82527613D01*
X146184234Y-82457609D01*
X146184235Y-82457607D01*
X146214600Y-82387700D01*
X146259363Y-82334052D01*
X146326024Y-82313122D01*
X146393419Y-82331553D01*
X146397225Y-82333998D01*
X146468403Y-82381557D01*
X146468412Y-82381562D01*
X146468415Y-82381564D01*
X146468417Y-82381564D01*
X146468421Y-82381567D01*
X146614092Y-82441905D01*
X146614097Y-82441907D01*
X146768747Y-82472669D01*
X146768750Y-82472670D01*
X146768752Y-82472670D01*
X146926438Y-82472670D01*
X146926439Y-82472669D01*
X147081091Y-82441907D01*
X147226773Y-82381564D01*
X147226778Y-82381560D01*
X147231154Y-82379222D01*
X147299556Y-82364976D01*
X147364801Y-82389973D01*
X147406175Y-82446276D01*
X147410541Y-82516009D01*
X147377295Y-82576258D01*
X147286678Y-82666875D01*
X147286678Y-82666876D01*
X147302626Y-82680498D01*
X147302631Y-82680501D01*
X147444327Y-82758399D01*
X147540271Y-82783033D01*
X147600309Y-82818771D01*
X147629538Y-82872300D01*
X147641600Y-82919278D01*
X147641600Y-82919279D01*
X147714939Y-83052682D01*
X147714940Y-83052683D01*
X148067624Y-82699999D01*
X147660589Y-82292964D01*
X147627534Y-82292964D01*
X147622693Y-82291542D01*
X147617755Y-82292578D01*
X147589499Y-82281795D01*
X147560495Y-82273279D01*
X147557192Y-82269467D01*
X147552477Y-82267668D01*
X147534536Y-82243320D01*
X147514740Y-82220475D01*
X147514022Y-82215481D01*
X147511029Y-82211420D01*
X147509099Y-82181245D01*
X147504796Y-82151317D01*
X147506804Y-82145357D01*
X147506570Y-82141693D01*
X147513414Y-82125744D01*
X147519153Y-82108718D01*
X147521616Y-82104285D01*
X147556988Y-82051349D01*
X147574371Y-82009381D01*
X147577827Y-82003165D01*
X147597851Y-81983440D01*
X147615487Y-81961556D01*
X147622407Y-81959252D01*
X147627604Y-81954134D01*
X147650708Y-81949289D01*
X147699831Y-81900167D01*
X147761154Y-81866682D01*
X147830846Y-81871666D01*
G37*
%TD.AperFunction*%
%TD*%
%TA.AperFunction,Conductor*%
%TO.N,GND*%
G36*
X148247653Y-87079834D02*
G01*
X148292000Y-87108335D01*
X148962181Y-87778516D01*
X148995666Y-87839839D01*
X148998500Y-87866197D01*
X148998500Y-88533802D01*
X148978815Y-88600841D01*
X148962181Y-88621483D01*
X147319481Y-90264182D01*
X147319479Y-90264185D01*
X147308939Y-90282441D01*
X147282449Y-90328324D01*
X147240423Y-90401115D01*
X147199499Y-90553843D01*
X147199499Y-90553845D01*
X147199499Y-90721946D01*
X147199500Y-90721959D01*
X147199500Y-91313330D01*
X147199499Y-91313348D01*
X147199499Y-91479054D01*
X147199498Y-91479054D01*
X147199499Y-91479057D01*
X147240288Y-91631282D01*
X147240424Y-91631787D01*
X147246980Y-91643142D01*
X147249502Y-91647511D01*
X147253536Y-91654497D01*
X147253537Y-91654499D01*
X147319477Y-91768712D01*
X147319481Y-91768717D01*
X147438349Y-91887585D01*
X147438355Y-91887590D01*
X148515139Y-92964374D01*
X148515149Y-92964385D01*
X148519479Y-92968715D01*
X148519480Y-92968716D01*
X148631284Y-93080520D01*
X148692026Y-93115589D01*
X148747398Y-93147558D01*
X148795614Y-93198125D01*
X148808837Y-93266732D01*
X148805503Y-93285781D01*
X148777602Y-93394449D01*
X148777602Y-93394452D01*
X148777602Y-93400553D01*
X148757917Y-93467592D01*
X148741283Y-93488234D01*
X139815336Y-102414181D01*
X139754013Y-102447666D01*
X139727655Y-102450500D01*
X137224500Y-102450500D01*
X137215814Y-102447949D01*
X137206853Y-102449238D01*
X137182812Y-102438259D01*
X137157461Y-102430815D01*
X137151533Y-102423974D01*
X137143297Y-102420213D01*
X137129007Y-102397978D01*
X137111706Y-102378011D01*
X137109418Y-102367496D01*
X137105523Y-102361435D01*
X137100500Y-102326500D01*
X137100500Y-102150096D01*
X137120185Y-102083057D01*
X137136815Y-102062419D01*
X137768713Y-101430521D01*
X137768716Y-101430520D01*
X137880520Y-101318716D01*
X137930639Y-101231904D01*
X137959577Y-101181785D01*
X138000501Y-101029057D01*
X138000501Y-100870943D01*
X138000501Y-100863348D01*
X138000500Y-100863330D01*
X138000500Y-99689059D01*
X138000501Y-99689046D01*
X138000501Y-99520945D01*
X138000501Y-99520943D01*
X137959577Y-99368215D01*
X137914976Y-99290964D01*
X137880520Y-99231284D01*
X137768716Y-99119480D01*
X137768715Y-99119479D01*
X137764385Y-99115149D01*
X137764374Y-99115139D01*
X134243396Y-95594161D01*
X134209911Y-95532838D01*
X134214895Y-95463146D01*
X134256767Y-95407213D01*
X134322231Y-95382796D01*
X134331077Y-95382480D01*
X140776883Y-95382480D01*
X140859155Y-95366114D01*
X140899175Y-95358154D01*
X141014374Y-95310437D01*
X141118050Y-95241163D01*
X145492521Y-90866692D01*
X145561795Y-90763016D01*
X145562880Y-90760398D01*
X145582944Y-90711957D01*
X145609512Y-90647817D01*
X145617472Y-90607797D01*
X145633838Y-90525525D01*
X145633838Y-90233969D01*
X145653523Y-90166930D01*
X145670157Y-90146288D01*
X145816945Y-89999500D01*
X145966088Y-89850356D01*
X146022924Y-89817937D01*
X146161072Y-89782467D01*
X146274281Y-89720230D01*
X146301772Y-89705117D01*
X146301772Y-89705116D01*
X146301775Y-89705115D01*
X146329252Y-89681647D01*
X146681646Y-89329252D01*
X146705115Y-89301775D01*
X146782467Y-89161072D01*
X146822398Y-89005551D01*
X146822398Y-88844986D01*
X146809768Y-88795796D01*
X146782467Y-88689465D01*
X146738843Y-88610113D01*
X146709716Y-88557132D01*
X146694670Y-88488903D01*
X146718900Y-88423369D01*
X146740351Y-88401024D01*
X146747381Y-88395332D01*
X146768908Y-88382575D01*
X146807678Y-88346512D01*
X146810979Y-88343840D01*
X146811522Y-88343613D01*
X146814975Y-88340737D01*
X146825703Y-88332754D01*
X146828400Y-88330072D01*
X146828399Y-88330071D01*
X146855061Y-88303560D01*
X146855062Y-88303561D01*
X146868397Y-88290300D01*
X146896090Y-88269569D01*
X147018845Y-88202087D01*
X147046535Y-88178437D01*
X147378437Y-87846535D01*
X147402087Y-87818845D01*
X147474552Y-87687029D01*
X147480045Y-87677038D01*
X147480045Y-87677037D01*
X147480047Y-87677034D01*
X147502055Y-87591315D01*
X147537789Y-87531283D01*
X147591314Y-87502055D01*
X147677034Y-87480047D01*
X147818845Y-87402087D01*
X147846535Y-87378437D01*
X147977400Y-87247572D01*
X148116638Y-87108335D01*
X148177961Y-87074850D01*
X148247653Y-87079834D01*
G37*
%TD.AperFunction*%
%TA.AperFunction,Conductor*%
G36*
X136651794Y-86080774D02*
G01*
X136672431Y-86097403D01*
X136753465Y-86178437D01*
X136781155Y-86202087D01*
X136792988Y-86208592D01*
X136800891Y-86214778D01*
X136815616Y-86235357D01*
X136833462Y-86253305D01*
X136841440Y-86271448D01*
X136841549Y-86271600D01*
X136841554Y-86271706D01*
X136841702Y-86272043D01*
X136851613Y-86300824D01*
X136872834Y-86362443D01*
X136872835Y-86362445D01*
X136904752Y-86424590D01*
X136988026Y-86541916D01*
X136988036Y-86541928D01*
X137683963Y-87274050D01*
X137708649Y-87312028D01*
X137740604Y-87389176D01*
X137740609Y-87389185D01*
X137828210Y-87520288D01*
X137828213Y-87520292D01*
X137939707Y-87631786D01*
X137939711Y-87631789D01*
X138070814Y-87719390D01*
X138070821Y-87719394D01*
X138106672Y-87734244D01*
X138149095Y-87763374D01*
X138657951Y-88298695D01*
X138688180Y-88353288D01*
X138719953Y-88477035D01*
X138797911Y-88618842D01*
X138797914Y-88618846D01*
X138821561Y-88646533D01*
X138821577Y-88646550D01*
X139153449Y-88978422D01*
X139153465Y-88978437D01*
X139181155Y-89002087D01*
X139322966Y-89080047D01*
X139391262Y-89097582D01*
X139406305Y-89106417D01*
X139422590Y-89110394D01*
X139450299Y-89132254D01*
X139472586Y-89155700D01*
X139502816Y-89210293D01*
X139519953Y-89277037D01*
X139597911Y-89418842D01*
X139597914Y-89418846D01*
X139621561Y-89446533D01*
X139621577Y-89446550D01*
X139953449Y-89778422D01*
X139953466Y-89778438D01*
X139956754Y-89781246D01*
X139981155Y-89802087D01*
X139981157Y-89802088D01*
X140088806Y-89861268D01*
X140122966Y-89880047D01*
X140138944Y-89884149D01*
X140197981Y-89918822D01*
X140409359Y-90141194D01*
X140409365Y-90141200D01*
X140519954Y-90228932D01*
X140579100Y-90263632D01*
X140579106Y-90263634D01*
X140579107Y-90263635D01*
X140709621Y-90317360D01*
X140709624Y-90317361D01*
X140852672Y-90332816D01*
X140920311Y-90330435D01*
X140921963Y-90330406D01*
X140922499Y-90330359D01*
X140922502Y-90330359D01*
X140922505Y-90330358D01*
X140922510Y-90330358D01*
X140963452Y-90322992D01*
X141064110Y-90304887D01*
X141600659Y-90126616D01*
X141639757Y-90120292D01*
X141720286Y-90120292D01*
X141720290Y-90120292D01*
X141877034Y-90080047D01*
X142018845Y-90002087D01*
X142046535Y-89978437D01*
X142276241Y-89748731D01*
X142337564Y-89715246D01*
X142407255Y-89720230D01*
X142463189Y-89762101D01*
X142472584Y-89776675D01*
X142519089Y-89861268D01*
X142519092Y-89861272D01*
X142542739Y-89888959D01*
X142542755Y-89888976D01*
X142832201Y-90178422D01*
X142832217Y-90178437D01*
X142859907Y-90202087D01*
X142859909Y-90202088D01*
X143001717Y-90280047D01*
X143158458Y-90320291D01*
X143158462Y-90320292D01*
X143158466Y-90320292D01*
X143320286Y-90320292D01*
X143320290Y-90320292D01*
X143433794Y-90291149D01*
X143503620Y-90293543D01*
X143561069Y-90333309D01*
X143587899Y-90397821D01*
X143575592Y-90466599D01*
X143552310Y-90498934D01*
X140337064Y-93714181D01*
X140275741Y-93747666D01*
X140249383Y-93750500D01*
X111674500Y-93750500D01*
X111607461Y-93730815D01*
X111561706Y-93678011D01*
X111550500Y-93626500D01*
X111550499Y-92848877D01*
X111550498Y-92848876D01*
X111547600Y-92806111D01*
X111501641Y-92621307D01*
X111460159Y-92537665D01*
X111417032Y-92450707D01*
X111417030Y-92450704D01*
X111297722Y-92302278D01*
X111297721Y-92302277D01*
X111228514Y-92246647D01*
X111188595Y-92189304D01*
X111186015Y-92119482D01*
X111221594Y-92059349D01*
X111228514Y-92053353D01*
X111274102Y-92016708D01*
X111297722Y-91997722D01*
X111417030Y-91849296D01*
X111443462Y-91796000D01*
X111504628Y-91672671D01*
X111506535Y-91673617D01*
X111542131Y-91625590D01*
X111607478Y-91600860D01*
X111616916Y-91600500D01*
X114725501Y-91600500D01*
X114792540Y-91620185D01*
X114838295Y-91672989D01*
X114849501Y-91724500D01*
X114849501Y-92458034D01*
X114860113Y-92577415D01*
X114916089Y-92773045D01*
X114916090Y-92773048D01*
X114916091Y-92773049D01*
X115010302Y-92953407D01*
X115022785Y-92968716D01*
X115138890Y-93111109D01*
X115183592Y-93147558D01*
X115296593Y-93239698D01*
X115476951Y-93333909D01*
X115672582Y-93389886D01*
X115791963Y-93400500D01*
X116908036Y-93400499D01*
X117027418Y-93389886D01*
X117223049Y-93333909D01*
X117403407Y-93239698D01*
X117561109Y-93111109D01*
X117689698Y-92953407D01*
X117783909Y-92773049D01*
X117839886Y-92577418D01*
X117850500Y-92458037D01*
X117850499Y-90400095D01*
X117870184Y-90333057D01*
X117886813Y-90312420D01*
X122101827Y-86097408D01*
X122163150Y-86063923D01*
X122189508Y-86061089D01*
X131920943Y-86061089D01*
X132079057Y-86061089D01*
X136584755Y-86061089D01*
X136651794Y-86080774D01*
G37*
%TD.AperFunction*%
%TA.AperFunction,Conductor*%
G36*
X97333039Y-89569685D02*
G01*
X97378794Y-89622489D01*
X97390000Y-89674000D01*
X97390000Y-89675500D01*
X97370315Y-89742539D01*
X97317511Y-89788294D01*
X97266000Y-89799500D01*
X96899295Y-89799500D01*
X96880699Y-89800964D01*
X96873959Y-89799548D01*
X96867297Y-89801292D01*
X96840205Y-89792457D01*
X96812322Y-89786599D01*
X96805831Y-89781246D01*
X96800871Y-89779629D01*
X96781949Y-89761694D01*
X96781262Y-89762382D01*
X96780561Y-89761681D01*
X96779297Y-89759367D01*
X96774894Y-89755736D01*
X96772164Y-89752390D01*
X96772050Y-89752121D01*
X96770557Y-89750174D01*
X96771065Y-89749783D01*
X96760934Y-89725737D01*
X96747076Y-89700358D01*
X96747535Y-89693936D01*
X96745035Y-89688002D01*
X96749996Y-89659513D01*
X96752060Y-89630666D01*
X96755919Y-89625510D01*
X96757024Y-89619169D01*
X96776599Y-89597885D01*
X96793932Y-89574733D01*
X96799964Y-89572483D01*
X96804323Y-89567744D01*
X96832301Y-89560421D01*
X96859396Y-89550316D01*
X96868242Y-89550000D01*
X97266000Y-89550000D01*
X97333039Y-89569685D01*
G37*
%TD.AperFunction*%
%TA.AperFunction,Conductor*%
G36*
X175923967Y-85702486D02*
G01*
X175932699Y-85701198D01*
X175956978Y-85712179D01*
X175982540Y-85719685D01*
X175988318Y-85726354D01*
X175996360Y-85729991D01*
X176010848Y-85752355D01*
X176028295Y-85772489D01*
X176030520Y-85782719D01*
X176034350Y-85788630D01*
X176039500Y-85823546D01*
X176039500Y-85823750D01*
X176039501Y-85949180D01*
X176039982Y-85955294D01*
X176039999Y-85959939D01*
X176040000Y-85960393D01*
X176040000Y-86512843D01*
X176050905Y-86509676D01*
X176120775Y-86509876D01*
X176179445Y-86547819D01*
X176208288Y-86611457D01*
X176209500Y-86628753D01*
X176209500Y-87527639D01*
X176189815Y-87594678D01*
X176137011Y-87640433D01*
X176075775Y-87651257D01*
X176053451Y-87649500D01*
X176053436Y-87649500D01*
X175724500Y-87649500D01*
X175657461Y-87629815D01*
X175611706Y-87577011D01*
X175600500Y-87525500D01*
X175600500Y-85824000D01*
X175620185Y-85756961D01*
X175672989Y-85711206D01*
X175724500Y-85700000D01*
X175915501Y-85700000D01*
X175923967Y-85702486D01*
G37*
%TD.AperFunction*%
%TA.AperFunction,Conductor*%
G36*
X141221069Y-79540448D02*
G01*
X141228879Y-79549461D01*
X141228881Y-79549463D01*
X141277317Y-79611119D01*
X141277319Y-79611121D01*
X141277323Y-79611126D01*
X141408980Y-79742783D01*
X141481938Y-79800098D01*
X141502845Y-79821004D01*
X141505118Y-79823897D01*
X141560159Y-79893961D01*
X141560161Y-79893963D01*
X141560165Y-79893968D01*
X141691822Y-80025625D01*
X141764779Y-80082939D01*
X141785686Y-80103845D01*
X141819884Y-80147376D01*
X141843002Y-80176804D01*
X141843004Y-80176806D01*
X141843008Y-80176811D01*
X141974665Y-80308468D01*
X142047622Y-80365782D01*
X142068529Y-80386688D01*
X142081948Y-80403769D01*
X142125845Y-80459647D01*
X142125847Y-80459649D01*
X142125851Y-80459654D01*
X142257508Y-80591311D01*
X142330466Y-80648626D01*
X142351373Y-80669532D01*
X142367871Y-80690533D01*
X142408687Y-80742489D01*
X142408689Y-80742491D01*
X142408693Y-80742496D01*
X142540350Y-80874153D01*
X142613307Y-80931467D01*
X142634214Y-80952373D01*
X142649601Y-80971959D01*
X142691530Y-81025332D01*
X142691532Y-81025334D01*
X142691536Y-81025339D01*
X142823193Y-81156996D01*
X142896150Y-81214310D01*
X142917057Y-81235216D01*
X142950110Y-81277290D01*
X142974373Y-81308175D01*
X142974375Y-81308177D01*
X142974379Y-81308182D01*
X143106036Y-81439839D01*
X143178993Y-81497153D01*
X143199900Y-81518059D01*
X143234098Y-81561590D01*
X143257216Y-81591018D01*
X143257218Y-81591020D01*
X143257222Y-81591025D01*
X143388879Y-81722682D01*
X143461837Y-81779997D01*
X143482744Y-81800903D01*
X143497499Y-81819685D01*
X143540058Y-81873860D01*
X143540060Y-81873862D01*
X143540064Y-81873867D01*
X143671721Y-82005524D01*
X143744678Y-82062838D01*
X143765585Y-82083744D01*
X143778356Y-82100000D01*
X143822901Y-82156703D01*
X143822903Y-82156705D01*
X143822907Y-82156710D01*
X143954564Y-82288367D01*
X144027521Y-82345681D01*
X144048428Y-82366587D01*
X144076025Y-82401716D01*
X144105744Y-82439546D01*
X144105746Y-82439548D01*
X144105750Y-82439553D01*
X144237407Y-82571210D01*
X144310365Y-82628525D01*
X144331272Y-82649431D01*
X144333545Y-82652324D01*
X144388586Y-82722388D01*
X144388588Y-82722390D01*
X144388592Y-82722395D01*
X144520244Y-82854047D01*
X144520248Y-82854050D01*
X144520252Y-82854054D01*
X144549504Y-82877034D01*
X144581909Y-82902491D01*
X144622466Y-82959385D01*
X144625825Y-83029174D01*
X144590921Y-83089700D01*
X144581909Y-83097509D01*
X144520244Y-83145952D01*
X144388592Y-83277604D01*
X144331272Y-83350568D01*
X144310366Y-83371474D01*
X144237402Y-83428794D01*
X144105750Y-83560446D01*
X144048430Y-83633411D01*
X144033655Y-83649172D01*
X144026072Y-83655963D01*
X144024631Y-83656590D01*
X143954567Y-83711631D01*
X143874149Y-83792048D01*
X143871598Y-83794334D01*
X143843008Y-83807963D01*
X143815221Y-83823136D01*
X143811709Y-83822884D01*
X143808529Y-83824401D01*
X143777104Y-83820409D01*
X143745530Y-83818151D01*
X143740976Y-83815820D01*
X143739216Y-83815597D01*
X143737140Y-83813857D01*
X143719973Y-83805072D01*
X143612380Y-83733180D01*
X143612367Y-83733173D01*
X143466696Y-83672835D01*
X143466684Y-83672832D01*
X143312040Y-83642071D01*
X143312037Y-83642071D01*
X143154353Y-83642071D01*
X143154350Y-83642071D01*
X142999705Y-83672832D01*
X142999693Y-83672835D01*
X142854022Y-83733173D01*
X142854009Y-83733180D01*
X142722906Y-83820781D01*
X142722902Y-83820784D01*
X142611408Y-83932278D01*
X142611405Y-83932282D01*
X142523804Y-84063385D01*
X142523799Y-84063395D01*
X142480128Y-84168827D01*
X142471056Y-84180083D01*
X142466270Y-84193727D01*
X142449571Y-84206745D01*
X142436287Y-84223230D01*
X142421546Y-84228592D01*
X142411167Y-84236685D01*
X142386109Y-84241486D01*
X142376833Y-84244861D01*
X142371321Y-84245363D01*
X142353392Y-84245399D01*
X142331597Y-84248576D01*
X142331656Y-84248982D01*
X142320701Y-84249982D01*
X142320486Y-84249939D01*
X142318281Y-84250179D01*
X142275114Y-84253266D01*
X142275112Y-84253266D01*
X142215509Y-84275493D01*
X142207354Y-84278216D01*
X142146302Y-84296273D01*
X142146292Y-84296277D01*
X142109924Y-84319746D01*
X142109925Y-84319747D01*
X142098597Y-84327058D01*
X142098284Y-84326484D01*
X142078958Y-84337037D01*
X142052841Y-84356587D01*
X142049214Y-84358928D01*
X142049212Y-84358928D01*
X142025413Y-84374290D01*
X142025395Y-84374303D01*
X142005487Y-84391620D01*
X141998422Y-84397324D01*
X141963791Y-84423249D01*
X141963771Y-84423267D01*
X141138041Y-85248999D01*
X141112204Y-85268795D01*
X141053774Y-85302415D01*
X141016047Y-85329115D01*
X140944281Y-85390745D01*
X140860129Y-85507448D01*
X140827750Y-85569352D01*
X140827748Y-85569356D01*
X140827739Y-85569378D01*
X140804458Y-85635376D01*
X140802082Y-85641578D01*
X140766099Y-85728449D01*
X140754641Y-85749886D01*
X140735923Y-85777900D01*
X140720500Y-85796693D01*
X140687162Y-85830030D01*
X140687131Y-85830046D01*
X140650796Y-85866397D01*
X140650774Y-85866419D01*
X140639237Y-85877955D01*
X140577913Y-85911437D01*
X140508221Y-85906450D01*
X140454052Y-85866873D01*
X140419740Y-85823196D01*
X140419735Y-85823191D01*
X140419732Y-85823187D01*
X140288081Y-85691536D01*
X140288076Y-85691532D01*
X140288074Y-85691530D01*
X140264543Y-85673045D01*
X140232222Y-85647653D01*
X140226971Y-85640288D01*
X140219138Y-85635772D01*
X140207010Y-85612285D01*
X140191665Y-85590759D01*
X140191230Y-85581726D01*
X140187081Y-85573691D01*
X140189576Y-85547372D01*
X140188306Y-85520970D01*
X140192997Y-85511297D01*
X140193677Y-85504133D01*
X140211304Y-85473556D01*
X140214242Y-85469815D01*
X140224082Y-85458722D01*
X140228460Y-85454344D01*
X140228547Y-85454263D01*
X140231580Y-85451225D01*
X140231585Y-85451222D01*
X140232334Y-85450472D01*
X140232333Y-85450471D01*
X140233652Y-85449151D01*
X140235651Y-85447152D01*
X140235652Y-85447153D01*
X140334130Y-85348675D01*
X140334138Y-85348664D01*
X140334141Y-85348662D01*
X140401938Y-85264531D01*
X140401938Y-85264530D01*
X140401942Y-85264526D01*
X140430442Y-85220179D01*
X140478817Y-85123537D01*
X140478818Y-85123530D01*
X140478820Y-85123527D01*
X140509398Y-84982956D01*
X140509398Y-84982953D01*
X140509400Y-84982945D01*
X140514384Y-84913253D01*
X140504120Y-84769742D01*
X140453838Y-84634933D01*
X140420353Y-84573610D01*
X140420351Y-84573607D01*
X140334135Y-84458435D01*
X140334119Y-84458417D01*
X139566562Y-83690861D01*
X139566557Y-83690857D01*
X139566554Y-83690854D01*
X139461940Y-83610566D01*
X139418972Y-83585748D01*
X139406396Y-83578484D01*
X139406388Y-83578480D01*
X139284583Y-83527989D01*
X139198641Y-83517681D01*
X139141725Y-83510855D01*
X139141724Y-83510855D01*
X139141716Y-83510854D01*
X139074952Y-83512419D01*
X139073325Y-83512458D01*
X139072103Y-83512472D01*
X139071863Y-83512492D01*
X138929987Y-83536297D01*
X138929983Y-83536298D01*
X138929974Y-83536300D01*
X138929973Y-83536301D01*
X138910413Y-83542546D01*
X138790401Y-83580862D01*
X138790395Y-83580864D01*
X138785520Y-83582421D01*
X138785499Y-83582428D01*
X138768084Y-83587989D01*
X138701146Y-83614760D01*
X138669393Y-83630170D01*
X138656538Y-83637582D01*
X138653616Y-83639089D01*
X138652016Y-83640089D01*
X138652009Y-83640093D01*
X138651887Y-83640170D01*
X138648077Y-83642459D01*
X138607072Y-83666105D01*
X138603548Y-83668675D01*
X138590196Y-83678786D01*
X138582333Y-83683708D01*
X138582331Y-83683710D01*
X138531835Y-83734201D01*
X138527501Y-83738330D01*
X138514010Y-83750576D01*
X138451141Y-83781059D01*
X138381771Y-83772713D01*
X138342987Y-83746442D01*
X138308182Y-83711637D01*
X138308177Y-83711633D01*
X138308175Y-83711631D01*
X138272617Y-83683697D01*
X138235216Y-83654315D01*
X138214310Y-83633408D01*
X138156996Y-83560451D01*
X138025339Y-83428794D01*
X138025334Y-83428790D01*
X138025332Y-83428788D01*
X137955268Y-83373747D01*
X137952375Y-83371474D01*
X137931469Y-83350567D01*
X137874154Y-83277609D01*
X137742497Y-83145952D01*
X137742492Y-83145948D01*
X137742490Y-83145946D01*
X137704754Y-83116301D01*
X137680832Y-83097508D01*
X137640275Y-83040614D01*
X137636916Y-82970825D01*
X137671820Y-82910299D01*
X137680823Y-82902497D01*
X137742490Y-82854054D01*
X137874156Y-82722388D01*
X137929197Y-82652324D01*
X137929199Y-82652318D01*
X137931466Y-82649433D01*
X137952377Y-82628522D01*
X137955262Y-82626255D01*
X137955268Y-82626253D01*
X138025332Y-82571212D01*
X138156998Y-82439546D01*
X138212039Y-82369482D01*
X138212040Y-82369479D01*
X138214310Y-82366590D01*
X138235219Y-82345681D01*
X138238108Y-82343411D01*
X138238111Y-82343410D01*
X138308175Y-82288369D01*
X138439841Y-82156703D01*
X138494882Y-82086639D01*
X138494883Y-82086636D01*
X138497153Y-82083747D01*
X138518062Y-82062838D01*
X138520951Y-82060568D01*
X138520954Y-82060567D01*
X138591018Y-82005526D01*
X138722684Y-81873860D01*
X138777725Y-81803796D01*
X138777727Y-81803790D01*
X138779994Y-81800905D01*
X138800905Y-81779994D01*
X138803790Y-81777727D01*
X138803796Y-81777725D01*
X138873860Y-81722684D01*
X139005526Y-81591018D01*
X139060567Y-81520954D01*
X139060568Y-81520951D01*
X139062838Y-81518062D01*
X139083747Y-81497153D01*
X139086636Y-81494883D01*
X139086639Y-81494882D01*
X139156703Y-81439841D01*
X139288369Y-81308175D01*
X139343410Y-81238111D01*
X139343411Y-81238108D01*
X139345681Y-81235219D01*
X139366590Y-81214310D01*
X139369479Y-81212040D01*
X139369482Y-81212039D01*
X139439546Y-81156998D01*
X139571212Y-81025332D01*
X139626253Y-80955268D01*
X139626254Y-80955265D01*
X139628524Y-80952376D01*
X139649433Y-80931467D01*
X139652322Y-80929197D01*
X139652325Y-80929196D01*
X139722389Y-80874155D01*
X139854055Y-80742489D01*
X139909096Y-80672425D01*
X139909098Y-80672419D01*
X139911365Y-80669534D01*
X139932276Y-80648623D01*
X139935161Y-80646356D01*
X139935167Y-80646354D01*
X140005231Y-80591313D01*
X140136897Y-80459647D01*
X140191938Y-80389583D01*
X140191939Y-80389580D01*
X140194209Y-80386691D01*
X140215118Y-80365782D01*
X140218007Y-80363512D01*
X140218010Y-80363511D01*
X140288074Y-80308470D01*
X140419740Y-80176804D01*
X140474781Y-80106740D01*
X140474782Y-80106737D01*
X140477052Y-80103848D01*
X140497961Y-80082939D01*
X140500850Y-80080669D01*
X140500853Y-80080668D01*
X140570917Y-80025627D01*
X140702583Y-79893961D01*
X140757624Y-79823897D01*
X140757626Y-79823891D01*
X140759893Y-79821006D01*
X140780804Y-79800095D01*
X140783689Y-79797828D01*
X140783695Y-79797826D01*
X140853759Y-79742785D01*
X140985425Y-79611119D01*
X141033861Y-79549461D01*
X141090753Y-79508905D01*
X141160542Y-79505544D01*
X141221069Y-79540448D01*
G37*
%TD.AperFunction*%
%TA.AperFunction,Conductor*%
G36*
X175646927Y-81802550D02*
G01*
X175655889Y-81801262D01*
X175679929Y-81812240D01*
X175705281Y-81819685D01*
X175711208Y-81826525D01*
X175719445Y-81830287D01*
X175733734Y-81852521D01*
X175751036Y-81872489D01*
X175753323Y-81883003D01*
X175757219Y-81889065D01*
X175762242Y-81924000D01*
X175762242Y-82034697D01*
X175765098Y-82070991D01*
X175765099Y-82070997D01*
X175810246Y-82226391D01*
X175810249Y-82226399D01*
X175815474Y-82235233D01*
X175819824Y-82251134D01*
X175827719Y-82263419D01*
X175832742Y-82298354D01*
X175832742Y-82301646D01*
X175815476Y-82364764D01*
X175810249Y-82373601D01*
X175810246Y-82373610D01*
X175765099Y-82529002D01*
X175765098Y-82529008D01*
X175762242Y-82565302D01*
X175762242Y-83034697D01*
X175765098Y-83070991D01*
X175765099Y-83070997D01*
X175810245Y-83226389D01*
X175810247Y-83226393D01*
X175810248Y-83226395D01*
X175815474Y-83235233D01*
X175819824Y-83251132D01*
X175827719Y-83263417D01*
X175832742Y-83298352D01*
X175832742Y-83401925D01*
X175827818Y-83436520D01*
X175805078Y-83514789D01*
X175805076Y-83514802D01*
X175802242Y-83550811D01*
X175802242Y-83676000D01*
X175799691Y-83684685D01*
X175800980Y-83693647D01*
X175790001Y-83717687D01*
X175782557Y-83743039D01*
X175775716Y-83748966D01*
X175771955Y-83757203D01*
X175749720Y-83771492D01*
X175729753Y-83788794D01*
X175719238Y-83791081D01*
X175713177Y-83794977D01*
X175678242Y-83800000D01*
X175598242Y-83800000D01*
X175531203Y-83780315D01*
X175485448Y-83727511D01*
X175474242Y-83676000D01*
X175474242Y-83082510D01*
X175474243Y-83082497D01*
X175474243Y-82914395D01*
X175474243Y-82914393D01*
X175452785Y-82834313D01*
X175443591Y-82799999D01*
X175443591Y-82799998D01*
X175433321Y-82761672D01*
X175433320Y-82761669D01*
X175433319Y-82761666D01*
X175433315Y-82761659D01*
X175350199Y-82617695D01*
X175352960Y-82616100D01*
X175333172Y-82564909D01*
X175332742Y-82554596D01*
X175332742Y-81924000D01*
X175352427Y-81856961D01*
X175405231Y-81811206D01*
X175456742Y-81800000D01*
X175638242Y-81800000D01*
X175646927Y-81802550D01*
G37*
%TD.AperFunction*%
%TA.AperFunction,Conductor*%
G36*
X136327144Y-79342991D02*
G01*
X136371492Y-79371492D01*
X136499832Y-79499832D01*
X136533317Y-79561155D01*
X136528333Y-79630847D01*
X136499833Y-79675194D01*
X136421561Y-79753466D01*
X136397912Y-79781156D01*
X136397911Y-79781157D01*
X136393190Y-79789744D01*
X136343641Y-79839004D01*
X136331985Y-79844560D01*
X136220824Y-79890604D01*
X136220814Y-79890609D01*
X136089711Y-79978210D01*
X136089707Y-79978213D01*
X135978213Y-80089707D01*
X135978210Y-80089711D01*
X135890609Y-80220814D01*
X135890607Y-80220818D01*
X135890606Y-80220821D01*
X135848301Y-80322954D01*
X135835761Y-80338515D01*
X135827459Y-80356697D01*
X135814287Y-80365162D01*
X135804463Y-80377354D01*
X135785498Y-80383666D01*
X135768683Y-80394474D01*
X135741119Y-80398438D01*
X135738169Y-80399420D01*
X135733748Y-80399499D01*
X135720943Y-80399499D01*
X135720940Y-80399499D01*
X135713337Y-80399500D01*
X135713335Y-80399499D01*
X135713331Y-80399500D01*
X135427848Y-80399500D01*
X135360809Y-80379815D01*
X135315054Y-80327011D01*
X135305110Y-80257853D01*
X135334135Y-80194297D01*
X135340141Y-80187845D01*
X135636435Y-79891551D01*
X135697750Y-79858071D01*
X135709998Y-79857624D01*
X136196130Y-79371492D01*
X136257453Y-79338007D01*
X136327144Y-79342991D01*
G37*
%TD.AperFunction*%
%TA.AperFunction,Conductor*%
G36*
X175605703Y-75225510D02*
G01*
X175643477Y-75284288D01*
X175643576Y-75284628D01*
X175684761Y-75426389D01*
X175684763Y-75426393D01*
X175684764Y-75426395D01*
X175689990Y-75435233D01*
X175694340Y-75451132D01*
X175702235Y-75463417D01*
X175707258Y-75498352D01*
X175707258Y-75601645D01*
X175689992Y-75664763D01*
X175684765Y-75673600D01*
X175684762Y-75673608D01*
X175639615Y-75829002D01*
X175639614Y-75829008D01*
X175636758Y-75865302D01*
X175636758Y-76334697D01*
X175639614Y-76370991D01*
X175639615Y-76370997D01*
X175684762Y-76526391D01*
X175684765Y-76526399D01*
X175689990Y-76535233D01*
X175694340Y-76551134D01*
X175702235Y-76563419D01*
X175707258Y-76598354D01*
X175707258Y-76601646D01*
X175689992Y-76664764D01*
X175684765Y-76673601D01*
X175684762Y-76673610D01*
X175639615Y-76829002D01*
X175639614Y-76829008D01*
X175636758Y-76865302D01*
X175636758Y-76976000D01*
X175617073Y-77043039D01*
X175564269Y-77088794D01*
X175512758Y-77100000D01*
X175457258Y-77100000D01*
X175457258Y-77195444D01*
X175453876Y-77206961D01*
X175455017Y-77218910D01*
X175444214Y-77239864D01*
X175437573Y-77262483D01*
X175427702Y-77271894D01*
X175423002Y-77281013D01*
X175395259Y-77302830D01*
X175342336Y-77333386D01*
X175280335Y-77350000D01*
X174890000Y-77350000D01*
X174865328Y-77374672D01*
X174804004Y-77408156D01*
X174798598Y-77409098D01*
X174725065Y-77428802D01*
X174661721Y-77445775D01*
X174629629Y-77450000D01*
X174104000Y-77450000D01*
X174036961Y-77430315D01*
X173991206Y-77377511D01*
X173980000Y-77326000D01*
X173980000Y-77200000D01*
X173924500Y-77200000D01*
X173857461Y-77180315D01*
X173811706Y-77127511D01*
X173800500Y-77076000D01*
X173800500Y-76965310D01*
X173800499Y-76965302D01*
X173800295Y-76962713D01*
X173799295Y-76950000D01*
X174230000Y-76950000D01*
X174547258Y-76950000D01*
X174557234Y-76940023D01*
X174566943Y-76906961D01*
X174619747Y-76861206D01*
X174671258Y-76850000D01*
X175207258Y-76850000D01*
X175207258Y-76350000D01*
X174618620Y-76350000D01*
X174610851Y-76347718D01*
X174605765Y-76347979D01*
X174410250Y-76330000D01*
X174230000Y-76330000D01*
X174230000Y-76950000D01*
X173799295Y-76950000D01*
X173797643Y-76929007D01*
X173795300Y-76920943D01*
X173764400Y-76814587D01*
X173752494Y-76773605D01*
X173670117Y-76634313D01*
X173670115Y-76634311D01*
X173670112Y-76634307D01*
X173586319Y-76550514D01*
X173552834Y-76489191D01*
X173550000Y-76462833D01*
X173550000Y-76204000D01*
X173569685Y-76136961D01*
X173622489Y-76091206D01*
X173674000Y-76080000D01*
X173800000Y-76080000D01*
X173800000Y-76024500D01*
X173802550Y-76015814D01*
X173801262Y-76006853D01*
X173812240Y-75982812D01*
X173819685Y-75957461D01*
X173826525Y-75951533D01*
X173830287Y-75943297D01*
X173852521Y-75929007D01*
X173872489Y-75911706D01*
X173883003Y-75909418D01*
X173889065Y-75905523D01*
X173924000Y-75900500D01*
X174020234Y-75900500D01*
X174087273Y-75920185D01*
X174089125Y-75921398D01*
X174220814Y-76009390D01*
X174220827Y-76009397D01*
X174366498Y-76069735D01*
X174366503Y-76069737D01*
X174407126Y-76077817D01*
X174433757Y-76083115D01*
X174433759Y-76083115D01*
X174521158Y-76100500D01*
X174622809Y-76100500D01*
X174678844Y-76100500D01*
X174678845Y-76100499D01*
X174833497Y-76069737D01*
X174979179Y-76009394D01*
X175110289Y-75921789D01*
X175221789Y-75810289D01*
X175309394Y-75679179D01*
X175369737Y-75533497D01*
X175400500Y-75378842D01*
X175400500Y-75319223D01*
X175420185Y-75252184D01*
X175472989Y-75206429D01*
X175542147Y-75196485D01*
X175605703Y-75225510D01*
G37*
%TD.AperFunction*%
%TA.AperFunction,Conductor*%
G36*
X175642539Y-73520185D02*
G01*
X175688294Y-73572989D01*
X175699500Y-73624500D01*
X175699500Y-73625500D01*
X175679815Y-73692539D01*
X175627011Y-73738294D01*
X175575500Y-73749500D01*
X173370941Y-73749500D01*
X173353808Y-73754090D01*
X173353809Y-73754091D01*
X173218214Y-73790423D01*
X173218209Y-73790426D01*
X173081290Y-73869475D01*
X173081282Y-73869481D01*
X172419479Y-74531284D01*
X172397960Y-74568557D01*
X172388864Y-74584313D01*
X172340423Y-74668215D01*
X172299499Y-74820943D01*
X172299499Y-74820945D01*
X172299499Y-74989046D01*
X172299500Y-74989059D01*
X172299500Y-76720209D01*
X172294893Y-76753695D01*
X172290935Y-76767806D01*
X172287506Y-76773605D01*
X172242357Y-76929007D01*
X172241044Y-76945689D01*
X172237769Y-76957367D01*
X172225407Y-76977125D01*
X172217106Y-76998904D01*
X172207223Y-77006191D01*
X172200712Y-77016600D01*
X172179631Y-77026538D01*
X172160872Y-77040372D01*
X172148617Y-77041159D01*
X172137513Y-77046395D01*
X172114405Y-77043358D01*
X172091146Y-77044854D01*
X172080412Y-77038892D01*
X172068239Y-77037293D01*
X172050441Y-77022245D01*
X172030066Y-77010929D01*
X172024259Y-77000110D01*
X172014883Y-76992183D01*
X172008045Y-76969902D01*
X171997023Y-76949366D01*
X171994757Y-76933600D01*
X171994402Y-76929085D01*
X171949288Y-76773803D01*
X171866979Y-76634625D01*
X171866972Y-76634616D01*
X171752641Y-76520285D01*
X171752632Y-76520278D01*
X171613451Y-76437967D01*
X171613448Y-76437965D01*
X171467259Y-76395493D01*
X171467258Y-76395494D01*
X171467258Y-77076000D01*
X171464707Y-77084685D01*
X171465996Y-77093647D01*
X171455017Y-77117687D01*
X171447573Y-77143039D01*
X171440732Y-77148966D01*
X171436971Y-77157203D01*
X171414736Y-77171492D01*
X171394769Y-77188794D01*
X171384254Y-77191081D01*
X171378193Y-77194977D01*
X171343258Y-77200000D01*
X171161758Y-77200000D01*
X171094719Y-77180315D01*
X171048964Y-77127511D01*
X171037758Y-77076000D01*
X171037758Y-76965310D01*
X171037757Y-76965302D01*
X171037553Y-76962713D01*
X171034901Y-76929007D01*
X171032558Y-76920943D01*
X170989753Y-76773608D01*
X170989750Y-76773600D01*
X170984524Y-76764763D01*
X170967258Y-76701645D01*
X170967258Y-76395494D01*
X170967256Y-76395493D01*
X170896353Y-76416093D01*
X170826484Y-76415894D01*
X170767814Y-76377952D01*
X170738970Y-76314314D01*
X170737758Y-76297017D01*
X170737758Y-75362839D01*
X170757443Y-75295800D01*
X170774077Y-75275158D01*
X172512416Y-73536819D01*
X172573739Y-73503334D01*
X172600097Y-73500500D01*
X175575500Y-73500500D01*
X175642539Y-73520185D01*
G37*
%TD.AperFunction*%
%TA.AperFunction,Conductor*%
G36*
X139380219Y-75572842D02*
G01*
X139426248Y-75618597D01*
X139458007Y-75673605D01*
X139483482Y-75717729D01*
X139534322Y-75768568D01*
X139549026Y-75795496D01*
X139565619Y-75821315D01*
X139566510Y-75827514D01*
X139567808Y-75829891D01*
X139570642Y-75856250D01*
X139570642Y-75905831D01*
X139550957Y-75972870D01*
X139534327Y-75993507D01*
X139452987Y-76074848D01*
X139378183Y-76149652D01*
X139316860Y-76183136D01*
X139247168Y-76178152D01*
X139191235Y-76136280D01*
X139166818Y-76070816D01*
X139168885Y-76037778D01*
X139171527Y-76024500D01*
X139187679Y-75943297D01*
X139200500Y-75878844D01*
X139200500Y-75721158D01*
X139199818Y-75717729D01*
X139197244Y-75704789D01*
X139203470Y-75635199D01*
X139246332Y-75580021D01*
X139312221Y-75556775D01*
X139380219Y-75572842D01*
G37*
%TD.AperFunction*%
%TA.AperFunction,Conductor*%
G36*
X194691474Y-53500501D02*
G01*
X194753887Y-53500500D01*
X194760839Y-53500695D01*
X195030284Y-53515823D01*
X195044078Y-53517377D01*
X195306699Y-53561995D01*
X195320246Y-53565086D01*
X195342036Y-53571364D01*
X195576209Y-53638825D01*
X195589334Y-53643417D01*
X195658380Y-53672016D01*
X195835440Y-53745354D01*
X195847962Y-53751384D01*
X196081103Y-53880234D01*
X196092866Y-53887624D01*
X196298786Y-54033730D01*
X196310108Y-54041763D01*
X196320977Y-54050429D01*
X196521825Y-54229914D01*
X196526880Y-54234694D01*
X198752282Y-56460095D01*
X198764955Y-56472769D01*
X198769718Y-56477808D01*
X198949530Y-56679031D01*
X198958199Y-56689902D01*
X199037596Y-56801806D01*
X199112337Y-56907148D01*
X199119731Y-56918916D01*
X199248583Y-57152065D01*
X199254615Y-57164592D01*
X199356545Y-57410677D01*
X199361138Y-57423801D01*
X199434880Y-57679764D01*
X199437974Y-57693320D01*
X199482595Y-57955928D01*
X199484152Y-57969745D01*
X199499305Y-58239483D01*
X199499500Y-58246438D01*
X199499500Y-99691470D01*
X199499499Y-99691474D01*
X199499499Y-99710039D01*
X199499499Y-99720307D01*
X199499499Y-99753888D01*
X199499304Y-99760839D01*
X199484177Y-100030272D01*
X199482620Y-100044090D01*
X199438005Y-100306694D01*
X199434911Y-100320251D01*
X199361174Y-100576209D01*
X199356582Y-100589334D01*
X199254647Y-100835436D01*
X199248613Y-100847965D01*
X199119769Y-101081097D01*
X199112371Y-101092871D01*
X198958232Y-101310113D01*
X198949562Y-101320985D01*
X198770084Y-101521825D01*
X198765306Y-101526879D01*
X198720818Y-101571368D01*
X198720815Y-101571371D01*
X196527228Y-103764955D01*
X196522171Y-103769736D01*
X196320968Y-103949530D01*
X196310097Y-103958199D01*
X196092857Y-104112333D01*
X196081083Y-104119731D01*
X195847934Y-104248583D01*
X195835407Y-104254615D01*
X195589322Y-104356545D01*
X195576198Y-104361138D01*
X195320235Y-104434880D01*
X195306679Y-104437974D01*
X195044071Y-104482595D01*
X195030254Y-104484152D01*
X194760517Y-104499305D01*
X194753562Y-104499500D01*
X95316134Y-104499500D01*
X95308529Y-104499499D01*
X95308526Y-104499499D01*
X95278266Y-104499499D01*
X95246109Y-104499499D01*
X95246108Y-104499498D01*
X95239160Y-104499304D01*
X94969727Y-104484177D01*
X94955909Y-104482620D01*
X94693305Y-104438005D01*
X94679748Y-104434911D01*
X94423790Y-104361174D01*
X94410665Y-104356582D01*
X94164563Y-104254647D01*
X94152034Y-104248613D01*
X93918902Y-104119769D01*
X93907128Y-104112371D01*
X93907074Y-104112333D01*
X93689890Y-103958235D01*
X93679019Y-103949567D01*
X93478183Y-103770093D01*
X93473130Y-103765315D01*
X93448710Y-103740896D01*
X93428631Y-103720817D01*
X93428628Y-103720815D01*
X91235061Y-101527247D01*
X91230282Y-101522192D01*
X91050459Y-101320966D01*
X91041794Y-101310101D01*
X90887643Y-101092842D01*
X90880258Y-101081087D01*
X90751410Y-100847949D01*
X90745378Y-100835423D01*
X90643444Y-100589324D01*
X90638852Y-100576199D01*
X90565116Y-100320244D01*
X90562023Y-100306696D01*
X90517405Y-100044072D01*
X90515851Y-100030281D01*
X90500694Y-99760316D01*
X90500500Y-99753378D01*
X90500500Y-99727600D01*
X121700000Y-99727600D01*
X121700000Y-100522399D01*
X121702865Y-100558806D01*
X121702866Y-100558812D01*
X121748155Y-100714694D01*
X121748157Y-100714699D01*
X121760639Y-100735806D01*
X121760640Y-100735807D01*
X122371448Y-100125000D01*
X122371447Y-100124999D01*
X123078552Y-100124999D01*
X123078552Y-100125001D01*
X123689358Y-100735807D01*
X123701844Y-100714694D01*
X123701845Y-100714691D01*
X123747133Y-100558812D01*
X123747134Y-100558806D01*
X123749999Y-100522399D01*
X123750000Y-100522384D01*
X123750000Y-99727615D01*
X123749999Y-99727600D01*
X125850000Y-99727600D01*
X125850000Y-100522399D01*
X125852865Y-100558806D01*
X125852866Y-100558812D01*
X125898155Y-100714694D01*
X125898157Y-100714699D01*
X125910639Y-100735806D01*
X125910640Y-100735807D01*
X126521448Y-100125000D01*
X126521447Y-100124999D01*
X127228552Y-100124999D01*
X127228552Y-100125000D01*
X127839358Y-100735807D01*
X127851844Y-100714694D01*
X127851845Y-100714691D01*
X127897133Y-100558812D01*
X127897134Y-100558806D01*
X127899999Y-100522399D01*
X127900000Y-100522384D01*
X127900000Y-99727615D01*
X127899999Y-99727600D01*
X130900000Y-99727600D01*
X130900000Y-100522399D01*
X130902865Y-100558806D01*
X130902866Y-100558812D01*
X130948155Y-100714694D01*
X130948157Y-100714699D01*
X130960639Y-100735806D01*
X130960640Y-100735807D01*
X131571448Y-100125000D01*
X131571447Y-100124999D01*
X132278552Y-100124999D01*
X132278552Y-100125000D01*
X132889358Y-100735807D01*
X132901844Y-100714694D01*
X132901845Y-100714691D01*
X132947133Y-100558812D01*
X132947134Y-100558806D01*
X132949999Y-100522399D01*
X132950000Y-100522384D01*
X132950000Y-99727615D01*
X132949999Y-99727600D01*
X135050000Y-99727600D01*
X135050000Y-100522399D01*
X135052865Y-100558806D01*
X135052866Y-100558812D01*
X135098155Y-100714694D01*
X135098157Y-100714699D01*
X135110639Y-100735806D01*
X135110640Y-100735807D01*
X135721448Y-100125000D01*
X135110640Y-99514192D01*
X135110639Y-99514192D01*
X135098156Y-99535303D01*
X135098155Y-99535306D01*
X135052866Y-99691187D01*
X135052865Y-99691193D01*
X135050000Y-99727600D01*
X132949999Y-99727600D01*
X132947134Y-99691193D01*
X132947133Y-99691187D01*
X132901844Y-99535305D01*
X132889359Y-99514192D01*
X132278552Y-100124999D01*
X131571447Y-100124999D01*
X130960640Y-99514192D01*
X130960639Y-99514192D01*
X130948156Y-99535303D01*
X130948155Y-99535306D01*
X130902866Y-99691187D01*
X130902865Y-99691193D01*
X130900000Y-99727600D01*
X127899999Y-99727600D01*
X127897134Y-99691193D01*
X127897133Y-99691187D01*
X127851844Y-99535305D01*
X127839359Y-99514192D01*
X127228552Y-100124999D01*
X126521447Y-100124999D01*
X125910640Y-99514192D01*
X125910639Y-99514192D01*
X125898156Y-99535303D01*
X125898155Y-99535306D01*
X125852866Y-99691187D01*
X125852865Y-99691193D01*
X125850000Y-99727600D01*
X123749999Y-99727600D01*
X123747134Y-99691193D01*
X123747133Y-99691187D01*
X123701844Y-99535305D01*
X123689359Y-99514192D01*
X123078552Y-100124999D01*
X122371447Y-100124999D01*
X121760640Y-99514192D01*
X121760639Y-99514192D01*
X121748156Y-99535303D01*
X121748155Y-99535306D01*
X121702866Y-99691187D01*
X121702865Y-99691193D01*
X121700000Y-99727600D01*
X90500500Y-99727600D01*
X90500501Y-99691474D01*
X90500500Y-99691470D01*
X90500500Y-99183206D01*
X122136757Y-99183206D01*
X122725000Y-99771448D01*
X122725001Y-99771448D01*
X123313241Y-99183206D01*
X126286757Y-99183206D01*
X126875000Y-99771448D01*
X126875001Y-99771448D01*
X127463241Y-99183206D01*
X131336757Y-99183206D01*
X131925000Y-99771448D01*
X131925001Y-99771448D01*
X132513241Y-99183206D01*
X132408807Y-99152866D01*
X132408801Y-99152865D01*
X132372399Y-99150000D01*
X131477600Y-99150000D01*
X131441198Y-99152865D01*
X131441191Y-99152866D01*
X131336757Y-99183206D01*
X127463241Y-99183206D01*
X127358807Y-99152866D01*
X127358801Y-99152865D01*
X127322399Y-99150000D01*
X126427600Y-99150000D01*
X126391198Y-99152865D01*
X126391191Y-99152866D01*
X126286757Y-99183206D01*
X123313241Y-99183206D01*
X123208807Y-99152866D01*
X123208801Y-99152865D01*
X123172399Y-99150000D01*
X122277600Y-99150000D01*
X122241198Y-99152865D01*
X122241191Y-99152866D01*
X122136757Y-99183206D01*
X90500500Y-99183206D01*
X90500500Y-97070000D01*
X91265138Y-97070000D01*
X92068012Y-97070000D01*
X92050795Y-97079940D01*
X91994940Y-97135795D01*
X91955444Y-97204204D01*
X91935000Y-97280504D01*
X91935000Y-97359496D01*
X91955444Y-97435796D01*
X91994940Y-97504205D01*
X92050795Y-97560060D01*
X92068012Y-97570000D01*
X91265138Y-97570000D01*
X91273430Y-97611690D01*
X91273430Y-97611692D01*
X91348807Y-97793671D01*
X91348814Y-97793684D01*
X91458248Y-97957462D01*
X91458251Y-97957466D01*
X91597533Y-98096748D01*
X91597537Y-98096751D01*
X91761315Y-98206185D01*
X91761328Y-98206192D01*
X91943306Y-98281569D01*
X91943318Y-98281572D01*
X92136504Y-98319999D01*
X92136508Y-98320000D01*
X92385000Y-98320000D01*
X92385000Y-97620000D01*
X92885000Y-97620000D01*
X92885000Y-98320000D01*
X93133492Y-98320000D01*
X93133495Y-98319999D01*
X93326681Y-98281572D01*
X93326693Y-98281569D01*
X93508671Y-98206192D01*
X93508684Y-98206185D01*
X93672462Y-98096751D01*
X93672466Y-98096748D01*
X93811748Y-97957466D01*
X93811751Y-97957462D01*
X93921185Y-97793684D01*
X93921192Y-97793671D01*
X93996569Y-97611692D01*
X93996569Y-97611690D01*
X94004862Y-97570000D01*
X93201988Y-97570000D01*
X93219205Y-97560060D01*
X93275060Y-97504205D01*
X93314556Y-97435796D01*
X93335000Y-97359496D01*
X93335000Y-97280504D01*
X93314556Y-97204204D01*
X93275060Y-97135795D01*
X93219205Y-97079940D01*
X93201988Y-97070000D01*
X94004862Y-97070000D01*
X93996569Y-97028309D01*
X93996569Y-97028307D01*
X93921192Y-96846328D01*
X93921185Y-96846315D01*
X93811751Y-96682537D01*
X93811748Y-96682533D01*
X93672466Y-96543251D01*
X93672462Y-96543248D01*
X93508684Y-96433814D01*
X93508671Y-96433807D01*
X93326693Y-96358430D01*
X93326681Y-96358427D01*
X93133495Y-96320000D01*
X92885000Y-96320000D01*
X92885000Y-97020000D01*
X92385000Y-97020000D01*
X92385000Y-96320000D01*
X92136504Y-96320000D01*
X91943318Y-96358427D01*
X91943306Y-96358430D01*
X91761328Y-96433807D01*
X91761315Y-96433814D01*
X91597537Y-96543248D01*
X91597533Y-96543251D01*
X91458251Y-96682533D01*
X91458248Y-96682537D01*
X91348814Y-96846315D01*
X91348807Y-96846328D01*
X91273430Y-97028307D01*
X91273430Y-97028309D01*
X91265138Y-97070000D01*
X90500500Y-97070000D01*
X90500500Y-93988550D01*
X94199498Y-93988550D01*
X94240423Y-94141282D01*
X94240424Y-94141283D01*
X94268795Y-94190423D01*
X94319480Y-94278212D01*
X94319482Y-94278214D01*
X94438349Y-94397081D01*
X94438355Y-94397086D01*
X95623982Y-95582713D01*
X95623984Y-95582716D01*
X95713393Y-95672125D01*
X95717395Y-95679454D01*
X95746876Y-95733445D01*
X95745485Y-95791895D01*
X95739500Y-95814229D01*
X95739500Y-95965765D01*
X95778719Y-96112136D01*
X95811976Y-96169737D01*
X95854485Y-96243365D01*
X95854486Y-96243366D01*
X95858549Y-96250403D01*
X95856346Y-96251674D01*
X95876959Y-96304983D01*
X95862923Y-96373428D01*
X95814112Y-96423420D01*
X95800845Y-96429866D01*
X95791324Y-96433809D01*
X95791315Y-96433814D01*
X95627537Y-96543248D01*
X95627533Y-96543251D01*
X95488251Y-96682533D01*
X95488248Y-96682537D01*
X95378814Y-96846315D01*
X95378807Y-96846328D01*
X95303430Y-97028307D01*
X95303430Y-97028309D01*
X95295138Y-97070000D01*
X96098012Y-97070000D01*
X96080795Y-97079940D01*
X96024940Y-97135795D01*
X95985444Y-97204204D01*
X95965000Y-97280504D01*
X95965000Y-97359496D01*
X95985444Y-97435796D01*
X96024940Y-97504205D01*
X96080795Y-97560060D01*
X96098012Y-97570000D01*
X95295138Y-97570000D01*
X95303430Y-97611690D01*
X95303430Y-97611692D01*
X95378807Y-97793671D01*
X95378814Y-97793684D01*
X95488248Y-97957462D01*
X95488251Y-97957466D01*
X95627533Y-98096748D01*
X95627537Y-98096751D01*
X95791315Y-98206185D01*
X95791328Y-98206192D01*
X95973306Y-98281569D01*
X95973318Y-98281572D01*
X96166504Y-98319999D01*
X96166508Y-98320000D01*
X96565000Y-98320000D01*
X96565000Y-97620000D01*
X97065000Y-97620000D01*
X97065000Y-98320000D01*
X97463492Y-98320000D01*
X97463495Y-98319999D01*
X97656681Y-98281572D01*
X97656693Y-98281569D01*
X97838671Y-98206192D01*
X97838684Y-98206185D01*
X98002462Y-98096751D01*
X98002466Y-98096748D01*
X98141748Y-97957466D01*
X98141751Y-97957462D01*
X98251185Y-97793684D01*
X98251192Y-97793671D01*
X98326569Y-97611692D01*
X98326569Y-97611690D01*
X98334862Y-97570000D01*
X97531988Y-97570000D01*
X97549205Y-97560060D01*
X97605060Y-97504205D01*
X97644556Y-97435796D01*
X97665000Y-97359496D01*
X97665000Y-97280504D01*
X97644556Y-97204204D01*
X97605060Y-97135795D01*
X97549205Y-97079940D01*
X97531988Y-97070000D01*
X97640000Y-97070000D01*
X98334862Y-97070000D01*
X98326569Y-97028309D01*
X98326569Y-97028307D01*
X98279008Y-96913483D01*
X98271539Y-96844014D01*
X98302814Y-96781535D01*
X98305889Y-96778348D01*
X98332683Y-96751553D01*
X98332686Y-96751550D01*
X98416281Y-96610198D01*
X98462100Y-96452486D01*
X98462295Y-96450001D01*
X98462295Y-96450000D01*
X97640000Y-96450000D01*
X97640000Y-97070000D01*
X97531988Y-97070000D01*
X97480796Y-97040444D01*
X97404496Y-97020000D01*
X97140000Y-97020000D01*
X97140000Y-96450000D01*
X96868242Y-96450000D01*
X96852875Y-96445487D01*
X96836866Y-96445965D01*
X96820039Y-96435846D01*
X96801203Y-96430315D01*
X96790715Y-96418211D01*
X96776989Y-96409957D01*
X96768304Y-96392347D01*
X96755448Y-96377511D01*
X96753168Y-96361658D01*
X96746084Y-96347294D01*
X96748298Y-96327786D01*
X96745504Y-96308353D01*
X96752248Y-96292982D01*
X96753964Y-96277870D01*
X96768111Y-96256831D01*
X96771018Y-96250208D01*
X96770543Y-96249844D01*
X96772027Y-96247908D01*
X96772152Y-96247624D01*
X96774882Y-96244277D01*
X96777984Y-96242149D01*
X96780561Y-96238319D01*
X96781262Y-96237618D01*
X96782617Y-96238973D01*
X96802221Y-96225533D01*
X96828987Y-96205977D01*
X96831176Y-96205683D01*
X96832510Y-96204769D01*
X96839551Y-96204559D01*
X96880704Y-96199036D01*
X96899306Y-96200500D01*
X96899314Y-96200500D01*
X97880686Y-96200500D01*
X97880694Y-96200500D01*
X97917569Y-96197598D01*
X97917571Y-96197597D01*
X97917573Y-96197597D01*
X97969374Y-96182547D01*
X98075398Y-96151744D01*
X98216865Y-96068081D01*
X98298628Y-95986317D01*
X98359949Y-95952834D01*
X98386308Y-95950000D01*
X98462295Y-95950000D01*
X98462295Y-95949998D01*
X98462100Y-95947508D01*
X98429555Y-95835491D01*
X98429555Y-95817839D01*
X98424632Y-95801248D01*
X98429553Y-95766306D01*
X98458410Y-95666982D01*
X98496015Y-95608100D01*
X98559488Y-95578894D01*
X98628675Y-95588640D01*
X98665166Y-95613900D01*
X98762396Y-95711130D01*
X98762400Y-95711133D01*
X98762402Y-95711135D01*
X98900607Y-95792869D01*
X98926870Y-95800499D01*
X99054791Y-95837664D01*
X99054794Y-95837664D01*
X99054796Y-95837665D01*
X99090819Y-95840500D01*
X99489180Y-95840499D01*
X99525204Y-95837665D01*
X99679393Y-95792869D01*
X99737369Y-95758581D01*
X99805093Y-95741398D01*
X99863612Y-95758581D01*
X99920805Y-95792404D01*
X100060000Y-95832844D01*
X100060000Y-95832843D01*
X100560000Y-95832843D01*
X100699194Y-95792404D01*
X100837285Y-95710738D01*
X100837294Y-95710731D01*
X100950731Y-95597294D01*
X100950738Y-95597285D01*
X101032406Y-95459191D01*
X101032407Y-95459188D01*
X101077166Y-95305128D01*
X101077167Y-95305122D01*
X101079931Y-95270000D01*
X100560000Y-95270000D01*
X100560000Y-95832843D01*
X100060000Y-95832843D01*
X100060000Y-95280408D01*
X100060004Y-95279404D01*
X100060039Y-95275034D01*
X100060500Y-95269181D01*
X100060499Y-95143999D01*
X100080183Y-95076962D01*
X100132986Y-95031206D01*
X100184499Y-95020000D01*
X100310000Y-95020000D01*
X100310000Y-94894000D01*
X100329685Y-94826961D01*
X100382489Y-94781206D01*
X100434000Y-94770000D01*
X101079931Y-94770000D01*
X101077167Y-94734877D01*
X101077166Y-94734871D01*
X101032407Y-94580811D01*
X101032406Y-94580808D01*
X100986746Y-94503601D01*
X100969563Y-94435877D01*
X100991723Y-94369615D01*
X101046189Y-94325851D01*
X101093478Y-94316480D01*
X106788837Y-94316480D01*
X106855876Y-94336165D01*
X106876518Y-94352799D01*
X107764878Y-95241160D01*
X107764882Y-95241163D01*
X107868551Y-95310433D01*
X107868564Y-95310440D01*
X107983752Y-95358152D01*
X107983757Y-95358154D01*
X107983761Y-95358154D01*
X107983762Y-95358155D01*
X108106048Y-95382480D01*
X108106051Y-95382480D01*
X108230741Y-95382480D01*
X127478568Y-95382480D01*
X127545607Y-95402165D01*
X127591362Y-95454969D01*
X127600185Y-95482289D01*
X127630261Y-95633489D01*
X127630264Y-95633501D01*
X127690602Y-95779172D01*
X127690609Y-95779185D01*
X127778210Y-95910288D01*
X127778213Y-95910292D01*
X127889707Y-96021786D01*
X127889711Y-96021789D01*
X128020814Y-96109390D01*
X128020827Y-96109397D01*
X128123066Y-96151745D01*
X128166503Y-96169737D01*
X128306564Y-96197597D01*
X128321153Y-96200499D01*
X128321156Y-96200500D01*
X128321158Y-96200500D01*
X128478844Y-96200500D01*
X128478845Y-96200499D01*
X128633497Y-96169737D01*
X128779179Y-96109394D01*
X128841007Y-96068082D01*
X128910875Y-96021398D01*
X128977553Y-96000520D01*
X128979766Y-96000500D01*
X132899903Y-96000500D01*
X132966942Y-96020185D01*
X132987584Y-96036819D01*
X135889084Y-98938319D01*
X135922569Y-98999642D01*
X135917585Y-99069334D01*
X135875713Y-99125267D01*
X135810249Y-99149684D01*
X135801403Y-99150000D01*
X135627600Y-99150000D01*
X135591198Y-99152865D01*
X135591191Y-99152866D01*
X135486757Y-99183206D01*
X136164094Y-99860543D01*
X136197579Y-99921866D01*
X136192595Y-99991558D01*
X136164095Y-100035905D01*
X136075000Y-100125000D01*
X136164094Y-100214094D01*
X136197579Y-100275417D01*
X136192595Y-100345109D01*
X136164094Y-100389456D01*
X135486757Y-101066792D01*
X135534498Y-101080662D01*
X135593383Y-101118269D01*
X135622590Y-101181741D01*
X135612844Y-101250928D01*
X135567240Y-101303862D01*
X135534499Y-101318815D01*
X135435106Y-101347691D01*
X135435105Y-101347692D01*
X135295271Y-101430389D01*
X135295262Y-101430396D01*
X135180396Y-101545262D01*
X135180389Y-101545271D01*
X135139968Y-101613621D01*
X135088899Y-101661305D01*
X135033236Y-101674500D01*
X132966764Y-101674500D01*
X132899725Y-101654815D01*
X132860032Y-101613621D01*
X132819610Y-101545271D01*
X132819603Y-101545262D01*
X132704737Y-101430396D01*
X132704728Y-101430389D01*
X132564894Y-101347692D01*
X132564891Y-101347690D01*
X132465501Y-101318815D01*
X132406615Y-101281209D01*
X132377409Y-101217736D01*
X132387155Y-101148549D01*
X132432759Y-101095615D01*
X132465501Y-101080662D01*
X132513241Y-101066792D01*
X131925001Y-100478552D01*
X131925000Y-100478552D01*
X131336757Y-101066792D01*
X131384498Y-101080662D01*
X131443383Y-101118269D01*
X131472590Y-101181741D01*
X131462844Y-101250928D01*
X131417240Y-101303862D01*
X131384499Y-101318815D01*
X131285106Y-101347691D01*
X131285105Y-101347692D01*
X131145271Y-101430389D01*
X131145262Y-101430396D01*
X131030396Y-101545262D01*
X131030389Y-101545271D01*
X130947692Y-101685105D01*
X130947691Y-101685108D01*
X130902368Y-101841108D01*
X130902367Y-101841114D01*
X130899500Y-101877548D01*
X130899500Y-102326500D01*
X130879815Y-102393539D01*
X130827011Y-102439294D01*
X130775500Y-102450500D01*
X128024500Y-102450500D01*
X127957461Y-102430815D01*
X127911706Y-102378011D01*
X127900500Y-102326500D01*
X127900500Y-101877563D01*
X127900499Y-101877548D01*
X127897632Y-101841114D01*
X127897631Y-101841108D01*
X127852308Y-101685108D01*
X127852307Y-101685105D01*
X127852307Y-101685104D01*
X127769608Y-101545268D01*
X127769606Y-101545266D01*
X127769603Y-101545262D01*
X127654737Y-101430396D01*
X127654728Y-101430389D01*
X127514894Y-101347692D01*
X127514891Y-101347690D01*
X127415501Y-101318815D01*
X127356615Y-101281209D01*
X127327409Y-101217736D01*
X127337155Y-101148549D01*
X127382759Y-101095615D01*
X127415501Y-101080662D01*
X127463241Y-101066792D01*
X126875001Y-100478552D01*
X126875000Y-100478552D01*
X126286757Y-101066792D01*
X126334498Y-101080662D01*
X126393383Y-101118269D01*
X126422590Y-101181741D01*
X126412844Y-101250928D01*
X126367240Y-101303862D01*
X126334499Y-101318815D01*
X126235106Y-101347691D01*
X126235105Y-101347692D01*
X126095271Y-101430389D01*
X126095262Y-101430396D01*
X125980396Y-101545262D01*
X125980389Y-101545271D01*
X125939968Y-101613621D01*
X125888899Y-101661305D01*
X125833236Y-101674500D01*
X123766764Y-101674500D01*
X123699725Y-101654815D01*
X123660032Y-101613621D01*
X123619610Y-101545271D01*
X123619603Y-101545262D01*
X123504737Y-101430396D01*
X123504728Y-101430389D01*
X123364894Y-101347692D01*
X123364891Y-101347690D01*
X123265501Y-101318815D01*
X123206615Y-101281209D01*
X123177409Y-101217736D01*
X123187155Y-101148549D01*
X123232759Y-101095615D01*
X123265501Y-101080662D01*
X123313241Y-101066792D01*
X122725001Y-100478552D01*
X122725000Y-100478552D01*
X122136757Y-101066792D01*
X122184498Y-101080662D01*
X122243383Y-101118269D01*
X122272590Y-101181741D01*
X122262844Y-101250928D01*
X122217240Y-101303862D01*
X122184499Y-101318815D01*
X122085106Y-101347691D01*
X122085105Y-101347692D01*
X121945271Y-101430389D01*
X121945262Y-101430396D01*
X121830396Y-101545262D01*
X121830389Y-101545271D01*
X121747692Y-101685105D01*
X121747691Y-101685108D01*
X121702368Y-101841108D01*
X121702367Y-101841114D01*
X121699500Y-101877548D01*
X121699500Y-102672451D01*
X121702367Y-102708885D01*
X121702368Y-102708891D01*
X121747691Y-102864891D01*
X121747692Y-102864894D01*
X121830389Y-103004728D01*
X121830396Y-103004737D01*
X121945262Y-103119603D01*
X121945266Y-103119606D01*
X121945268Y-103119608D01*
X122085104Y-103202307D01*
X122126245Y-103214259D01*
X122241108Y-103247631D01*
X122241111Y-103247631D01*
X122241113Y-103247632D01*
X122277556Y-103250500D01*
X122277564Y-103250500D01*
X123172436Y-103250500D01*
X123172444Y-103250500D01*
X123208887Y-103247632D01*
X123208889Y-103247631D01*
X123208891Y-103247631D01*
X123250028Y-103235679D01*
X123364896Y-103202307D01*
X123504732Y-103119608D01*
X123619608Y-103004732D01*
X123660032Y-102936378D01*
X123711101Y-102888695D01*
X123766764Y-102875500D01*
X125833236Y-102875500D01*
X125900275Y-102895185D01*
X125939968Y-102936379D01*
X125980389Y-103004728D01*
X125980396Y-103004737D01*
X126095262Y-103119603D01*
X126095266Y-103119606D01*
X126095268Y-103119608D01*
X126235104Y-103202307D01*
X126276245Y-103214259D01*
X126391108Y-103247631D01*
X126391111Y-103247631D01*
X126391113Y-103247632D01*
X126427556Y-103250500D01*
X126949902Y-103250500D01*
X127016941Y-103270185D01*
X127037583Y-103286819D01*
X127282284Y-103531520D01*
X127282286Y-103531521D01*
X127282290Y-103531524D01*
X127419209Y-103610573D01*
X127419216Y-103610577D01*
X127571943Y-103651501D01*
X127571945Y-103651501D01*
X127737654Y-103651501D01*
X127737670Y-103651500D01*
X139941083Y-103651500D01*
X139941099Y-103651501D01*
X139948695Y-103651501D01*
X140106806Y-103651501D01*
X140106809Y-103651501D01*
X140259537Y-103610577D01*
X140309656Y-103581639D01*
X140396468Y-103531520D01*
X140508272Y-103419716D01*
X140508272Y-103419714D01*
X140518480Y-103409507D01*
X140518482Y-103409504D01*
X148310274Y-95617711D01*
X148371595Y-95584228D01*
X148441287Y-95589212D01*
X148485634Y-95617713D01*
X148489707Y-95621786D01*
X148489711Y-95621789D01*
X148620814Y-95709390D01*
X148620827Y-95709397D01*
X148739572Y-95758582D01*
X148766503Y-95769737D01*
X148880457Y-95792404D01*
X148921153Y-95800499D01*
X148921156Y-95800500D01*
X148921158Y-95800500D01*
X149078844Y-95800500D01*
X149078845Y-95800499D01*
X149233497Y-95769737D01*
X149371888Y-95712414D01*
X149379172Y-95709397D01*
X149379172Y-95709396D01*
X149379179Y-95709394D01*
X149510289Y-95621789D01*
X149621789Y-95510289D01*
X149709394Y-95379179D01*
X149769737Y-95233497D01*
X149800500Y-95078842D01*
X149800500Y-95078839D01*
X149800637Y-95078151D01*
X149809402Y-95061394D01*
X149813422Y-95042915D01*
X149832162Y-95017880D01*
X149833021Y-95016240D01*
X149834528Y-95014705D01*
X149879934Y-94969300D01*
X149941256Y-94935816D01*
X150010948Y-94940800D01*
X150027351Y-94948320D01*
X150089463Y-94982466D01*
X150089465Y-94982466D01*
X150089466Y-94982467D01*
X150244986Y-95022398D01*
X150244990Y-95022398D01*
X150405547Y-95022398D01*
X150405551Y-95022398D01*
X150561072Y-94982467D01*
X150645930Y-94935816D01*
X150701772Y-94905117D01*
X150701772Y-94905116D01*
X150701775Y-94905115D01*
X150729252Y-94881647D01*
X150813457Y-94797441D01*
X150874778Y-94763958D01*
X150901137Y-94761124D01*
X151309526Y-94761124D01*
X151309542Y-94761125D01*
X151317138Y-94761125D01*
X151475249Y-94761125D01*
X151475252Y-94761125D01*
X151627980Y-94720201D01*
X151678099Y-94691263D01*
X151764911Y-94641144D01*
X151853764Y-94552290D01*
X151859704Y-94547644D01*
X151885441Y-94537416D01*
X151909749Y-94524143D01*
X151922213Y-94522802D01*
X151924634Y-94521841D01*
X151926950Y-94522293D01*
X151936108Y-94521309D01*
X152008823Y-94521309D01*
X152165151Y-94482778D01*
X152307714Y-94407954D01*
X152359238Y-94365015D01*
X153354264Y-93369987D01*
X153397205Y-93318463D01*
X153472029Y-93175900D01*
X153510560Y-93019572D01*
X153510560Y-92946856D01*
X153530245Y-92879817D01*
X153546879Y-92859175D01*
X156921918Y-89484137D01*
X156983241Y-89450652D01*
X157009599Y-89447818D01*
X157082314Y-89447818D01*
X157238642Y-89409287D01*
X157381205Y-89334463D01*
X157432729Y-89291524D01*
X158427755Y-88296496D01*
X158470696Y-88244972D01*
X158545520Y-88102409D01*
X158584051Y-87946081D01*
X158584051Y-87785076D01*
X158584041Y-87785037D01*
X158581165Y-87773368D01*
X158581787Y-87711593D01*
X158584188Y-87702633D01*
X158602654Y-87633723D01*
X158602654Y-87475608D01*
X158602654Y-87468013D01*
X158602653Y-87467995D01*
X158602653Y-86735500D01*
X158622338Y-86668461D01*
X158675142Y-86622706D01*
X158726653Y-86611500D01*
X165022623Y-86611500D01*
X165022639Y-86611501D01*
X165030235Y-86611501D01*
X165188346Y-86611501D01*
X165188349Y-86611501D01*
X165341077Y-86570577D01*
X165402417Y-86535162D01*
X165478008Y-86491520D01*
X165589812Y-86379716D01*
X165589812Y-86379714D01*
X165600012Y-86369515D01*
X165600015Y-86369510D01*
X165722709Y-86246817D01*
X165784032Y-86213334D01*
X165810389Y-86210500D01*
X165947424Y-86210500D01*
X165947432Y-86210500D01*
X165978514Y-86208053D01*
X166046888Y-86222416D01*
X166096646Y-86271466D01*
X166112242Y-86331670D01*
X166112242Y-86450000D01*
X166112243Y-86450019D01*
X166122742Y-86552796D01*
X166122743Y-86552799D01*
X166171356Y-86699500D01*
X166177928Y-86719334D01*
X166270030Y-86868656D01*
X166394086Y-86992712D01*
X166481347Y-87046535D01*
X166537849Y-87081385D01*
X166552190Y-87097329D01*
X166569738Y-87109659D01*
X166577987Y-87126010D01*
X166584574Y-87133333D01*
X166587577Y-87140112D01*
X166590515Y-87147320D01*
X166603165Y-87194527D01*
X166621373Y-87226064D01*
X166647063Y-87270560D01*
X166682219Y-87331454D01*
X166682223Y-87331459D01*
X166797958Y-87447194D01*
X166831443Y-87508517D01*
X166829377Y-87560115D01*
X166831451Y-87560528D01*
X166799500Y-87721153D01*
X166799500Y-87878846D01*
X166830261Y-88033489D01*
X166830264Y-88033501D01*
X166890602Y-88179172D01*
X166890609Y-88179185D01*
X166978210Y-88310288D01*
X166978213Y-88310292D01*
X167089707Y-88421786D01*
X167089711Y-88421789D01*
X167220814Y-88509390D01*
X167220827Y-88509397D01*
X167315864Y-88548762D01*
X167366503Y-88569737D01*
X167511516Y-88598582D01*
X167521153Y-88600499D01*
X167521156Y-88600500D01*
X167521158Y-88600500D01*
X167678844Y-88600500D01*
X167678845Y-88600499D01*
X167833497Y-88569737D01*
X167979179Y-88509394D01*
X168110289Y-88421789D01*
X168221789Y-88310289D01*
X168309394Y-88179179D01*
X168369737Y-88033497D01*
X168400500Y-87878842D01*
X168400500Y-87721158D01*
X168400500Y-87721155D01*
X168400499Y-87721153D01*
X168386246Y-87649500D01*
X168369737Y-87566503D01*
X168333926Y-87480047D01*
X168309397Y-87420827D01*
X168309390Y-87420814D01*
X168221789Y-87289711D01*
X168221786Y-87289707D01*
X168204770Y-87272691D01*
X168179287Y-87235705D01*
X168175240Y-87226671D01*
X168159577Y-87168215D01*
X168115791Y-87092376D01*
X168080520Y-87031284D01*
X168072303Y-87023067D01*
X168038818Y-86961744D01*
X168043802Y-86892052D01*
X168054446Y-86870289D01*
X168055452Y-86868657D01*
X168055454Y-86868656D01*
X168147556Y-86719334D01*
X168202741Y-86552797D01*
X168213242Y-86450009D01*
X168213241Y-83149992D01*
X168211097Y-83129008D01*
X168202741Y-83047203D01*
X168202740Y-83047200D01*
X168187099Y-83000000D01*
X168147556Y-82880666D01*
X168055454Y-82731344D01*
X167931398Y-82607288D01*
X167804484Y-82529007D01*
X167782078Y-82515187D01*
X167782073Y-82515185D01*
X167768671Y-82510744D01*
X167615539Y-82460001D01*
X167615537Y-82460000D01*
X167512752Y-82449500D01*
X166812740Y-82449500D01*
X166812722Y-82449501D01*
X166709945Y-82460000D01*
X166709942Y-82460001D01*
X166543410Y-82515185D01*
X166543405Y-82515187D01*
X166394084Y-82607289D01*
X166348364Y-82653009D01*
X166287041Y-82686493D01*
X166217349Y-82681508D01*
X166197563Y-82672059D01*
X166149761Y-82643789D01*
X166139137Y-82637506D01*
X166139136Y-82637505D01*
X166139135Y-82637505D01*
X166139132Y-82637504D01*
X165983739Y-82592357D01*
X165983733Y-82592356D01*
X165947439Y-82589500D01*
X165947432Y-82589500D01*
X165538052Y-82589500D01*
X165538044Y-82589500D01*
X165501750Y-82592356D01*
X165501744Y-82592357D01*
X165346351Y-82637504D01*
X165346346Y-82637506D01*
X165325370Y-82649911D01*
X165257645Y-82667092D01*
X165199131Y-82649911D01*
X165178933Y-82637966D01*
X165178932Y-82637965D01*
X165032743Y-82595493D01*
X165032742Y-82595494D01*
X165032742Y-82901645D01*
X165015476Y-82964763D01*
X165010249Y-82973600D01*
X165010246Y-82973608D01*
X164965099Y-83129002D01*
X164965098Y-83129008D01*
X164962242Y-83165302D01*
X164962242Y-83634697D01*
X164965098Y-83670991D01*
X164965099Y-83670997D01*
X165010245Y-83826389D01*
X165010247Y-83826393D01*
X165010248Y-83826395D01*
X165015474Y-83835233D01*
X165032742Y-83898352D01*
X165032742Y-84204504D01*
X165051998Y-84218962D01*
X165053513Y-84218967D01*
X165075561Y-84233224D01*
X165099445Y-84244132D01*
X165104434Y-84251895D01*
X165112184Y-84256907D01*
X165123023Y-84280821D01*
X165137219Y-84302910D01*
X165139162Y-84316427D01*
X165141029Y-84320545D01*
X165142242Y-84337845D01*
X165142242Y-84413330D01*
X165142241Y-84413348D01*
X165142241Y-84462153D01*
X165122556Y-84529192D01*
X165069752Y-84574947D01*
X165057824Y-84576661D01*
X165032742Y-84595494D01*
X165032742Y-84901645D01*
X165015476Y-84964763D01*
X165010249Y-84973600D01*
X165010246Y-84973608D01*
X164965099Y-85129002D01*
X164965098Y-85129008D01*
X164962242Y-85165302D01*
X164962242Y-85257451D01*
X164953598Y-85286885D01*
X164947076Y-85316875D01*
X164943319Y-85321893D01*
X164942557Y-85324490D01*
X164925926Y-85345130D01*
X164911480Y-85359577D01*
X164907378Y-85363679D01*
X164846055Y-85397166D01*
X164819694Y-85400000D01*
X164761277Y-85400000D01*
X164747238Y-85407666D01*
X164720880Y-85410500D01*
X158856441Y-85410500D01*
X158789402Y-85390815D01*
X158761677Y-85366473D01*
X158753719Y-85357043D01*
X158743651Y-85338729D01*
X158720001Y-85311039D01*
X158687287Y-85278325D01*
X158687282Y-85278319D01*
X158558962Y-85149999D01*
X164003951Y-85149999D01*
X164003952Y-85150000D01*
X164532742Y-85150000D01*
X164532742Y-84595494D01*
X164532740Y-84595493D01*
X164386551Y-84637965D01*
X164386548Y-84637967D01*
X164247367Y-84720278D01*
X164247358Y-84720285D01*
X164133027Y-84834616D01*
X164133020Y-84834625D01*
X164050710Y-84973804D01*
X164050708Y-84973809D01*
X164005597Y-85129081D01*
X164005596Y-85129087D01*
X164003951Y-85149999D01*
X158558962Y-85149999D01*
X158430540Y-85021577D01*
X158430523Y-85021561D01*
X158402836Y-84997914D01*
X158402832Y-84997911D01*
X158261028Y-84919954D01*
X158237419Y-84913892D01*
X158177382Y-84878152D01*
X158148155Y-84824625D01*
X158142320Y-84801902D01*
X158068978Y-84668493D01*
X157852496Y-84884976D01*
X157795656Y-84917398D01*
X157785706Y-84919952D01*
X157643899Y-84997911D01*
X157643895Y-84997914D01*
X157616208Y-85021561D01*
X157537936Y-85099833D01*
X157476612Y-85133317D01*
X157406921Y-85128332D01*
X157362574Y-85099832D01*
X157323331Y-85060589D01*
X157234235Y-85149685D01*
X157172912Y-85183170D01*
X157103220Y-85178186D01*
X157058873Y-85149685D01*
X156595865Y-84686677D01*
X156582244Y-84702624D01*
X156532796Y-84792570D01*
X156483249Y-84841834D01*
X156414934Y-84856490D01*
X156362141Y-84840223D01*
X156351910Y-84834317D01*
X156351905Y-84834312D01*
X156351905Y-84834314D01*
X156315778Y-84813456D01*
X156259876Y-84798477D01*
X156163052Y-84772533D01*
X156004938Y-84772533D01*
X155997342Y-84772533D01*
X155997326Y-84772534D01*
X155817736Y-84772534D01*
X155807271Y-84769461D01*
X155731418Y-84766021D01*
X155724689Y-84769697D01*
X155698315Y-84772534D01*
X155601870Y-84772534D01*
X155580762Y-84778189D01*
X155580763Y-84778190D01*
X155449143Y-84813457D01*
X155449138Y-84813460D01*
X155312219Y-84892509D01*
X155312211Y-84892515D01*
X154670480Y-85534247D01*
X153541547Y-86663181D01*
X153480224Y-86696666D01*
X153453866Y-86699500D01*
X152000098Y-86699500D01*
X151933059Y-86679815D01*
X151912417Y-86663181D01*
X151109906Y-85860670D01*
X151029724Y-85780488D01*
X153415425Y-85780488D01*
X153415425Y-85941372D01*
X153453925Y-86097581D01*
X153528693Y-86240035D01*
X153528697Y-86240040D01*
X153549775Y-86265334D01*
X153549776Y-86265335D01*
X154298895Y-85516216D01*
X153892309Y-85109630D01*
X153571614Y-85430324D01*
X153571600Y-85430339D01*
X153528693Y-85481824D01*
X153453925Y-85624280D01*
X153415425Y-85780488D01*
X151029724Y-85780488D01*
X150576079Y-85326843D01*
X150005311Y-84756076D01*
X154245863Y-84756076D01*
X154652449Y-85162662D01*
X155401568Y-84413543D01*
X155376273Y-84392464D01*
X155376268Y-84392460D01*
X155263214Y-84333123D01*
X156949418Y-84333123D01*
X157323331Y-84707035D01*
X157323332Y-84707035D01*
X157715425Y-84314940D01*
X157715424Y-84314939D01*
X157582020Y-84241600D01*
X157425400Y-84201386D01*
X157263689Y-84201386D01*
X157107078Y-84241597D01*
X157107068Y-84241600D01*
X156965375Y-84319497D01*
X156965366Y-84319503D01*
X156949418Y-84333123D01*
X155263214Y-84333123D01*
X155233814Y-84317692D01*
X155077606Y-84279192D01*
X154916721Y-84279192D01*
X154760513Y-84317692D01*
X154618057Y-84392460D01*
X154566572Y-84435367D01*
X154566557Y-84435381D01*
X154245863Y-84756076D01*
X150005311Y-84756076D01*
X149501808Y-84252573D01*
X149468324Y-84191251D01*
X149473308Y-84121559D01*
X149508957Y-84070604D01*
X149513321Y-84066875D01*
X149050315Y-83603869D01*
X149016830Y-83542546D01*
X149021814Y-83472854D01*
X149050315Y-83428507D01*
X149139411Y-83339411D01*
X149139409Y-83339409D01*
X149492964Y-83339409D01*
X149492964Y-83339410D01*
X149866874Y-83713320D01*
X149866875Y-83713320D01*
X149880499Y-83697371D01*
X149906541Y-83650000D01*
X164003952Y-83650000D01*
X164005596Y-83670910D01*
X164050710Y-83826195D01*
X164133020Y-83965374D01*
X164133027Y-83965383D01*
X164247358Y-84079714D01*
X164247367Y-84079721D01*
X164386546Y-84162031D01*
X164532742Y-84204504D01*
X164532742Y-83650000D01*
X164003952Y-83650000D01*
X149906541Y-83650000D01*
X149958399Y-83555671D01*
X149958402Y-83555665D01*
X149998613Y-83399052D01*
X149998614Y-83399045D01*
X149998614Y-83237346D01*
X149998613Y-83237344D01*
X149995490Y-83225178D01*
X149995490Y-83225176D01*
X149976187Y-83149999D01*
X164003951Y-83149999D01*
X164003952Y-83150000D01*
X164532742Y-83150000D01*
X164532742Y-82595494D01*
X164532740Y-82595493D01*
X164386551Y-82637965D01*
X164386548Y-82637967D01*
X164247367Y-82720278D01*
X164247358Y-82720285D01*
X164133027Y-82834616D01*
X164133020Y-82834625D01*
X164050710Y-82973804D01*
X164050708Y-82973809D01*
X164005597Y-83129081D01*
X164005596Y-83129087D01*
X164003951Y-83149999D01*
X149976187Y-83149999D01*
X149958400Y-83080723D01*
X149885058Y-82947315D01*
X149492964Y-83339409D01*
X149139409Y-83339409D01*
X149100167Y-83300167D01*
X149066682Y-83238844D01*
X149071666Y-83169152D01*
X149100165Y-83124806D01*
X149178437Y-83046535D01*
X149202087Y-83018845D01*
X149280047Y-82877034D01*
X149282600Y-82867089D01*
X149315024Y-82810242D01*
X149531504Y-82593761D01*
X149398100Y-82520422D01*
X149398092Y-82520419D01*
X149375372Y-82514586D01*
X149315334Y-82478848D01*
X149286106Y-82425319D01*
X149280047Y-82401718D01*
X149202087Y-82259907D01*
X149178437Y-82232217D01*
X149178422Y-82232201D01*
X148888976Y-81942755D01*
X148888959Y-81942739D01*
X148866263Y-81923355D01*
X148861271Y-81919091D01*
X148861269Y-81919090D01*
X148861268Y-81919089D01*
X148712955Y-81837554D01*
X148685013Y-81816575D01*
X148653248Y-81784810D01*
X148653247Y-81784809D01*
X148653245Y-81784807D01*
X148546270Y-81703165D01*
X148546266Y-81703163D01*
X148546264Y-81703161D01*
X148489425Y-81670740D01*
X148481288Y-81667444D01*
X148433292Y-81632739D01*
X148425204Y-81623206D01*
X148402087Y-81581155D01*
X148378437Y-81553465D01*
X148296581Y-81471609D01*
X148293295Y-81467736D01*
X148281088Y-81440254D01*
X148266682Y-81413871D01*
X148267054Y-81408658D01*
X148264933Y-81403882D01*
X148269521Y-81374169D01*
X148271666Y-81344179D01*
X148274938Y-81339086D01*
X148275596Y-81334831D01*
X148283186Y-81326252D01*
X148300167Y-81299831D01*
X148428507Y-81171492D01*
X148489830Y-81138008D01*
X148559522Y-81142992D01*
X148603869Y-81171493D01*
X149085059Y-81652683D01*
X149085059Y-81652682D01*
X149158399Y-81519278D01*
X149158402Y-81519270D01*
X149198613Y-81362658D01*
X149198614Y-81362653D01*
X149198614Y-81200955D01*
X149198613Y-81200947D01*
X149158402Y-81044336D01*
X149155529Y-81037078D01*
X149157880Y-81036147D01*
X149145492Y-80980009D01*
X149169713Y-80914472D01*
X149225521Y-80872433D01*
X149233215Y-80869822D01*
X149233486Y-80869739D01*
X149233497Y-80869737D01*
X149379179Y-80809394D01*
X149510289Y-80721789D01*
X149621789Y-80610289D01*
X149709394Y-80479179D01*
X149716212Y-80462720D01*
X149729655Y-80430264D01*
X149769737Y-80333497D01*
X149774567Y-80309213D01*
X149806950Y-80247305D01*
X149867665Y-80212729D01*
X149937434Y-80216467D01*
X149943616Y-80218836D01*
X150066503Y-80269737D01*
X150221153Y-80300499D01*
X150221156Y-80300500D01*
X150221158Y-80300500D01*
X150378844Y-80300500D01*
X150378845Y-80300499D01*
X150533497Y-80269737D01*
X150651599Y-80220818D01*
X150679172Y-80209397D01*
X150679172Y-80209396D01*
X150679179Y-80209394D01*
X150810289Y-80121789D01*
X150921789Y-80010289D01*
X151009394Y-79879179D01*
X151069737Y-79733497D01*
X151100500Y-79578842D01*
X151100500Y-79421158D01*
X151100500Y-79421155D01*
X151100499Y-79421153D01*
X151090621Y-79371492D01*
X151069737Y-79266503D01*
X151057633Y-79237280D01*
X151009397Y-79120827D01*
X151009390Y-79120814D01*
X150921789Y-78989711D01*
X150921786Y-78989707D01*
X150810292Y-78878213D01*
X150810288Y-78878210D01*
X150679185Y-78790609D01*
X150679172Y-78790602D01*
X150533501Y-78730264D01*
X150533489Y-78730261D01*
X150378845Y-78699500D01*
X150378842Y-78699500D01*
X150221158Y-78699500D01*
X150221155Y-78699500D01*
X150066510Y-78730261D01*
X150066498Y-78730264D01*
X149920827Y-78790602D01*
X149920814Y-78790609D01*
X149789125Y-78878602D01*
X149771078Y-78884252D01*
X149755169Y-78894477D01*
X149724207Y-78898928D01*
X149722447Y-78899480D01*
X149720234Y-78899500D01*
X149617848Y-78899500D01*
X149550809Y-78879815D01*
X149505054Y-78827011D01*
X149496231Y-78799692D01*
X149469738Y-78666508D01*
X149469737Y-78666507D01*
X149469737Y-78666503D01*
X149442191Y-78600000D01*
X149409397Y-78520827D01*
X149409390Y-78520814D01*
X149321789Y-78389711D01*
X149321786Y-78389707D01*
X149244260Y-78312181D01*
X149210775Y-78250858D01*
X149215759Y-78181166D01*
X149257631Y-78125233D01*
X149323095Y-78100816D01*
X149331941Y-78100500D01*
X166675452Y-78100500D01*
X166742491Y-78120185D01*
X166763133Y-78136819D01*
X169306098Y-80679784D01*
X169339583Y-80741107D01*
X169334599Y-80810799D01*
X169306099Y-80855146D01*
X169189287Y-80971959D01*
X169100259Y-81116294D01*
X169100254Y-81116305D01*
X169046909Y-81277290D01*
X169036758Y-81376647D01*
X169036758Y-81923337D01*
X169036759Y-81923355D01*
X169046908Y-82022707D01*
X169046909Y-82022710D01*
X169100254Y-82183694D01*
X169100259Y-82183705D01*
X169189287Y-82328040D01*
X169189290Y-82328044D01*
X169309214Y-82447968D01*
X169326771Y-82458797D01*
X169373496Y-82510744D01*
X169384719Y-82579706D01*
X169356876Y-82643789D01*
X169349357Y-82652017D01*
X169270029Y-82731345D01*
X169177929Y-82880663D01*
X169177927Y-82880668D01*
X169167439Y-82912319D01*
X169122743Y-83047203D01*
X169122743Y-83047204D01*
X169122742Y-83047204D01*
X169112242Y-83149983D01*
X169112242Y-83149996D01*
X169112243Y-86450000D01*
X169112243Y-86450018D01*
X169122742Y-86552796D01*
X169122743Y-86552799D01*
X169171356Y-86699500D01*
X169177928Y-86719334D01*
X169270030Y-86868656D01*
X169394086Y-86992712D01*
X169543408Y-87084814D01*
X169709945Y-87139999D01*
X169812733Y-87150500D01*
X170512750Y-87150499D01*
X170512758Y-87150498D01*
X170512761Y-87150498D01*
X170569044Y-87144748D01*
X170615539Y-87139999D01*
X170782076Y-87084814D01*
X170931398Y-86992712D01*
X171055454Y-86868656D01*
X171140046Y-86731508D01*
X171191992Y-86684785D01*
X171260955Y-86673562D01*
X171325037Y-86701405D01*
X171363894Y-86759474D01*
X171368942Y-86784003D01*
X171372886Y-86822607D01*
X171426194Y-86983481D01*
X171426199Y-86983492D01*
X171515166Y-87127728D01*
X171515169Y-87127732D01*
X171635009Y-87247572D01*
X171635013Y-87247575D01*
X171779249Y-87336542D01*
X171779260Y-87336547D01*
X171940135Y-87389855D01*
X172039425Y-87399999D01*
X172212741Y-87399999D01*
X172212742Y-87399998D01*
X172212742Y-86574000D01*
X172232427Y-86506961D01*
X172285231Y-86461206D01*
X172336742Y-86450000D01*
X172588742Y-86450000D01*
X172655781Y-86469685D01*
X172701536Y-86522489D01*
X172712742Y-86574000D01*
X172712742Y-87399999D01*
X172886050Y-87399999D01*
X172886064Y-87399998D01*
X172985349Y-87389855D01*
X173146223Y-87336547D01*
X173146234Y-87336542D01*
X173290470Y-87247575D01*
X173290474Y-87247572D01*
X173410315Y-87127731D01*
X173432703Y-87091435D01*
X173484651Y-87044710D01*
X173553613Y-87033487D01*
X173617695Y-87061330D01*
X173656552Y-87119399D01*
X173662242Y-87156531D01*
X173662242Y-88362402D01*
X173653597Y-88391842D01*
X173647074Y-88421829D01*
X173643319Y-88426844D01*
X173642557Y-88429441D01*
X173625923Y-88450083D01*
X173512825Y-88563181D01*
X173451502Y-88596666D01*
X173425144Y-88599500D01*
X172872040Y-88599500D01*
X172835174Y-88602401D01*
X172835168Y-88602402D01*
X172677348Y-88648254D01*
X172677345Y-88648255D01*
X172535879Y-88731917D01*
X172535871Y-88731923D01*
X172419665Y-88848129D01*
X172419659Y-88848137D01*
X172335997Y-88989603D01*
X172335996Y-88989606D01*
X172290144Y-89147426D01*
X172290143Y-89147432D01*
X172287242Y-89184298D01*
X172287242Y-89615701D01*
X172290143Y-89652567D01*
X172290144Y-89652573D01*
X172335996Y-89810393D01*
X172335997Y-89810396D01*
X172419659Y-89951862D01*
X172419665Y-89951870D01*
X172535871Y-90068076D01*
X172535875Y-90068079D01*
X172535877Y-90068081D01*
X172677344Y-90151744D01*
X172718966Y-90163836D01*
X172835168Y-90197597D01*
X172835171Y-90197597D01*
X172835173Y-90197598D01*
X172872048Y-90200500D01*
X174038242Y-90200500D01*
X174105281Y-90220185D01*
X174151036Y-90272989D01*
X174162242Y-90324500D01*
X174162242Y-90565701D01*
X174165143Y-90602567D01*
X174165144Y-90602573D01*
X174210996Y-90760393D01*
X174210997Y-90760396D01*
X174210998Y-90760398D01*
X174212908Y-90763628D01*
X174294659Y-90901862D01*
X174294665Y-90901870D01*
X174410871Y-91018076D01*
X174410875Y-91018079D01*
X174410877Y-91018081D01*
X174552344Y-91101744D01*
X174593966Y-91113836D01*
X174710168Y-91147597D01*
X174710171Y-91147597D01*
X174710173Y-91147598D01*
X174747048Y-91150500D01*
X174747056Y-91150500D01*
X176053428Y-91150500D01*
X176053436Y-91150500D01*
X176090311Y-91147598D01*
X176090313Y-91147597D01*
X176090315Y-91147597D01*
X176131933Y-91135505D01*
X176248140Y-91101744D01*
X176389607Y-91018081D01*
X176505823Y-90901865D01*
X176589486Y-90760398D01*
X176632456Y-90612495D01*
X176635339Y-90602573D01*
X176635340Y-90602567D01*
X176638241Y-90565701D01*
X176638242Y-90565694D01*
X176638242Y-90134306D01*
X176635340Y-90097431D01*
X176625791Y-90064563D01*
X176625989Y-89994698D01*
X176657184Y-89942291D01*
X177168506Y-89430970D01*
X177168511Y-89430966D01*
X177178714Y-89420762D01*
X177178716Y-89420762D01*
X177290520Y-89308958D01*
X177351916Y-89202616D01*
X177369577Y-89172027D01*
X177410501Y-89019299D01*
X177410501Y-88861185D01*
X177410501Y-88853590D01*
X177410500Y-88853572D01*
X177410500Y-87549999D01*
X179286293Y-87549999D01*
X179286294Y-87550000D01*
X181779190Y-87550000D01*
X181779190Y-87549999D01*
X180532742Y-86303552D01*
X179286293Y-87549999D01*
X177410500Y-87549999D01*
X177410500Y-86369595D01*
X177430185Y-86302556D01*
X177446818Y-86281914D01*
X177451135Y-86277598D01*
X177532869Y-86139393D01*
X177577665Y-85985204D01*
X177580500Y-85949181D01*
X177580499Y-85450820D01*
X177577665Y-85414796D01*
X177532869Y-85260607D01*
X177456557Y-85131571D01*
X177439375Y-85063848D01*
X177461535Y-84997585D01*
X177516001Y-84953822D01*
X177585481Y-84946453D01*
X177610738Y-84953888D01*
X177687506Y-84985687D01*
X177800022Y-85000500D01*
X177800029Y-85000500D01*
X178258742Y-85000500D01*
X178325781Y-85020185D01*
X178371536Y-85072989D01*
X178382742Y-85124500D01*
X178382742Y-86792169D01*
X178385491Y-86832715D01*
X178429062Y-87007913D01*
X178509272Y-87169643D01*
X178509274Y-87169645D01*
X178622382Y-87310358D01*
X178622383Y-87310359D01*
X178731288Y-87397900D01*
X178731289Y-87397900D01*
X180179191Y-85949999D01*
X180886294Y-85949999D01*
X180886294Y-85950000D01*
X182334193Y-87397899D01*
X182443101Y-87310359D01*
X182556209Y-87169646D01*
X182556211Y-87169643D01*
X182636421Y-87007913D01*
X182679992Y-86832715D01*
X182682742Y-86792169D01*
X182682742Y-85107830D01*
X182679992Y-85067284D01*
X182636421Y-84892086D01*
X182556211Y-84730356D01*
X182556209Y-84730354D01*
X182443101Y-84589641D01*
X182443100Y-84589640D01*
X182334194Y-84502098D01*
X180886294Y-85949999D01*
X180179191Y-85949999D01*
X180318233Y-85810957D01*
X181779190Y-84350000D01*
X179586769Y-84350000D01*
X179586038Y-84349785D01*
X179585307Y-84349991D01*
X179552556Y-84339954D01*
X179519730Y-84330315D01*
X179519232Y-84329741D01*
X179518504Y-84329518D01*
X179496346Y-84303328D01*
X179473975Y-84277511D01*
X179473703Y-84276566D01*
X179473375Y-84276178D01*
X179472081Y-84270917D01*
X179463832Y-84242198D01*
X179463242Y-84237720D01*
X179463242Y-84237280D01*
X179448429Y-84124764D01*
X179448325Y-84124515D01*
X179447230Y-84116198D01*
X179450431Y-84095656D01*
X179450431Y-84083698D01*
X179447368Y-84083295D01*
X179449989Y-84063385D01*
X179463242Y-83962720D01*
X179463242Y-83737280D01*
X179448429Y-83624764D01*
X179448428Y-83624763D01*
X179447368Y-83616705D01*
X179450431Y-83616301D01*
X179450431Y-83583698D01*
X179447368Y-83583295D01*
X179451005Y-83555671D01*
X179463242Y-83462720D01*
X179463242Y-83237280D01*
X179448429Y-83124764D01*
X179448428Y-83124763D01*
X179447368Y-83116705D01*
X179450431Y-83116301D01*
X179450431Y-83083698D01*
X179447368Y-83083295D01*
X179448988Y-83070991D01*
X179463242Y-82962720D01*
X179463242Y-82737280D01*
X179448429Y-82624764D01*
X179448428Y-82624763D01*
X179447368Y-82616705D01*
X179450431Y-82616301D01*
X179450431Y-82583698D01*
X179447368Y-82583295D01*
X179448959Y-82571210D01*
X179463242Y-82462720D01*
X179463242Y-82237280D01*
X179448429Y-82124764D01*
X179448428Y-82124763D01*
X179447368Y-82116705D01*
X179450431Y-82116301D01*
X179450431Y-82083698D01*
X179447368Y-82083295D01*
X179450360Y-82060567D01*
X179463242Y-81962720D01*
X179463242Y-81737280D01*
X179448429Y-81624764D01*
X179448428Y-81624763D01*
X179447368Y-81616705D01*
X179450431Y-81616301D01*
X179450431Y-81583698D01*
X179447368Y-81583295D01*
X179448831Y-81572183D01*
X179463242Y-81462720D01*
X179463242Y-81237280D01*
X179448429Y-81124764D01*
X179390440Y-80984767D01*
X179344952Y-80925486D01*
X179319758Y-80860319D01*
X179333796Y-80791874D01*
X179344953Y-80774512D01*
X179364904Y-80748512D01*
X179421332Y-80707310D01*
X179456847Y-80701120D01*
X179457830Y-80699999D01*
X179446938Y-80617270D01*
X179449151Y-80583529D01*
X179447368Y-80583295D01*
X179448429Y-80575236D01*
X179463242Y-80462720D01*
X179463242Y-80237280D01*
X179448429Y-80124764D01*
X179448428Y-80124763D01*
X179447368Y-80116705D01*
X179450431Y-80116301D01*
X179450431Y-80083698D01*
X179447368Y-80083295D01*
X179449318Y-80068480D01*
X179463242Y-79962720D01*
X179463242Y-79737280D01*
X179448429Y-79624764D01*
X179448428Y-79624763D01*
X179447368Y-79616705D01*
X179450431Y-79616301D01*
X179450431Y-79583698D01*
X179447368Y-79583295D01*
X179455465Y-79521789D01*
X179463242Y-79462720D01*
X179463242Y-79237280D01*
X179448429Y-79124764D01*
X179448428Y-79124763D01*
X179447368Y-79116705D01*
X179450431Y-79116301D01*
X179450431Y-79083698D01*
X179447368Y-79083295D01*
X179448429Y-79075236D01*
X179463242Y-78962720D01*
X179463242Y-78737280D01*
X179448429Y-78624764D01*
X179448428Y-78624763D01*
X179447368Y-78616705D01*
X179450431Y-78616301D01*
X179450431Y-78583698D01*
X179447368Y-78583295D01*
X179455592Y-78520827D01*
X179463242Y-78462720D01*
X179463242Y-78237280D01*
X179448429Y-78124764D01*
X179448428Y-78124763D01*
X179447368Y-78116705D01*
X179450431Y-78116301D01*
X179450431Y-78083698D01*
X179447368Y-78083295D01*
X179451499Y-78051915D01*
X179463242Y-77962720D01*
X179463242Y-77737280D01*
X179448429Y-77624764D01*
X179448428Y-77624763D01*
X179447368Y-77616705D01*
X179450431Y-77616301D01*
X179450431Y-77583698D01*
X179447368Y-77583295D01*
X179455465Y-77521789D01*
X179463242Y-77462720D01*
X179463242Y-77237280D01*
X179448429Y-77124764D01*
X179448428Y-77124763D01*
X179447368Y-77116705D01*
X179450431Y-77116301D01*
X179450431Y-77083698D01*
X179447368Y-77083295D01*
X179453019Y-77040372D01*
X179463242Y-76962720D01*
X179463242Y-76737280D01*
X179448429Y-76624764D01*
X179390440Y-76484767D01*
X179344952Y-76425486D01*
X179319758Y-76360319D01*
X179333796Y-76291874D01*
X179344953Y-76274512D01*
X179364904Y-76248512D01*
X179421332Y-76207310D01*
X179456847Y-76201120D01*
X179457830Y-76199999D01*
X179446938Y-76117270D01*
X179449151Y-76083529D01*
X179447368Y-76083295D01*
X179453924Y-76033497D01*
X179463242Y-75962720D01*
X179463242Y-75737280D01*
X179448429Y-75624764D01*
X179448428Y-75624763D01*
X179447368Y-75616705D01*
X179450431Y-75616301D01*
X179450431Y-75583698D01*
X179447368Y-75583295D01*
X179453012Y-75540423D01*
X179463242Y-75462720D01*
X179463242Y-75237280D01*
X179448429Y-75124764D01*
X179448428Y-75124763D01*
X179447368Y-75116705D01*
X179450431Y-75116301D01*
X179450431Y-75083698D01*
X179447368Y-75083295D01*
X179450026Y-75063104D01*
X179463242Y-74962720D01*
X179463242Y-74737280D01*
X179448429Y-74624764D01*
X179448428Y-74624763D01*
X179447368Y-74616705D01*
X179450431Y-74616301D01*
X179450431Y-74583698D01*
X179447368Y-74583295D01*
X179454215Y-74531284D01*
X179463242Y-74462720D01*
X179463242Y-74237280D01*
X179448429Y-74124764D01*
X179448428Y-74124763D01*
X179447368Y-74116705D01*
X179450431Y-74116301D01*
X179450431Y-74083698D01*
X179447368Y-74083295D01*
X179448429Y-74075236D01*
X179463242Y-73962720D01*
X179463242Y-73737280D01*
X179448429Y-73624764D01*
X179448428Y-73624763D01*
X179447368Y-73616705D01*
X179450431Y-73616301D01*
X179450431Y-73583698D01*
X179447368Y-73583295D01*
X179448725Y-73572989D01*
X179463242Y-73462720D01*
X179463242Y-73237280D01*
X179448429Y-73124764D01*
X179448428Y-73124763D01*
X179447368Y-73116705D01*
X179448950Y-73116496D01*
X179446519Y-73090658D01*
X179447518Y-73077435D01*
X179448429Y-73075236D01*
X179463242Y-72962720D01*
X179463242Y-72869316D01*
X179463594Y-72864658D01*
X179474350Y-72836168D01*
X179482927Y-72806961D01*
X179486570Y-72803803D01*
X179488274Y-72799292D01*
X179512726Y-72781139D01*
X179535731Y-72761206D01*
X179541172Y-72760022D01*
X179544375Y-72757645D01*
X179555574Y-72756889D01*
X179587242Y-72750000D01*
X181729190Y-72750000D01*
X181729190Y-72749999D01*
X180355966Y-71376776D01*
X180179189Y-71199999D01*
X180886294Y-71199999D01*
X180886294Y-71200001D01*
X182307504Y-72621211D01*
X182379102Y-72576224D01*
X182508967Y-72446358D01*
X182606679Y-72290849D01*
X182667334Y-72117509D01*
X182667337Y-72117496D01*
X182682741Y-71980776D01*
X182682742Y-71980772D01*
X182682742Y-70419227D01*
X182682741Y-70419223D01*
X182667337Y-70282503D01*
X182667334Y-70282490D01*
X182606679Y-70109150D01*
X182508966Y-69953639D01*
X182379102Y-69823775D01*
X182307504Y-69778788D01*
X180886294Y-71199999D01*
X180179189Y-71199999D01*
X178757978Y-69778788D01*
X178686381Y-69823775D01*
X178556517Y-69953639D01*
X178458804Y-70109150D01*
X178398149Y-70282490D01*
X178398146Y-70282503D01*
X178382742Y-70419223D01*
X178382742Y-71721402D01*
X178363057Y-71788441D01*
X178310253Y-71834196D01*
X178241095Y-71844140D01*
X178177539Y-71815115D01*
X178171061Y-71809083D01*
X178081459Y-71719481D01*
X178081458Y-71719480D01*
X177994646Y-71669360D01*
X177994646Y-71669359D01*
X177994642Y-71669358D01*
X177944527Y-71640423D01*
X177791799Y-71599499D01*
X177633685Y-71599499D01*
X177626089Y-71599499D01*
X177626073Y-71599500D01*
X177146666Y-71599500D01*
X177079627Y-71579815D01*
X177058984Y-71563180D01*
X177015692Y-71519887D01*
X177015684Y-71519881D01*
X176897371Y-71449911D01*
X176876395Y-71437506D01*
X176876394Y-71437505D01*
X176876393Y-71437505D01*
X176876390Y-71437504D01*
X176720997Y-71392357D01*
X176720991Y-71392356D01*
X176684697Y-71389500D01*
X176684690Y-71389500D01*
X176275310Y-71389500D01*
X176275302Y-71389500D01*
X176239008Y-71392356D01*
X176239002Y-71392357D01*
X176083609Y-71437504D01*
X176083604Y-71437506D01*
X176062628Y-71449911D01*
X175994903Y-71467092D01*
X175936389Y-71449911D01*
X175916191Y-71437966D01*
X175916190Y-71437965D01*
X175770001Y-71395493D01*
X175770000Y-71395494D01*
X175770000Y-71701645D01*
X175752734Y-71764763D01*
X175747507Y-71773600D01*
X175747504Y-71773608D01*
X175702357Y-71929002D01*
X175702356Y-71929008D01*
X175699500Y-71965302D01*
X175699500Y-72175500D01*
X175679815Y-72242539D01*
X175627011Y-72288294D01*
X175575500Y-72299500D01*
X172379057Y-72299500D01*
X172220943Y-72299500D01*
X172068215Y-72340423D01*
X172068214Y-72340423D01*
X172068212Y-72340424D01*
X172068211Y-72340424D01*
X172026427Y-72364549D01*
X171931287Y-72419477D01*
X171931282Y-72419481D01*
X169656739Y-74694024D01*
X169656733Y-74694032D01*
X169612624Y-74770433D01*
X169612624Y-74770434D01*
X169577681Y-74830956D01*
X169577681Y-74830957D01*
X169536757Y-74983685D01*
X169536757Y-74983687D01*
X169536757Y-75151788D01*
X169536758Y-75151801D01*
X169536758Y-76720209D01*
X169526559Y-76769457D01*
X169524762Y-76773609D01*
X169479615Y-76929002D01*
X169479614Y-76929008D01*
X169476758Y-76965302D01*
X169476758Y-77379481D01*
X169457073Y-77446520D01*
X169417856Y-77485019D01*
X169309214Y-77552031D01*
X169189290Y-77671955D01*
X169189287Y-77671959D01*
X169100259Y-77816294D01*
X169100254Y-77816305D01*
X169046909Y-77977290D01*
X169036758Y-78076647D01*
X169036758Y-78412612D01*
X169017073Y-78479651D01*
X168964269Y-78525406D01*
X168895111Y-78535350D01*
X168831555Y-78506325D01*
X168825077Y-78500293D01*
X167463139Y-77138355D01*
X167463137Y-77138352D01*
X167344266Y-77019481D01*
X167344265Y-77019480D01*
X167250439Y-76965310D01*
X167207334Y-76940423D01*
X167054606Y-76899499D01*
X166896492Y-76899499D01*
X166888896Y-76899499D01*
X166888880Y-76899500D01*
X147000883Y-76899500D01*
X147000867Y-76899499D01*
X146993271Y-76899499D01*
X146835157Y-76899499D01*
X146725030Y-76929008D01*
X146682428Y-76940423D01*
X146639324Y-76965310D01*
X146639323Y-76965310D01*
X146545501Y-77019477D01*
X146545496Y-77019481D01*
X146433692Y-77131286D01*
X144707717Y-78857260D01*
X144646394Y-78890745D01*
X144576702Y-78885761D01*
X144520769Y-78843889D01*
X144499934Y-78800421D01*
X144480047Y-78722966D01*
X144449009Y-78666508D01*
X144402088Y-78581157D01*
X144402087Y-78581155D01*
X144378437Y-78553465D01*
X144378422Y-78553449D01*
X144297408Y-78472435D01*
X144263923Y-78411112D01*
X144261089Y-78384754D01*
X144261089Y-77581530D01*
X144257894Y-77569605D01*
X144235229Y-77485019D01*
X144220166Y-77428804D01*
X144189031Y-77374877D01*
X144141109Y-77291873D01*
X144029305Y-77180069D01*
X144029304Y-77180068D01*
X144024974Y-77175738D01*
X144024963Y-77175728D01*
X143734574Y-76885339D01*
X143701089Y-76824016D01*
X143700638Y-76821849D01*
X143676594Y-76700976D01*
X143669737Y-76666503D01*
X143656529Y-76634616D01*
X143609397Y-76520827D01*
X143609390Y-76520814D01*
X143521789Y-76389711D01*
X143521786Y-76389707D01*
X143410292Y-76278213D01*
X143410288Y-76278210D01*
X143279185Y-76190609D01*
X143279172Y-76190602D01*
X143133501Y-76130264D01*
X143133489Y-76130261D01*
X142978845Y-76099500D01*
X142978842Y-76099500D01*
X142821158Y-76099500D01*
X142821153Y-76099500D01*
X142698295Y-76123938D01*
X142628703Y-76117711D01*
X142573526Y-76074848D01*
X142550282Y-76008958D01*
X142550487Y-75992587D01*
X142551256Y-75982812D01*
X142551642Y-75977913D01*
X142551642Y-75508533D01*
X142548785Y-75472230D01*
X142542655Y-75451132D01*
X142503637Y-75316832D01*
X142503636Y-75316829D01*
X142503636Y-75316828D01*
X142421259Y-75177536D01*
X142421257Y-75177534D01*
X142421254Y-75177530D01*
X142306834Y-75063110D01*
X142306826Y-75063104D01*
X142181600Y-74989046D01*
X142167537Y-74980729D01*
X142167536Y-74980728D01*
X142167535Y-74980728D01*
X142167532Y-74980727D01*
X142012139Y-74935580D01*
X142012133Y-74935579D01*
X141975839Y-74932723D01*
X141975832Y-74932723D01*
X141883500Y-74932723D01*
X141816461Y-74913038D01*
X141770706Y-74860234D01*
X141759500Y-74808723D01*
X141759500Y-73884499D01*
X141779185Y-73817460D01*
X141831989Y-73771705D01*
X141883500Y-73760499D01*
X142907871Y-73760499D01*
X142907872Y-73760499D01*
X142967483Y-73754091D01*
X143102331Y-73703796D01*
X143217546Y-73617546D01*
X143303796Y-73502331D01*
X143354091Y-73367483D01*
X143360500Y-73307873D01*
X143360499Y-72012128D01*
X143354091Y-71952517D01*
X143353152Y-71949999D01*
X174741209Y-71949999D01*
X174741210Y-71950000D01*
X175270000Y-71950000D01*
X175270000Y-71395494D01*
X175269998Y-71395493D01*
X175123809Y-71437965D01*
X175123806Y-71437967D01*
X174984625Y-71520278D01*
X174984616Y-71520285D01*
X174870285Y-71634616D01*
X174870278Y-71634625D01*
X174787968Y-71773804D01*
X174787966Y-71773809D01*
X174742855Y-71929081D01*
X174742854Y-71929087D01*
X174741209Y-71949999D01*
X143353152Y-71949999D01*
X143303796Y-71817669D01*
X143303795Y-71817668D01*
X143303793Y-71817664D01*
X143217547Y-71702455D01*
X143217544Y-71702452D01*
X143102335Y-71616206D01*
X143102328Y-71616202D01*
X142967482Y-71565908D01*
X142967483Y-71565908D01*
X142907883Y-71559501D01*
X142907881Y-71559500D01*
X142907873Y-71559500D01*
X142907864Y-71559500D01*
X141412129Y-71559500D01*
X141412123Y-71559501D01*
X141352516Y-71565908D01*
X141217671Y-71616202D01*
X141217664Y-71616206D01*
X141102455Y-71702452D01*
X141102452Y-71702455D01*
X141016206Y-71817664D01*
X141016202Y-71817671D01*
X140965908Y-71952517D01*
X140959501Y-72012116D01*
X140959500Y-72012135D01*
X140959500Y-72866972D01*
X140939815Y-72934011D01*
X140923181Y-72954653D01*
X140780912Y-73096921D01*
X140780913Y-73096922D01*
X140687480Y-73190355D01*
X140687479Y-73190357D01*
X140683354Y-73197502D01*
X140632786Y-73245716D01*
X140575968Y-73259500D01*
X139212129Y-73259500D01*
X139212123Y-73259501D01*
X139152516Y-73265908D01*
X139017671Y-73316202D01*
X139017664Y-73316206D01*
X138902455Y-73402452D01*
X138902452Y-73402455D01*
X138816206Y-73517664D01*
X138816202Y-73517671D01*
X138765908Y-73652517D01*
X138759501Y-73712116D01*
X138759500Y-73712135D01*
X138759500Y-74904232D01*
X138739815Y-74971271D01*
X138687011Y-75017026D01*
X138617853Y-75026970D01*
X138611308Y-75025849D01*
X138478844Y-74999500D01*
X138478842Y-74999500D01*
X138321158Y-74999500D01*
X138321155Y-74999500D01*
X138166510Y-75030261D01*
X138166498Y-75030264D01*
X138020827Y-75090602D01*
X138020814Y-75090609D01*
X137889711Y-75178210D01*
X137889707Y-75178213D01*
X137778213Y-75289707D01*
X137778210Y-75289711D01*
X137690609Y-75420814D01*
X137690602Y-75420827D01*
X137630264Y-75566498D01*
X137630261Y-75566508D01*
X137599362Y-75721848D01*
X137577294Y-75771588D01*
X137571862Y-75778901D01*
X137519480Y-75831284D01*
X137475982Y-75906625D01*
X137472410Y-75912810D01*
X137472409Y-75912813D01*
X137443590Y-75962729D01*
X137440423Y-75968215D01*
X137399499Y-76120943D01*
X137399499Y-76120945D01*
X137399499Y-76275500D01*
X137379814Y-76342539D01*
X137327010Y-76388294D01*
X137275499Y-76399500D01*
X135686669Y-76399500D01*
X135686653Y-76399499D01*
X135679057Y-76399499D01*
X135520943Y-76399499D01*
X135406397Y-76430192D01*
X135368214Y-76440423D01*
X135328723Y-76463224D01*
X135328722Y-76463224D01*
X135231287Y-76519477D01*
X135231282Y-76519481D01*
X131519481Y-80231282D01*
X131519479Y-80231285D01*
X131510230Y-80247305D01*
X131477045Y-80304784D01*
X131440423Y-80368215D01*
X131399499Y-80520943D01*
X131399499Y-80520945D01*
X131399499Y-80689046D01*
X131399500Y-80689059D01*
X131399500Y-84736089D01*
X131379815Y-84803128D01*
X131327011Y-84848883D01*
X131275500Y-84860089D01*
X121968468Y-84860089D01*
X121810354Y-84860089D01*
X121657626Y-84901012D01*
X121657625Y-84901012D01*
X121657623Y-84901013D01*
X121657620Y-84901014D01*
X121612388Y-84927130D01*
X121612387Y-84927131D01*
X121578920Y-84946453D01*
X121520696Y-84980068D01*
X121520693Y-84980070D01*
X121408889Y-85091875D01*
X117668289Y-88832474D01*
X117606966Y-88865959D01*
X117537274Y-88860975D01*
X117502248Y-88840895D01*
X117403412Y-88760305D01*
X117403408Y-88760303D01*
X117403407Y-88760302D01*
X117223049Y-88666091D01*
X117223048Y-88666090D01*
X117223045Y-88666089D01*
X117105829Y-88632550D01*
X117027418Y-88610114D01*
X117027415Y-88610113D01*
X117027413Y-88610113D01*
X116961102Y-88604217D01*
X116908037Y-88599500D01*
X116908032Y-88599500D01*
X115791971Y-88599500D01*
X115791965Y-88599500D01*
X115791964Y-88599501D01*
X115780738Y-88600499D01*
X115672584Y-88610113D01*
X115476954Y-88666089D01*
X115429883Y-88690677D01*
X115296593Y-88760302D01*
X115296591Y-88760303D01*
X115296590Y-88760304D01*
X115138890Y-88888890D01*
X115010304Y-89046590D01*
X115010302Y-89046593D01*
X114979053Y-89106417D01*
X114916089Y-89226954D01*
X114873917Y-89374341D01*
X114860635Y-89420763D01*
X114860114Y-89422583D01*
X114860113Y-89422586D01*
X114849500Y-89541966D01*
X114849500Y-90275500D01*
X114829815Y-90342539D01*
X114777011Y-90388294D01*
X114725500Y-90399500D01*
X111616916Y-90399500D01*
X111549877Y-90379815D01*
X111504122Y-90327011D01*
X111502425Y-90322887D01*
X111417032Y-90150707D01*
X111417030Y-90150704D01*
X111297724Y-90002280D01*
X111297722Y-90002278D01*
X111228112Y-89946324D01*
X111188196Y-89888985D01*
X111185616Y-89819163D01*
X111221194Y-89759030D01*
X111228115Y-89753033D01*
X111297366Y-89697367D01*
X111297367Y-89697366D01*
X111416607Y-89549025D01*
X111416609Y-89549022D01*
X111501168Y-89378523D01*
X111547102Y-89193824D01*
X111550000Y-89151096D01*
X111550000Y-88950000D01*
X108740000Y-88950000D01*
X108740000Y-89046000D01*
X108720315Y-89113039D01*
X108667511Y-89158794D01*
X108616000Y-89170000D01*
X108298352Y-89170000D01*
X108235233Y-89152732D01*
X108226395Y-89147506D01*
X108226393Y-89147505D01*
X108226389Y-89147503D01*
X108070997Y-89102357D01*
X108070991Y-89102356D01*
X108034697Y-89099500D01*
X108034690Y-89099500D01*
X107565310Y-89099500D01*
X107565302Y-89099500D01*
X107529008Y-89102356D01*
X107529002Y-89102357D01*
X107373610Y-89147503D01*
X107373605Y-89147506D01*
X107364766Y-89152732D01*
X107301648Y-89170000D01*
X106995496Y-89170000D01*
X107037968Y-89316194D01*
X107049911Y-89336389D01*
X107067092Y-89404113D01*
X107049911Y-89462628D01*
X107037506Y-89483604D01*
X107037504Y-89483609D01*
X106992357Y-89639002D01*
X106992356Y-89639008D01*
X106989500Y-89675302D01*
X106989500Y-90084697D01*
X106992356Y-90120991D01*
X106992357Y-90120997D01*
X107037504Y-90276390D01*
X107037505Y-90276393D01*
X107037506Y-90276395D01*
X107047647Y-90293543D01*
X107119881Y-90415684D01*
X107119887Y-90415692D01*
X107234307Y-90530112D01*
X107234311Y-90530115D01*
X107234313Y-90530117D01*
X107373605Y-90612494D01*
X107414587Y-90624400D01*
X107529002Y-90657642D01*
X107529005Y-90657642D01*
X107529007Y-90657643D01*
X107565310Y-90660500D01*
X107565318Y-90660500D01*
X108034682Y-90660500D01*
X108034690Y-90660500D01*
X108070993Y-90657643D01*
X108070995Y-90657642D01*
X108070997Y-90657642D01*
X108135833Y-90638805D01*
X108226395Y-90612494D01*
X108362380Y-90532072D01*
X108430103Y-90514890D01*
X108496365Y-90537050D01*
X108540129Y-90591516D01*
X108549500Y-90638805D01*
X108549500Y-91161775D01*
X108529815Y-91228814D01*
X108477011Y-91274569D01*
X108407853Y-91284513D01*
X108362379Y-91268507D01*
X108226195Y-91187968D01*
X108226190Y-91187966D01*
X108070918Y-91142855D01*
X108070912Y-91142854D01*
X108050000Y-91141209D01*
X108050000Y-91796000D01*
X108047449Y-91804685D01*
X108048738Y-91813647D01*
X108037759Y-91837687D01*
X108030315Y-91863039D01*
X108023474Y-91868966D01*
X108019713Y-91877203D01*
X107997478Y-91891492D01*
X107977511Y-91908794D01*
X107966996Y-91911081D01*
X107960935Y-91914977D01*
X107926000Y-91920000D01*
X107740597Y-91920000D01*
X107673558Y-91900315D01*
X107652916Y-91883681D01*
X107586319Y-91817084D01*
X107552834Y-91755761D01*
X107550000Y-91729403D01*
X107550000Y-91141210D01*
X107549999Y-91141209D01*
X107529087Y-91142854D01*
X107529081Y-91142855D01*
X107373809Y-91187966D01*
X107373804Y-91187968D01*
X107234625Y-91270278D01*
X107234614Y-91270287D01*
X107224746Y-91280155D01*
X107163422Y-91313638D01*
X107093731Y-91308651D01*
X107049387Y-91280152D01*
X105327590Y-89558355D01*
X105327588Y-89558352D01*
X105208717Y-89439481D01*
X105208709Y-89439475D01*
X105095894Y-89374342D01*
X105095893Y-89374341D01*
X105078947Y-89364558D01*
X105071785Y-89360423D01*
X104919057Y-89319499D01*
X104760943Y-89319499D01*
X104753347Y-89319499D01*
X104753331Y-89319500D01*
X103709113Y-89319500D01*
X103642074Y-89299815D01*
X103596319Y-89247011D01*
X103592704Y-89237807D01*
X103592000Y-89236297D01*
X103502968Y-89091956D01*
X103383044Y-88972032D01*
X103383040Y-88972029D01*
X103238705Y-88883001D01*
X103238699Y-88882998D01*
X103238697Y-88882997D01*
X103235670Y-88881994D01*
X103077709Y-88829651D01*
X102978346Y-88819500D01*
X102431662Y-88819500D01*
X102431644Y-88819501D01*
X102332292Y-88829650D01*
X102332289Y-88829651D01*
X102171305Y-88882996D01*
X102171294Y-88883001D01*
X102026959Y-88972029D01*
X102026955Y-88972032D01*
X101907032Y-89091955D01*
X101907029Y-89091959D01*
X101818001Y-89236294D01*
X101817996Y-89236305D01*
X101764651Y-89397290D01*
X101754500Y-89496647D01*
X101754500Y-90343337D01*
X101754501Y-90343355D01*
X101764650Y-90442707D01*
X101764651Y-90442710D01*
X101817996Y-90603694D01*
X101818001Y-90603705D01*
X101907029Y-90748040D01*
X101907032Y-90748044D01*
X102026955Y-90867967D01*
X102026959Y-90867970D01*
X102171294Y-90956998D01*
X102171297Y-90956999D01*
X102171303Y-90957003D01*
X102332292Y-91010349D01*
X102431655Y-91020500D01*
X102978344Y-91020499D01*
X102978352Y-91020498D01*
X102978355Y-91020498D01*
X103032760Y-91014940D01*
X103077708Y-91010349D01*
X103238697Y-90957003D01*
X103383044Y-90867968D01*
X103502968Y-90748044D01*
X103592003Y-90603697D01*
X103592004Y-90603692D01*
X103595053Y-90597155D01*
X103596661Y-90597904D01*
X103631184Y-90548047D01*
X103695701Y-90521227D01*
X103709113Y-90520500D01*
X104539903Y-90520500D01*
X104606942Y-90540185D01*
X104627584Y-90556819D01*
X106543584Y-92472819D01*
X106577069Y-92534142D01*
X106572085Y-92603834D01*
X106530213Y-92659767D01*
X106464749Y-92684184D01*
X106455903Y-92684500D01*
X100812647Y-92684500D01*
X100745608Y-92664815D01*
X100699853Y-92612011D01*
X100689909Y-92542853D01*
X100718934Y-92479297D01*
X100749526Y-92453768D01*
X100822285Y-92410738D01*
X100822294Y-92410731D01*
X100935731Y-92297294D01*
X100935738Y-92297285D01*
X101017406Y-92159191D01*
X101017407Y-92159188D01*
X101062166Y-92005128D01*
X101062167Y-92005122D01*
X101064931Y-91970000D01*
X100419000Y-91970000D01*
X100351961Y-91950315D01*
X100306206Y-91897511D01*
X100295000Y-91846000D01*
X100295000Y-91720000D01*
X100169499Y-91720000D01*
X100161032Y-91717513D01*
X100152301Y-91718802D01*
X100128021Y-91707820D01*
X100102460Y-91700315D01*
X100096681Y-91693645D01*
X100088640Y-91690009D01*
X100074151Y-91667644D01*
X100056705Y-91647511D01*
X100054449Y-91637235D01*
X100050650Y-91631370D01*
X100045693Y-91597335D01*
X100045500Y-91596454D01*
X100045499Y-91596249D01*
X100045499Y-91470820D01*
X100045017Y-91464705D01*
X100045001Y-91460061D01*
X100045015Y-91460009D01*
X100045000Y-91459607D01*
X100045000Y-90957374D01*
X100059746Y-90907154D01*
X100545000Y-90907154D01*
X100545000Y-91470000D01*
X101064931Y-91470000D01*
X101062167Y-91434877D01*
X101062166Y-91434871D01*
X101017407Y-91280811D01*
X101017406Y-91280808D01*
X100935738Y-91142714D01*
X100935731Y-91142705D01*
X100822294Y-91029268D01*
X100822285Y-91029261D01*
X100684191Y-90947593D01*
X100684188Y-90947591D01*
X100545001Y-90907153D01*
X100545000Y-90907154D01*
X100059746Y-90907154D01*
X100064685Y-90890335D01*
X100081319Y-90869693D01*
X100193498Y-90757514D01*
X100202968Y-90748044D01*
X100292003Y-90603697D01*
X100345349Y-90442708D01*
X100355500Y-90343345D01*
X100355499Y-89496656D01*
X100351977Y-89462181D01*
X100345349Y-89397292D01*
X100345348Y-89397289D01*
X100339130Y-89378523D01*
X100292003Y-89236303D01*
X100291999Y-89236297D01*
X100291998Y-89236294D01*
X100202970Y-89091959D01*
X100202967Y-89091955D01*
X100083044Y-88972032D01*
X100083040Y-88972029D01*
X99938705Y-88883001D01*
X99938699Y-88882998D01*
X99938697Y-88882997D01*
X99935670Y-88881994D01*
X99777709Y-88829651D01*
X99678346Y-88819500D01*
X99131662Y-88819500D01*
X99131644Y-88819501D01*
X99032292Y-88829650D01*
X99032289Y-88829651D01*
X98871305Y-88882996D01*
X98871294Y-88883001D01*
X98726959Y-88972029D01*
X98726955Y-88972032D01*
X98607031Y-89091956D01*
X98524996Y-89224954D01*
X98507704Y-89240505D01*
X98493768Y-89259123D01*
X98482215Y-89263432D01*
X98473047Y-89271678D01*
X98450093Y-89275412D01*
X98428304Y-89283540D01*
X98416254Y-89280918D01*
X98404085Y-89282899D01*
X98382756Y-89273631D01*
X98360031Y-89268688D01*
X98344332Y-89256936D01*
X98340003Y-89255055D01*
X98331777Y-89247537D01*
X98305888Y-89221648D01*
X98272403Y-89160325D01*
X98277387Y-89090633D01*
X98279008Y-89086514D01*
X98326570Y-88971689D01*
X98334862Y-88930000D01*
X97531988Y-88930000D01*
X97549205Y-88920060D01*
X97605060Y-88864205D01*
X97644556Y-88795796D01*
X97665000Y-88719496D01*
X97665000Y-88670000D01*
X106995496Y-88670000D01*
X107550000Y-88670000D01*
X107550000Y-88141210D01*
X107549999Y-88141209D01*
X108050000Y-88141209D01*
X108050000Y-88670000D01*
X108420000Y-88670000D01*
X108420000Y-88574000D01*
X108439685Y-88506961D01*
X108492489Y-88461206D01*
X108544000Y-88450000D01*
X109800000Y-88450000D01*
X110300000Y-88450000D01*
X111550000Y-88450000D01*
X111550000Y-88248903D01*
X111547102Y-88206175D01*
X111501168Y-88021476D01*
X111416609Y-87850977D01*
X111416607Y-87850974D01*
X111297367Y-87702633D01*
X111297366Y-87702632D01*
X111149025Y-87583392D01*
X111149022Y-87583390D01*
X110978523Y-87498831D01*
X110793824Y-87452897D01*
X110751097Y-87450000D01*
X110300000Y-87450000D01*
X110300000Y-88450000D01*
X109800000Y-88450000D01*
X109800000Y-87450000D01*
X109348903Y-87450000D01*
X109306175Y-87452897D01*
X109121476Y-87498831D01*
X108950977Y-87583390D01*
X108950974Y-87583392D01*
X108802633Y-87702632D01*
X108802632Y-87702633D01*
X108683392Y-87850974D01*
X108683390Y-87850977D01*
X108598831Y-88021476D01*
X108555130Y-88197199D01*
X108519847Y-88257506D01*
X108457562Y-88289164D01*
X108388048Y-88282123D01*
X108371674Y-88274004D01*
X108226195Y-88187968D01*
X108226190Y-88187966D01*
X108070918Y-88142855D01*
X108070912Y-88142854D01*
X108050000Y-88141209D01*
X107549999Y-88141209D01*
X107529087Y-88142854D01*
X107529081Y-88142855D01*
X107373809Y-88187966D01*
X107373804Y-88187968D01*
X107234625Y-88270278D01*
X107234616Y-88270285D01*
X107120285Y-88384616D01*
X107120278Y-88384625D01*
X107037968Y-88523804D01*
X106995496Y-88670000D01*
X97665000Y-88670000D01*
X97665000Y-88640504D01*
X97644556Y-88564204D01*
X97605060Y-88495795D01*
X97549205Y-88439940D01*
X97531988Y-88430000D01*
X98334862Y-88430000D01*
X98326569Y-88388309D01*
X98326569Y-88388307D01*
X98251192Y-88206328D01*
X98251185Y-88206315D01*
X98141751Y-88042537D01*
X98141748Y-88042533D01*
X98002466Y-87903251D01*
X98002462Y-87903248D01*
X97838684Y-87793814D01*
X97838671Y-87793807D01*
X97656693Y-87718430D01*
X97656681Y-87718427D01*
X97463495Y-87680000D01*
X97065000Y-87680000D01*
X97065000Y-88380000D01*
X96565000Y-88380000D01*
X96565000Y-87680000D01*
X96166504Y-87680000D01*
X95973318Y-87718427D01*
X95973306Y-87718430D01*
X95791328Y-87793807D01*
X95791315Y-87793814D01*
X95627537Y-87903248D01*
X95627533Y-87903251D01*
X95488251Y-88042533D01*
X95488248Y-88042537D01*
X95378814Y-88206315D01*
X95378807Y-88206328D01*
X95303430Y-88388307D01*
X95303430Y-88388309D01*
X95295138Y-88430000D01*
X96098012Y-88430000D01*
X96080795Y-88439940D01*
X96024940Y-88495795D01*
X95985444Y-88564204D01*
X95965000Y-88640504D01*
X95965000Y-88719496D01*
X95985444Y-88795796D01*
X96024940Y-88864205D01*
X96080795Y-88920060D01*
X96098012Y-88930000D01*
X95295138Y-88930000D01*
X95303430Y-88971690D01*
X95303430Y-88971692D01*
X95378807Y-89153671D01*
X95378814Y-89153684D01*
X95488248Y-89317462D01*
X95488251Y-89317466D01*
X95627533Y-89456748D01*
X95627537Y-89456751D01*
X95791315Y-89566185D01*
X95791328Y-89566192D01*
X95800838Y-89570131D01*
X95855243Y-89613970D01*
X95877310Y-89680264D01*
X95860033Y-89747963D01*
X95856350Y-89753405D01*
X95778719Y-89887863D01*
X95739500Y-90034234D01*
X95739500Y-90175056D01*
X95719815Y-90242095D01*
X95677504Y-90282441D01*
X95655782Y-90294983D01*
X95655776Y-90294987D01*
X94319481Y-91631282D01*
X94319479Y-91631285D01*
X94282648Y-91695080D01*
X94282647Y-91695082D01*
X94240423Y-91768214D01*
X94240288Y-91768717D01*
X94199499Y-91920943D01*
X94199499Y-92079057D01*
X94199499Y-92079059D01*
X94199500Y-92089053D01*
X94199500Y-93822826D01*
X94199499Y-93822844D01*
X94199499Y-93988550D01*
X94199498Y-93988550D01*
X90500500Y-93988550D01*
X90500500Y-88430000D01*
X91265138Y-88430000D01*
X92068012Y-88430000D01*
X92050795Y-88439940D01*
X91994940Y-88495795D01*
X91955444Y-88564204D01*
X91935000Y-88640504D01*
X91935000Y-88719496D01*
X91955444Y-88795796D01*
X91994940Y-88864205D01*
X92050795Y-88920060D01*
X92068012Y-88930000D01*
X91265138Y-88930000D01*
X91273430Y-88971690D01*
X91273430Y-88971692D01*
X91348807Y-89153671D01*
X91348814Y-89153684D01*
X91458248Y-89317462D01*
X91458251Y-89317466D01*
X91597533Y-89456748D01*
X91597537Y-89456751D01*
X91761315Y-89566185D01*
X91761328Y-89566192D01*
X91943306Y-89641569D01*
X91943318Y-89641572D01*
X92136504Y-89679999D01*
X92136508Y-89680000D01*
X92385000Y-89680000D01*
X92385000Y-88980000D01*
X92885000Y-88980000D01*
X92885000Y-89680000D01*
X93133492Y-89680000D01*
X93133495Y-89679999D01*
X93326681Y-89641572D01*
X93326693Y-89641569D01*
X93508671Y-89566192D01*
X93508684Y-89566185D01*
X93672462Y-89456751D01*
X93672466Y-89456748D01*
X93811748Y-89317466D01*
X93811751Y-89317462D01*
X93921185Y-89153684D01*
X93921192Y-89153671D01*
X93996569Y-88971692D01*
X93996569Y-88971690D01*
X94004862Y-88930000D01*
X93201988Y-88930000D01*
X93219205Y-88920060D01*
X93275060Y-88864205D01*
X93314556Y-88795796D01*
X93335000Y-88719496D01*
X93335000Y-88640504D01*
X93314556Y-88564204D01*
X93275060Y-88495795D01*
X93219205Y-88439940D01*
X93201988Y-88430000D01*
X94004862Y-88430000D01*
X93996569Y-88388309D01*
X93996569Y-88388307D01*
X93921192Y-88206328D01*
X93921185Y-88206315D01*
X93811751Y-88042537D01*
X93811748Y-88042533D01*
X93672466Y-87903251D01*
X93672462Y-87903248D01*
X93508684Y-87793814D01*
X93508671Y-87793807D01*
X93326693Y-87718430D01*
X93326681Y-87718427D01*
X93133495Y-87680000D01*
X92885000Y-87680000D01*
X92885000Y-88380000D01*
X92385000Y-88380000D01*
X92385000Y-87680000D01*
X92136504Y-87680000D01*
X91943318Y-87718427D01*
X91943306Y-87718430D01*
X91761328Y-87793807D01*
X91761315Y-87793814D01*
X91597537Y-87903248D01*
X91597533Y-87903251D01*
X91458251Y-88042533D01*
X91458248Y-88042537D01*
X91348814Y-88206315D01*
X91348807Y-88206328D01*
X91273430Y-88388307D01*
X91273430Y-88388309D01*
X91265138Y-88430000D01*
X90500500Y-88430000D01*
X90500500Y-69650000D01*
X179336293Y-69650000D01*
X180532742Y-70846448D01*
X181729190Y-69650000D01*
X179336293Y-69650000D01*
X90500500Y-69650000D01*
X90500500Y-58308529D01*
X90500501Y-58308526D01*
X90500500Y-58246108D01*
X90500695Y-58239160D01*
X90504203Y-58176681D01*
X90515823Y-57969723D01*
X90517377Y-57955928D01*
X90561997Y-57693308D01*
X90565085Y-57679776D01*
X90638834Y-57423792D01*
X90643427Y-57410672D01*
X90730901Y-57199500D01*
X90745361Y-57164592D01*
X90751390Y-57152071D01*
X90880256Y-56918916D01*
X90887630Y-56907181D01*
X91041792Y-56689921D01*
X91050449Y-56679066D01*
X91230654Y-56477432D01*
X91235385Y-56472428D01*
X91279167Y-56428650D01*
X91279171Y-56428642D01*
X91838941Y-55868872D01*
X134999500Y-55868872D01*
X134999500Y-56331127D01*
X135018101Y-56472405D01*
X135033730Y-56591116D01*
X135101079Y-56842466D01*
X135101602Y-56844418D01*
X135101605Y-56844428D01*
X135201953Y-57086690D01*
X135201958Y-57086700D01*
X135333075Y-57313803D01*
X135492718Y-57521851D01*
X135492726Y-57521860D01*
X135678140Y-57707274D01*
X135678148Y-57707281D01*
X135678149Y-57707282D01*
X135726554Y-57744424D01*
X135886196Y-57866924D01*
X136113299Y-57998041D01*
X136113309Y-57998046D01*
X136288659Y-58070678D01*
X136355581Y-58098398D01*
X136608884Y-58166270D01*
X136868880Y-58200500D01*
X136868887Y-58200500D01*
X153131113Y-58200500D01*
X153131120Y-58200500D01*
X153391116Y-58166270D01*
X153644419Y-58098398D01*
X153886697Y-57998043D01*
X154113803Y-57866924D01*
X154321851Y-57707282D01*
X154321855Y-57707277D01*
X154321860Y-57707274D01*
X154507274Y-57521860D01*
X154507277Y-57521855D01*
X154507282Y-57521851D01*
X154666924Y-57313803D01*
X154798043Y-57086697D01*
X154898398Y-56844419D01*
X154966270Y-56591116D01*
X155000500Y-56331120D01*
X155000500Y-56200000D01*
X155000500Y-56134108D01*
X155000500Y-55934108D01*
X155000500Y-55868880D01*
X154966270Y-55608884D01*
X154898398Y-55355581D01*
X154806785Y-55134408D01*
X154798046Y-55113309D01*
X154798041Y-55113299D01*
X154666924Y-54886196D01*
X154507281Y-54678148D01*
X154507274Y-54678140D01*
X154321860Y-54492726D01*
X154321851Y-54492718D01*
X154113803Y-54333075D01*
X153886700Y-54201958D01*
X153886690Y-54201953D01*
X153644428Y-54101605D01*
X153644421Y-54101603D01*
X153644419Y-54101602D01*
X153391116Y-54033730D01*
X153333339Y-54026123D01*
X153131127Y-53999500D01*
X153131120Y-53999500D01*
X153065892Y-53999500D01*
X137065892Y-53999500D01*
X137000000Y-53999500D01*
X136868880Y-53999500D01*
X136868872Y-53999500D01*
X136637772Y-54029926D01*
X136608884Y-54033730D01*
X136355581Y-54101602D01*
X136355571Y-54101605D01*
X136113309Y-54201953D01*
X136113299Y-54201958D01*
X135886196Y-54333075D01*
X135678148Y-54492718D01*
X135492718Y-54678148D01*
X135333075Y-54886196D01*
X135201958Y-55113299D01*
X135201953Y-55113309D01*
X135101605Y-55355571D01*
X135101602Y-55355581D01*
X135033730Y-55608885D01*
X134999500Y-55868872D01*
X91838941Y-55868872D01*
X93460094Y-54247718D01*
X93472768Y-54235044D01*
X93477772Y-54230314D01*
X93679043Y-54050457D01*
X93689896Y-54041803D01*
X93907153Y-53887658D01*
X93918918Y-53880267D01*
X93918985Y-53880230D01*
X94152071Y-53751412D01*
X94164570Y-53745393D01*
X94410680Y-53643452D01*
X94423792Y-53638863D01*
X94679784Y-53565114D01*
X94693305Y-53562028D01*
X94955939Y-53517402D01*
X94969737Y-53515847D01*
X95194812Y-53503204D01*
X95239484Y-53500695D01*
X95246438Y-53500500D01*
X194691470Y-53500500D01*
X194691474Y-53500501D01*
G37*
%TD.AperFunction*%
%TD*%
M02*
